<svg width="375" height="936" viewBox="0 0 375 936" fill="none" xmlns="http://www.w3.org/2000/svg">
<g clip-path="url(#clip0_245_143)">
<g opacity="0.7">
<mask id="mask0_245_143" style="mask-type:luminance" maskUnits="userSpaceOnUse" x="-754" y="-143" width="1883" height="941">
<path d="M1128.5 -143H-753.5V798H1128.5V-143Z" fill="white"/>
<path d="M1128.01 -142.51V797.51H-753.01V-142.51H1128.01Z" stroke="white" stroke-width="0.980208"/>
</mask>
<g mask="url(#mask0_245_143)">
<path d="M-795.16 387.183C-801.604 314.587 -730.024 253.429 -657.497 246.252C-584.969 239.072 -514.66 271.471 -451.423 307.702C-388.185 343.932 -325.816 385.581 -254.351 399.882C-139.834 422.8 -24.7355 371.934 80.3812 321.043C185.498 270.151 298.392 216.495 413.914 233.645C497.882 246.111 571.369 294.624 649.66 327.441C843.429 408.661 1076.38 388.971 1253.77 276.38" stroke="#E6E6E6" stroke-opacity="0.75" stroke-width="0.490104" stroke-miterlimit="10"/>
<path d="M-796.097 391.159C-796.499 350.637 -769.21 312.051 -732.405 284.737C-708.151 266.723 -679.938 253.185 -651.016 249.082C-580.664 239.103 -511.574 269.916 -448.767 304.321C-419.142 320.549 -390.02 339.075 -360.866 355.958C-331.412 373.002 -301.58 388.322 -269.382 398.191C-263.773 399.905 -258.085 401.456 -252.319 402.813C-224.814 409.294 -196.744 411.223 -169.003 408.669C-102.535 402.533 -42.0196 372.934 21.4179 345.135C42.1081 336.068 62.6219 327.472 82.5805 319.241C90.245 316.062 97.9165 312.922 105.579 309.814C133.105 298.71 160.782 288.108 189.377 278.267C234.623 262.663 281.983 248.614 328.751 240.938C358.679 236.04 388.307 233.96 418.209 236.586C425.107 237.188 431.943 238.03 438.733 239.096C474.608 244.718 509.632 256.379 544.256 271.962C581.934 288.936 617.835 310.047 654.365 327.425C689.523 344.229 726.213 358.045 764.951 366.639C808.315 376.258 852.624 378.778 896.068 377.154C939.634 375.534 983.188 369.429 1027.03 361.254C1068.77 353.467 1110.05 344.118 1148.94 331.906C1187.9 319.666 1224.68 304.453 1259.33 285.675" stroke="#E6E6E6" stroke-opacity="0.75" stroke-width="0.490104" stroke-miterlimit="10"/>
<path d="M-797.035 395.135C-793.951 357.887 -763.889 320.353 -726.265 291.855C-701.416 273.009 -673.656 257.309 -644.539 251.917C-576.42 239.305 -508.457 268.321 -446.115 300.943C-415.77 316.822 -386.275 336.179 -357.478 354.248C-328.396 372.468 -299.338 389.282 -267.323 400.472C-261.75 402.416 -256.069 404.182 -250.289 405.747C-222.71 413.221 -194.04 415.82 -165.914 412.677C-98.4746 405.112 -42.2922 369.076 22.3616 341.18C43.4705 332.076 64.5042 324.39 84.778 317.441C92.546 314.745 100.29 312.136 107.976 309.584C135.627 300.508 163.088 292.267 191.981 284.12C237.665 271.177 286.568 257.749 333.621 248.468C363.705 242.563 392.92 238.762 422.501 239.526C429.328 239.696 436.1 240.098 442.843 240.726C478.478 244.036 514.18 253.307 549.566 268.683C588.001 285.414 623.451 308.346 659.063 327.406C693.37 345.92 729.391 361.948 768.767 370.958C812.849 381.048 857.885 381.238 901.11 377.371C944.452 373.503 987.686 364.931 1032.27 356.389C1074.73 348.254 1116.95 340.785 1155.86 331.316C1194.84 321.819 1230.89 310.12 1264.89 294.968" stroke="#E6E6E6" stroke-opacity="0.75" stroke-width="0.490104" stroke-miterlimit="10"/>
<path d="M-797.972 399.11C-791.403 365.14 -758.563 328.655 -720.123 298.971C-694.678 279.293 -667.413 261.468 -638.06 254.749C-572.219 239.679 -505.297 266.683 -443.462 297.565C-412.38 313.086 -382.53 333.283 -354.085 352.538C-325.373 371.934 -297.091 390.241 -265.257 402.754C-259.72 404.923 -254.045 406.911 -248.254 408.68C-220.605 417.145 -191.333 420.417 -162.82 416.686C-94.4072 407.69 -42.5628 365.218 23.3095 337.228C44.8373 328.086 66.4074 321.37 86.98 315.644C94.8585 313.451 102.664 311.334 110.378 309.355C138.135 302.237 165.401 296.431 194.59 289.978C240.714 279.695 291.158 266.888 338.493 256.003C368.734 249.089 397.536 243.568 426.794 242.471C433.548 242.208 440.26 242.17 446.955 242.361C482.348 243.356 518.73 250.242 554.878 265.411C594.068 281.899 629.118 306.568 663.764 327.394C697.27 347.539 732.574 365.855 772.583 375.284C817.379 385.845 863.145 383.706 906.149 377.592C949.265 371.48 992.182 360.435 1037.51 351.529C1080.68 343.046 1123.86 337.456 1162.78 330.728C1201.77 323.976 1237.1 315.787 1270.44 304.262" stroke="#E6E6E6" stroke-opacity="0.75" stroke-width="0.490104" stroke-miterlimit="10"/>
<path d="M-798.911 403.086C-788.856 372.393 -753.242 336.957 -713.981 306.09C-687.941 285.576 -661.2 265.674 -631.582 257.584C-568.046 240.227 -502.108 265.006 -440.809 294.186C-408.982 309.339 -378.785 330.387 -350.696 350.825C-322.353 371.398 -294.848 391.199 -263.197 405.034C-257.695 407.429 -252.03 409.638 -246.224 411.611C-218.502 421.068 -188.63 425.011 -159.732 420.69C-90.3472 410.263 -42.8361 361.355 24.2525 333.268C46.1989 324.087 68.2866 318.302 89.1744 313.839C97.1588 312.134 105.035 310.539 112.772 309.12C140.657 304.01 167.706 300.587 197.192 295.826C243.755 288.202 295.74 276.018 343.36 263.531C373.759 255.608 402.146 248.364 431.082 245.41C437.765 244.713 444.411 244.236 451.062 243.989C486.215 242.669 523.277 247.169 560.185 262.131C600.13 278.378 634.75 304.848 668.459 327.375C701.135 349.214 735.752 369.756 776.396 379.606C821.91 390.636 868.4 386.167 911.187 377.811C954.078 369.455 996.675 355.937 1042.75 346.666C1086.63 337.835 1130.76 334.125 1169.7 330.14C1208.7 326.131 1243.31 321.457 1275.99 313.559" stroke="#E6E6E6" stroke-opacity="0.75" stroke-width="0.490104" stroke-miterlimit="10"/>
<path d="M-799.849 407.062C-786.308 379.646 -747.918 345.262 -707.841 313.206C-681.208 291.86 -655.013 269.927 -625.106 260.414C-563.887 240.94 -498.889 263.282 -438.157 290.806C-405.568 305.575 -375.042 327.491 -347.308 349.113C-319.335 370.861 -292.606 392.156 -261.139 407.313C-255.671 409.934 -250.014 412.362 -244.196 414.543C-216.401 424.992 -185.929 429.606 -156.645 424.696C-86.2891 412.839 -43.1137 357.495 25.1935 329.314C47.5587 320.094 70.1639 315.234 91.3693 312.04C99.4572 310.821 107.406 309.748 115.167 308.89C143.183 305.789 170.009 304.749 199.794 301.681C246.794 296.718 300.323 285.155 348.227 271.064C378.784 262.131 406.757 253.168 435.371 248.353C441.984 247.223 448.566 246.306 455.172 245.621C490.083 241.989 527.824 244.099 565.495 258.854C606.195 274.856 640.384 303.135 673.157 327.359C705 350.893 738.93 373.661 780.21 383.927C826.439 395.426 873.658 388.63 916.224 378.027C958.889 367.427 1001.17 351.439 1047.99 341.801C1092.58 332.619 1137.66 330.789 1176.61 329.549C1215.62 328.286 1249.52 327.124 1281.55 322.852" stroke="#E6E6E6" stroke-opacity="0.75" stroke-width="0.490104" stroke-miterlimit="10"/>
<path d="M-800.785 411.038C-783.758 386.896 -742.594 353.564 -701.696 320.325C-674.468 298.146 -648.835 274.237 -618.624 263.249C-559.718 241.825 -495.636 261.52 -435.501 287.428C-402.14 301.802 -371.294 324.595 -343.916 347.402C-316.312 370.33 -290.359 393.119 -259.075 409.595C-253.641 412.444 -247.993 415.091 -242.163 417.476C-214.298 428.917 -183.221 434.203 -153.554 428.705C-82.2237 415.418 -43.3863 353.639 26.1395 325.359C48.9235 316.102 72.0438 312.164 93.5692 310.238C101.758 309.504 109.785 308.958 117.567 308.657C145.715 307.572 172.319 308.906 202.401 307.535C249.841 305.229 304.913 294.292 353.099 278.594C383.811 268.655 411.373 257.97 439.664 251.291C446.204 249.729 452.725 248.372 459.284 247.252C493.955 241.305 532.374 241.029 570.807 255.577C612.262 271.337 646.016 301.43 677.857 327.343C708.865 352.58 742.113 377.564 784.028 388.249C830.972 400.218 878.918 391.093 921.268 378.246C963.709 365.401 1005.67 346.941 1053.23 336.938C1098.54 327.409 1144.57 327.458 1183.54 328.961C1222.56 330.443 1255.73 332.791 1287.11 332.146" stroke="#E6E6E6" stroke-opacity="0.75" stroke-width="0.490104" stroke-miterlimit="10"/>
<path d="M-801.724 415.013C-781.212 394.149 -737.27 361.866 -695.556 327.441C-667.733 304.429 -642.667 278.601 -612.148 266.081C-555.539 242.86 -492.365 259.715 -432.85 284.05C-398.703 298.012 -367.551 321.699 -340.526 345.69C-313.291 369.793 -288.117 394.076 -257.014 411.875C-251.615 414.95 -245.974 417.815 -240.133 420.407C-212.194 432.84 -180.518 438.797 -150.465 432.709C-78.1631 417.989 -43.659 349.776 27.083 321.403C50.2857 312.105 73.9213 309.09 95.7666 308.436C104.059 308.186 112.161 308.167 119.964 308.424C148.246 309.355 174.627 313.065 205.005 313.385C252.885 313.74 309.498 303.425 357.969 286.122C388.839 275.174 415.987 262.769 443.955 254.229C450.425 252.234 456.882 250.437 463.394 248.88C497.823 240.62 536.922 237.957 576.119 252.298C618.332 267.815 651.648 299.724 682.558 327.324C712.731 354.269 745.297 381.467 787.844 392.57C835.506 405.01 884.179 393.554 926.307 378.462C968.523 363.373 1010.16 342.441 1058.47 332.076C1104.5 322.198 1151.47 324.127 1190.45 328.371C1229.49 332.596 1261.94 338.458 1292.66 341.441" stroke="#E6E6E6" stroke-opacity="0.75" stroke-width="0.490104" stroke-miterlimit="10"/>
<path d="M-802.66 418.989C-778.662 401.402 -731.944 370.167 -689.413 334.56C-660.997 310.715 -636.491 283.024 -605.667 268.913C-551.326 244.038 -489.067 257.871 -430.194 280.669C-395.252 294.201 -363.804 318.801 -337.133 343.977C-310.27 369.257 -285.87 395.033 -254.951 414.155C-249.587 417.455 -243.953 420.542 -238.1 423.339C-210.089 436.762 -177.813 443.391 -147.374 436.715C-74.0979 420.565 -43.9318 345.916 28.0288 317.446C51.6502 308.111 75.7986 306.012 97.9639 306.633C106.358 306.869 114.537 307.377 122.362 308.191C150.78 311.146 176.933 317.224 207.609 319.238C255.927 322.252 314.083 312.559 362.839 293.652C393.866 281.695 420.6 267.568 448.246 257.17C454.643 254.742 461.039 252.505 467.504 250.51C501.693 239.935 541.469 234.885 581.428 249.018C624.397 264.293 657.275 298.021 687.256 327.305C716.591 355.961 748.475 385.367 791.66 396.889C840.036 409.8 889.439 396.014 931.349 378.679C973.338 361.343 1014.66 337.943 1063.71 327.211C1110.45 316.984 1158.37 320.793 1197.37 327.78C1236.42 334.751 1268.15 344.125 1298.22 350.733" stroke="#E6E6E6" stroke-opacity="0.75" stroke-width="0.490104" stroke-miterlimit="10"/>
<path d="M-803.599 422.965C-776.115 408.652 -726.623 378.469 -683.271 341.676C-654.26 316.999 -630.302 287.508 -599.188 271.746C-547.08 245.348 -485.753 255.986 -427.54 277.291C-391.794 290.373 -360.059 315.907 -333.744 342.267C-307.25 368.723 -283.626 395.993 -252.889 416.436C-247.56 419.965 -241.933 423.27 -236.068 426.272C-207.986 440.688 -175.108 447.99 -144.283 440.724C-70.0358 423.143 -44.203 342.057 28.9739 313.493C53.0118 304.121 77.6753 302.938 100.163 304.836C108.658 305.554 116.917 306.593 124.761 307.963C153.315 312.943 179.242 321.386 210.215 325.094C258.973 330.768 318.67 321.697 367.708 301.187C398.89 288.22 425.213 272.374 452.537 260.115C458.863 257.254 465.193 254.577 471.613 252.145C505.562 239.255 546.018 231.819 586.738 245.746C630.461 260.776 662.9 296.332 691.953 327.293C720.447 357.662 751.655 389.274 795.475 401.216C844.569 414.597 894.696 398.482 936.387 378.9C978.151 359.32 1019.15 333.447 1068.95 322.351C1116.4 311.776 1165.28 317.464 1204.29 327.194C1243.35 336.908 1274.36 349.795 1303.78 360.03" stroke="#E6E6E6" stroke-opacity="0.75" stroke-width="0.490104" stroke-miterlimit="10"/>
<path d="M-804.536 426.94C-773.567 415.905 -721.297 386.771 -677.129 348.795C-647.523 323.282 -624.087 292.055 -592.71 274.581C-542.785 246.774 -482.422 254.065 -424.887 273.913C-388.327 286.524 -356.314 313.011 -330.354 340.554C-304.23 368.187 -281.382 396.951 -250.828 418.716C-245.535 422.471 -239.915 425.995 -234.036 429.203C-205.881 444.61 -172.403 452.585 -141.192 444.728C-65.9707 425.717 -44.4759 338.195 29.9195 309.534C54.3761 300.122 79.5549 299.851 102.362 303.032C110.961 304.232 119.296 305.805 127.16 307.727C155.849 314.738 181.552 325.543 212.822 330.944C262.02 339.277 323.257 330.829 372.58 308.715C403.92 294.742 429.828 277.173 456.83 263.053C463.083 259.76 469.352 256.643 475.728 253.773C509.434 238.571 550.57 228.745 592.052 242.467C636.53 257.255 668.527 294.636 696.656 327.274C724.307 359.358 754.84 393.177 799.293 405.535C849.102 419.384 899.959 400.941 941.431 379.116C982.971 357.292 1023.65 328.947 1074.2 317.486C1122.36 306.561 1172.19 314.129 1211.22 326.602C1250.28 339.06 1280.58 355.46 1309.34 369.321" stroke="#E6E6E6" stroke-opacity="0.75" stroke-width="0.490104" stroke-miterlimit="10"/>
<path d="M-805.474 430.916C-771.019 423.158 -715.975 395.073 -670.988 355.911C-640.789 329.566 -617.838 296.664 -586.233 277.413C-538.435 248.299 -479.079 252.105 -422.235 270.534C-384.852 282.654 -352.571 310.115 -326.964 338.844C-301.208 367.653 -279.137 397.91 -248.766 420.998C-243.509 424.978 -237.896 428.724 -232.005 432.137C-203.78 448.536 -169.697 457.182 -138.103 448.736C-61.9098 428.295 -44.7483 334.336 30.8634 305.582C55.7388 296.132 81.4304 296.769 104.56 301.232C113.26 302.912 121.672 305.022 129.558 307.497C158.381 316.542 183.858 329.704 215.426 336.8C265.062 347.793 327.843 339.968 377.45 316.248C408.948 301.265 434.442 281.977 461.122 265.994C467.304 262.268 473.51 258.711 479.838 255.403C513.305 237.886 555.118 225.675 597.362 239.187C642.596 253.733 674.145 292.942 701.354 327.255C728.159 361.059 758.019 397.078 803.109 409.856C853.634 424.176 905.217 403.404 946.471 379.333C987.785 355.264 1028.15 324.449 1079.44 312.621C1128.31 301.347 1179.09 310.795 1218.13 326.011C1257.21 341.213 1286.78 361.127 1314.89 378.615" stroke="#E6E6E6" stroke-opacity="0.75" stroke-width="0.490104" stroke-miterlimit="10"/>
<path d="M-806.41 434.892C-768.469 430.41 -710.649 403.378 -664.844 363.03C-634.05 335.851 -611.543 301.336 -579.751 280.245C-534.019 249.908 -475.719 250.11 -419.579 267.154C-381.365 278.756 -348.823 307.217 -323.571 337.131C-298.185 367.116 -276.891 398.87 -246.703 423.277C-241.478 427.484 -235.877 431.45 -229.972 435.068C-201.674 452.458 -166.991 461.776 -135.011 452.743C-57.847 430.869 -45.0212 330.476 31.8091 301.625C57.1032 292.137 83.31 293.681 106.757 299.43C115.56 301.59 124.046 304.236 131.955 307.264C160.91 318.347 186.166 333.864 218.031 342.65C268.106 356.302 332.428 349.101 382.32 323.776C413.975 307.784 439.055 286.774 465.415 268.932C471.524 264.773 477.669 260.776 483.95 257.031C517.175 237.199 559.668 222.602 602.674 235.908C648.663 250.211 679.761 291.25 706.054 327.237C732.01 362.759 761.202 400.98 806.925 414.176C858.167 428.966 910.477 405.862 951.512 379.549C992.601 353.236 1032.65 319.949 1084.68 307.756C1134.27 296.134 1185.99 307.462 1225.05 325.421C1264.15 343.368 1293 366.792 1320.45 387.908" stroke="#E6E6E6" stroke-opacity="0.75" stroke-width="0.490104" stroke-miterlimit="10"/>
<path d="M-807.349 438.867C-765.923 437.661 -705.328 411.68 -658.704 370.146C-627.314 342.135 -605.198 306.067 -573.275 283.078C-529.544 251.585 -472.355 248.077 -416.928 263.776C-377.876 274.835 -345.08 304.321 -320.184 335.419C-295.167 366.58 -274.649 399.828 -244.645 425.557C-239.455 429.992 -233.861 434.174 -227.944 437.999C-199.573 456.382 -164.29 466.371 -131.925 456.746C-53.7865 433.443 -45.2987 326.613 32.7502 297.668C58.463 288.14 85.1874 290.592 108.952 297.628C117.859 300.265 126.42 303.453 134.35 307.031C163.432 320.153 188.472 338.02 220.633 348.503C271.148 364.815 337.011 358.236 387.187 331.309C418.998 314.31 443.666 291.577 469.703 271.875C475.742 267.283 481.824 262.846 488.058 258.664C521.042 236.52 564.215 219.532 607.983 232.633C654.73 246.692 685.374 289.566 710.752 327.223C735.854 364.467 764.382 404.886 810.741 418.5C862.698 433.76 915.738 408.327 956.551 379.768C997.414 351.211 1037.14 315.451 1089.92 302.895C1140.22 290.926 1192.9 304.133 1231.97 324.832C1271.08 345.523 1299.2 372.461 1326 397.202" stroke="#E6E6E6" stroke-opacity="0.75" stroke-width="0.490104" stroke-miterlimit="10"/>
<path d="M-808.288 442.843C-763.376 444.913 -700.005 419.982 -652.562 377.263C-620.577 348.419 -598.791 310.856 -566.797 285.91C-524.997 253.319 -468.984 246.014 -414.275 260.395C-374.381 270.883 -341.333 301.425 -316.792 333.706C-292.145 366.044 -272.405 400.785 -242.582 427.837C-237.428 432.497 -231.841 436.901 -225.912 440.931C-197.471 460.306 -161.586 470.965 -128.834 460.753C-49.7242 436.019 -45.5696 322.753 33.6955 293.711C59.8271 284.146 87.069 287.498 111.152 295.826C120.162 298.941 128.795 302.67 136.749 306.798C165.958 321.962 190.779 342.18 223.239 354.354C274.192 373.325 341.598 367.368 392.059 338.837C424.027 320.828 448.281 296.377 473.996 274.814C479.962 269.786 485.983 264.912 492.172 260.294C524.914 235.835 568.767 216.462 613.297 229.356C660.799 243.172 690.986 287.879 715.455 327.206C739.7 366.173 767.565 408.791 814.561 422.821C867.233 438.552 921 410.79 961.595 379.987C1002.23 349.186 1041.64 310.955 1095.16 298.033C1146.18 285.715 1199.81 300.799 1238.9 324.244C1278.01 347.68 1305.42 378.131 1331.56 406.499" stroke="#E6E6E6" stroke-opacity="0.75" stroke-width="0.490104" stroke-miterlimit="10"/>
<path d="M-809.224 446.819C-760.826 452.166 -694.681 428.284 -646.419 384.381C-613.842 354.702 -592.314 315.702 -560.318 288.743C-520.377 255.09 -465.611 243.916 -411.621 257.017C-370.88 266.902 -337.588 298.529 -313.402 331.996C-289.126 365.509 -270.16 401.745 -240.521 430.118C-235.402 435.005 -229.822 439.627 -223.882 443.864C-195.367 464.23 -158.882 475.562 -125.745 464.761C-45.6612 438.597 -45.8447 318.895 34.6391 289.759C61.1894 280.156 88.9513 284.412 113.349 294.029C122.465 297.621 131.169 301.891 139.147 306.57C168.48 323.776 193.087 346.344 225.843 360.212C277.236 381.843 346.185 376.507 396.926 346.372C429.052 327.354 452.892 301.183 478.285 277.759C484.181 272.299 490.135 266.987 496.279 261.929C528.782 235.155 573.312 213.397 618.605 226.081C666.862 239.655 696.588 286.195 720.151 327.194C743.534 367.885 770.743 412.698 818.372 427.15C871.762 443.349 926.255 413.258 966.631 380.213C1007.04 347.165 1046.13 306.464 1100.4 293.177C1152.13 280.509 1206.71 297.475 1245.81 323.663C1284.94 349.842 1311.62 383.805 1337.11 415.801" stroke="#E6E6E6" stroke-opacity="0.75" stroke-width="0.490104" stroke-miterlimit="10"/>
<path d="M-810.163 450.795C-758.281 459.419 -689.357 436.586 -640.279 391.498C-607.107 360.986 -585.765 320.596 -553.839 291.575C-515.684 256.89 -462.235 241.787 -408.97 253.636C-367.377 262.889 -333.845 295.631 -310.014 330.283C-286.108 364.973 -267.918 402.703 -238.46 432.398C-233.377 437.51 -227.804 442.354 -221.852 446.796C-193.264 468.154 -156.177 480.156 -122.656 468.766C-41.6008 441.171 -46.1176 315.032 35.5824 285.8C62.5515 276.157 90.8356 281.314 115.544 292.222C124.763 296.292 133.538 301.103 141.541 306.332C170.997 325.583 195.392 350.496 228.445 366.058C280.278 390.347 350.768 385.638 401.794 353.895C434.075 333.868 457.503 305.977 482.574 280.69C488.396 274.797 494.289 269.045 500.387 263.55C532.649 234.464 577.857 210.315 623.912 222.795C672.924 236.127 702.189 284.499 724.846 327.169C747.369 369.582 773.922 416.592 822.186 431.462C876.291 448.132 931.511 415.712 971.668 380.42C1011.86 345.128 1050.63 301.954 1105.64 288.303C1158.08 275.287 1213.61 294.132 1252.73 323.061C1291.86 351.985 1317.83 389.46 1342.67 425.082" stroke="#E6E6E6" stroke-opacity="0.75" stroke-width="0.490104" stroke-miterlimit="10"/>
<path d="M-811.099 454.77C-755.73 466.669 -684.033 444.887 -634.134 398.616C-600.366 367.271 -579.13 325.538 -547.358 294.41C-510.915 258.704 -458.859 239.63 -406.313 250.26C-363.87 258.847 -330.097 292.737 -306.621 328.573C-283.085 364.439 -265.672 403.662 -236.397 434.68C-231.346 440.02 -225.783 445.083 -219.819 449.729C-191.161 472.078 -153.471 484.753 -119.565 472.774C-37.5355 443.749 -46.3902 311.174 36.5283 281.847C63.9161 272.167 92.7224 278.225 117.744 290.425C127.069 294.972 135.912 300.324 143.941 306.104C173.514 327.399 197.7 354.66 231.052 371.915C283.322 398.866 355.355 394.777 406.666 361.433C439.104 340.399 462.119 310.783 486.867 283.638C492.619 277.312 498.449 271.12 504.499 265.187C536.519 233.786 582.409 207.252 629.224 219.525C678.991 232.612 707.701 282.864 729.547 327.159C751.114 371.339 777.102 420.504 826.001 435.79C880.824 452.931 936.771 418.182 976.71 380.645C1016.67 343.109 1055.12 297.466 1110.88 283.447C1164.04 270.083 1220.51 290.808 1259.65 322.48C1298.8 354.147 1324.04 395.137 1348.23 434.386" stroke="#E6E6E6" stroke-opacity="0.75" stroke-width="0.490104" stroke-miterlimit="10"/>
<path d="M-812.037 458.744C-753.183 473.92 -678.709 453.187 -627.994 405.73C-593.634 373.553 -572.416 330.514 -540.881 297.238C-506.076 260.51 -455.49 237.435 -403.662 246.875C-360.364 254.761 -326.354 289.837 -303.232 326.856C-280.064 363.9 -263.427 404.617 -234.336 436.955C-229.321 442.521 -223.764 447.802 -217.786 452.656C-189.055 475.997 -150.766 489.343 -116.474 476.776C-33.4728 446.318 -46.6609 307.309 37.4739 277.888C65.2804 268.17 94.6326 275.086 119.943 288.62C129.384 293.629 138.276 299.55 146.341 305.869C175.996 329.253 200.01 358.817 233.658 377.766C286.368 407.375 359.943 403.909 411.538 368.961C444.134 346.918 466.735 315.582 491.161 286.576C496.84 279.817 502.608 273.186 508.614 266.815C540.394 233.101 586.961 204.177 634.538 216.243C685.063 229.088 713.324 281.161 734.249 327.138C754.968 373.028 780.288 424.402 829.822 440.11C885.36 457.72 942.036 420.64 981.753 380.86C1021.49 341.079 1059.62 292.963 1116.12 278.58C1169.99 264.867 1227.42 287.47 1266.57 321.887C1305.73 356.299 1330.26 400.799 1353.79 443.676" stroke="#E6E6E6" stroke-opacity="0.75" stroke-width="0.490104" stroke-miterlimit="10"/>
<path d="M-812.974 462.72C-750.635 481.173 -673.384 461.492 -621.852 412.849C-586.896 379.839 -565.616 335.527 -534.403 300.072C-501.166 262.317 -452.126 235.221 -401.009 243.499C-356.859 250.649 -322.609 286.943 -299.842 325.148C-277.044 363.369 -261.183 405.58 -232.276 439.239C-227.295 445.031 -221.746 450.534 -215.756 455.591C-186.955 479.923 -148.063 493.944 -113.385 480.784C-29.4125 448.896 -46.9363 303.451 38.4171 273.934C66.6401 264.176 96.5145 272.005 122.14 286.821C131.684 292.312 140.65 298.764 148.738 305.638C178.518 331.05 202.318 362.978 236.262 383.619C289.412 415.888 364.528 413.044 416.407 376.491C449.161 353.439 471.348 320.384 495.451 289.517C501.06 282.325 506.765 275.254 512.723 268.445C544.261 232.417 591.509 201.107 639.85 212.966C691.13 225.569 718.941 279.462 738.949 327.121C758.819 374.724 783.47 428.307 833.64 444.431C889.893 462.513 947.296 423.103 986.797 381.078C1026.31 339.053 1064.12 288.465 1121.37 273.72C1175.95 259.659 1234.33 284.141 1273.49 321.301C1312.66 358.457 1336.47 406.471 1359.35 452.973" stroke="#E6E6E6" stroke-opacity="0.75" stroke-width="0.490104" stroke-miterlimit="10"/>
<path d="M-813.913 466.695C-748.087 488.425 -668.062 469.793 -615.71 419.965C-580.159 386.12 -558.725 340.564 -527.924 302.905C-496.184 264.1 -448.772 232.979 -398.355 240.119C-353.357 246.492 -318.864 284.045 -296.452 323.433C-274.023 362.83 -258.939 406.535 -230.215 441.516C-225.27 447.536 -219.73 453.258 -213.726 458.518C-184.852 483.843 -145.36 498.534 -110.296 484.786C-25.3499 451.467 -47.2117 299.585 39.3603 269.974C68.002 260.179 98.3963 268.92 124.335 285.016C133.983 290.989 143.021 297.976 151.132 305.403C181.04 332.845 204.621 367.133 238.864 389.47C292.452 424.397 369.11 422.176 421.275 384.019C454.184 359.958 475.958 325.183 499.74 292.455C505.275 284.83 510.919 277.319 516.831 270.073C548.128 231.73 596.054 198.035 645.157 209.687C697.192 222.047 724.554 277.761 743.645 327.103C762.665 376.416 786.646 432.208 837.451 448.75C894.421 467.3 952.551 425.562 991.831 381.292C1031.12 337.023 1068.61 283.965 1126.6 268.852C1181.9 254.443 1241.22 280.805 1280.41 320.706C1319.59 360.607 1342.67 412.134 1364.9 462.261" stroke="#E6E6E6" stroke-opacity="0.75" stroke-width="0.490104" stroke-miterlimit="10"/>
<path d="M-814.851 470.671C-745.539 495.675 -662.738 478.095 -609.57 427.084C-573.423 392.405 -551.755 345.619 -521.447 305.739C-491.14 265.86 -445.429 230.716 -395.704 236.743C-349.858 242.299 -315.121 281.151 -293.062 321.725C-271.002 362.298 -256.697 407.497 -228.154 443.8C-199.611 480.104 -150.02 506.111 -107.21 488.797C-21.2916 454.048 -47.4868 295.729 40.3015 266.022C80.1575 252.535 123.495 275.703 153.527 305.172C183.559 334.642 206.927 371.294 241.466 395.323C295.494 432.911 373.693 431.313 426.14 391.549C466.909 360.64 489.881 312.359 520.938 271.703C551.996 231.047 600.601 194.962 650.465 206.407C703.255 218.523 730.167 276.06 748.338 327.084C766.509 378.107 789.822 436.11 841.262 453.069C898.947 472.089 957.805 428.022 996.868 381.509C1035.93 334.995 1073.1 279.464 1131.84 263.987C1187.85 249.228 1248.13 277.472 1287.32 320.115C1326.52 362.759 1348.88 417.801 1370.45 471.555" stroke="#E6E6E6" stroke-opacity="0.75" stroke-width="0.490104" stroke-miterlimit="10"/>
</g>
</g>
<g opacity="0.7">
<mask id="mask1_245_143" style="mask-type:luminance" maskUnits="userSpaceOnUse" x="-754" y="-143" width="1882" height="941">
<path d="M1128 -143H-754V798H1128V-143Z" fill="white"/>
<path d="M1127.51 -142.51V797.51H-753.51V-142.51H1127.51Z" stroke="white" stroke-width="0.980208"/>
</mask>
<g mask="url(#mask1_245_143)">
<path d="M-894.453 269.885C-843.229 176.373 -719.664 151.787 -636.08 217.398C-582.132 259.746 -567.253 327.218 -546.226 389.013C-529.869 437.089 -506.114 488.987 -453.31 504.639C-404.276 519.172 -354.497 488.552 -323.303 452.738C-298.096 423.8 -280.368 389.286 -261.139 356.073C-239.703 319.05 -214.399 280.238 -176.914 257.661C-72.0798 194.525 -14.2954 301.293 3.31068 388.943C15.0097 447.183 31.8724 514.293 85.9658 538.849C141.353 563.992 207.058 528.575 245.16 481.156C283.261 433.737 305.014 374.83 343.353 327.604C381.692 280.377 447.933 245.595 502.935 271.576C599.42 317.151 568.278 491.944 666.342 534.012C728.438 560.649 797.585 511.051 835.345 455.02C873.105 398.988 898.604 331.278 954.045 292.657C1000.51 260.287 1064.38 254.751 1115.72 278.643C1167.07 302.535 1203.97 354.954 1209.13 411.35" stroke="#E6E6E6" stroke-opacity="0.75" stroke-width="0.245052" stroke-miterlimit="10"/>
<path d="M-894.966 270.654C-851.68 195.687 -757.519 167.803 -679.093 199.124C-664.811 204.822 -651.054 212.475 -638.219 222.162C-584.419 262.794 -568.552 327.171 -547.215 385.677C-546.394 387.931 -545.554 390.192 -544.695 392.457C-528.218 435.95 -504.837 481.753 -455.366 494.259C-436.024 499.148 -416.056 496.626 -397.014 490.862C-367.58 482.031 -341.771 464.924 -323.36 445.845C-319.326 441.657 -315.524 437.322 -311.913 432.838C-299.96 418.055 -289.98 401.964 -280.093 385.706C-274.762 376.907 -269.448 368.135 -263.882 359.438C-254.418 344.68 -243.824 329.486 -231.119 314.801C-215.406 296.553 -197.426 278.951 -176.223 265.829C-91.0507 213.117 -37.3338 274.893 -11.6868 344.64C-6.49718 358.739 -2.4391 373.181 0.52505 387.101C12.2287 442.128 28.8868 506.099 82.2862 528.483C137.201 551.503 203.261 516.307 242.167 471.002C257.924 452.648 271.034 432.654 283.547 412.517C301.927 382.951 318.926 353.018 341.148 327.135C366.983 297.035 404.993 272.604 443.879 269.48C461.217 268.045 478.767 270.875 495.444 279.191C510.533 286.731 522.644 297.336 532.788 309.863C557.482 340.3 569.736 381.643 583.164 420.991C598.952 467.462 616.943 511.047 660.989 528.135C682.945 536.68 705.814 535.767 727.927 528.542C767.546 515.561 804.96 482.438 829.875 447.437C844.969 426.284 858.279 403.707 872.067 382.111C893.814 347.969 916.332 315.872 949.613 294.438C982.548 273.148 1024.2 265.549 1064.11 272.219C1079.37 274.78 1094.4 279.417 1108.54 286.174C1159.71 310.604 1197.59 361.882 1204.49 415.876" stroke="#E6E6E6" stroke-opacity="0.75" stroke-width="0.245052" stroke-miterlimit="10"/>
<path d="M-895.478 271.421C-852.249 200.606 -759.052 174.613 -681.083 204.81C-666.869 210.301 -653.164 217.648 -640.359 226.926C-586.708 265.843 -569.852 327.126 -548.207 382.344C-547.372 384.471 -546.523 386.602 -545.654 388.74C-528.994 429.763 -506.111 473.722 -457.426 483.885C-438.086 487.922 -417.697 484.137 -398.023 478.552C-367.354 469.845 -341.375 455.453 -323.418 438.954C-319.483 435.329 -315.822 431.542 -312.366 427.601C-300.985 414.627 -291.714 400.399 -282.327 386.021C-277.26 378.194 -272.132 370.48 -266.627 362.806C-257.261 349.814 -246.376 336.331 -232.84 322.56C-216.076 305.504 -197.179 287.755 -175.533 274.004C-92.356 221.172 -39.6035 279.615 -14.3565 345.301C-9.24685 358.572 -5.22878 372.172 -2.25992 385.268C9.44612 437.08 25.923 497.917 78.6073 518.13C133.072 539.027 199.465 504.05 239.177 460.859C255.254 443.358 268.727 424.468 281.492 405.634C300.248 377.985 317.311 350.348 338.944 326.677C364.095 299.138 400.255 277.086 437.761 275.512C454.487 274.809 471.562 278.194 487.954 286.814C502.796 294.647 514.904 305.349 525.272 317.678C550.578 347.663 563.933 386.418 577.801 423.193C594.061 466.7 612.178 507.231 655.635 522.261C677.286 529.799 699.855 528.222 721.781 520.605C761.11 506.864 798.797 473.915 824.402 439.858C839.952 419.269 853.779 397.586 867.944 377.248C890.25 345.071 912.566 315.436 945.172 296.221C977.42 277.062 1018 271.235 1057.32 278.919C1072.37 281.883 1087.26 286.799 1101.36 293.704C1152.35 318.676 1191.21 368.81 1199.84 420.403" stroke="#E6E6E6" stroke-opacity="0.75" stroke-width="0.245052" stroke-miterlimit="10"/>
<path d="M-895.991 272.19C-852.816 205.528 -760.584 181.429 -683.071 210.499C-668.926 215.785 -655.274 222.823 -642.5 231.69C-589 268.895 -571.156 327.081 -549.198 379.01C-548.351 381.01 -547.49 383.014 -546.612 385.021C-529.768 423.574 -507.316 465.648 -459.487 473.506C-440.115 476.689 -419.333 471.671 -399.033 466.236C-367.114 457.692 -340.983 445.979 -323.48 432.062C-319.645 428.996 -316.121 425.764 -312.821 422.362C-301.995 411.207 -293.406 398.863 -284.565 386.331C-279.74 379.493 -274.819 372.819 -269.375 366.171C-260.111 354.94 -248.955 343.156 -234.565 330.311C-216.773 314.43 -196.937 296.555 -174.847 282.172C-93.6314 229.29 -41.8764 284.327 -17.0316 345.955C-12.002 358.398 -8.02395 371.153 -5.05039 383.426C6.658 432.022 22.9773 489.719 74.9228 507.767C128.969 526.545 195.663 491.785 236.182 450.708C252.581 434.061 266.414 416.274 279.43 398.741C298.563 373.012 315.689 347.668 336.737 326.209C361.206 301.234 395.507 281.8 431.637 281.535C447.749 281.417 464.349 285.506 480.459 294.429C495.056 302.559 507.157 313.357 517.753 325.489C543.67 355.024 558.209 391.154 572.434 425.392C589.264 465.893 607.406 503.413 650.276 516.382C671.62 522.915 693.889 520.676 715.626 512.663C754.663 498.162 792.626 465.387 818.92 432.276C834.928 412.251 849.272 391.465 863.815 372.386C886.681 342.173 908.842 315.091 940.727 298.004C972.338 281.066 1011.79 276.921 1050.53 285.619C1065.36 288.985 1080.12 294.179 1094.17 301.234C1144.98 326.747 1184.82 375.738 1195.19 424.927" stroke="#E6E6E6" stroke-opacity="0.75" stroke-width="0.245052" stroke-miterlimit="10"/>
<path d="M-896.504 272.957C-853.383 210.447 -762.115 188.241 -685.061 216.184C-670.984 221.266 -657.387 227.996 -644.641 236.454C-591.288 271.943 -572.457 327.037 -550.188 375.675C-549.329 377.547 -548.456 379.424 -547.57 381.302C-530.542 417.384 -508.452 457.523 -461.546 463.126C-442.102 465.448 -420.963 459.207 -400.042 453.923C-366.874 445.546 -340.564 436.541 -323.539 425.169C-319.798 422.67 -316.415 419.984 -313.272 417.121C-303.004 407.777 -295.123 397.308 -286.797 386.642C-282.226 380.784 -277.517 375.145 -272.118 369.534C-262.981 360.04 -251.529 349.981 -236.287 338.063C-217.474 323.355 -196.69 305.365 -174.157 290.34C-94.8733 237.472 -44.1464 289.041 -19.7039 346.609C-14.7542 358.224 -10.8162 370.137 -7.84025 381.586C3.87284 426.966 20.0604 481.516 71.239 497.405C124.895 514.06 191.863 479.521 233.187 440.554C249.909 424.764 264.102 408.076 277.372 391.846C296.884 368.034 314.074 344.989 334.533 325.738C358.317 303.326 390.756 285.936 425.519 287.555C441.017 288.277 457.141 292.812 472.968 302.041C487.319 310.466 499.418 321.36 510.237 333.297C536.766 362.381 552.434 395.906 567.073 427.587C584.406 465.102 602.667 499.496 644.924 510.501C665.975 515.982 687.933 513.124 709.482 504.719C748.23 489.458 786.397 456.798 813.45 424.689C829.876 405.196 844.819 385.374 859.698 367.516C883.19 339.321 905.094 314.684 936.296 299.781C967.231 285.004 1005.6 282.6 1043.75 292.311C1058.36 296.078 1072.99 301.554 1086.99 308.758C1137.63 334.809 1178.44 382.659 1190.55 429.446" stroke="#E6E6E6" stroke-opacity="0.75" stroke-width="0.245052" stroke-miterlimit="10"/>
<path d="M-897.017 273.724C-853.95 215.368 -763.649 195.054 -687.052 221.873C-673.043 226.749 -659.497 233.172 -646.782 241.217C-593.578 274.992 -573.76 326.992 -551.181 372.341C-550.31 374.086 -549.426 375.834 -548.529 377.585C-531.319 411.195 -509.419 457.36 -463.607 452.749C-444.1 450.785 -422.595 446.748 -401.051 441.61C-366.634 433.402 -340.169 427.081 -323.598 418.276C-319.956 416.342 -316.709 414.201 -313.724 411.882C-304.011 404.342 -296.835 395.765 -289.032 386.955C-284.715 382.08 -280.206 377.481 -274.863 372.901C-265.832 365.156 -254.109 356.807 -238.009 345.819C-218.177 332.285 -196.443 314.187 -173.468 298.512C-96.0848 245.718 -46.4165 293.76 -22.374 347.266C-17.502 358.049 -13.6038 369.123 -10.6256 379.749C1.0899 421.913 17.1716 473.305 67.5598 487.046C120.856 501.578 188.067 467.26 230.198 430.408C247.241 415.472 261.794 399.886 275.316 384.96C295.204 363.067 312.457 342.316 332.329 325.279C355.431 305.431 385.999 290.368 419.4 293.586C434.279 295.019 449.935 300.133 465.478 309.666C479.581 318.386 491.678 329.375 502.721 341.116C529.864 369.748 546.658 400.665 561.709 429.796C579.548 464.321 597.898 495.664 639.568 504.634C660.314 509.099 681.972 505.589 703.33 496.79C741.789 480.772 780.217 448.27 807.972 417.121C824.846 398.183 840.323 379.276 855.57 362.667C879.636 336.454 901.328 314.298 931.85 301.578C962.107 288.968 999.392 288.3 1036.95 299.025C1051.35 303.194 1065.84 308.95 1079.79 316.302C1130.25 342.895 1172.05 389.601 1185.89 433.986" stroke="#E6E6E6" stroke-opacity="0.75" stroke-width="0.245052" stroke-miterlimit="10"/>
<path d="M-897.53 274.493C-854.517 220.287 -765.18 201.867 -689.039 227.559C-675.101 232.228 -661.607 238.343 -648.92 245.981C-595.866 278.041 -575.058 326.947 -552.169 369.005C-551.284 370.621 -550.393 372.244 -549.484 373.865C-532.09 405.005 -509.85 450.272 -465.665 442.37C-446.269 438.903 -424.226 434.289 -402.058 429.295C-366.387 421.259 -339.773 417.622 -323.654 411.381C-320.113 410.009 -317.001 408.412 -314.173 406.64C-305.01 400.898 -298.548 394.226 -291.265 387.265C-287.202 383.381 -282.89 379.812 -277.608 376.265C-268.681 370.268 -256.695 363.63 -239.731 353.57C-218.885 341.208 -196.193 323.014 -172.779 306.68C-97.2681 254.01 -48.6866 298.472 -25.0464 347.92C-20.2543 357.875 -16.3962 368.106 -13.4132 377.909C-1.69308 416.857 14.3086 465.079 63.8758 476.684C116.845 489.084 184.265 454.994 227.203 420.254C244.567 406.172 259.481 391.69 273.258 378.065C293.522 358.089 310.839 339.634 330.125 324.809C352.542 307.522 381.237 294.788 413.278 299.606C427.537 301.749 442.746 307.407 457.985 317.276C471.861 326.262 483.91 337.402 495.204 348.919C522.896 377.164 540.883 405.403 556.346 431.989C574.688 463.521 593.129 491.815 634.213 498.748C654.652 502.197 676.034 498.08 697.183 488.841C735.387 472.15 774.041 439.721 802.497 409.532C819.823 391.151 835.828 373.16 851.448 357.795C876.083 333.562 897.566 313.891 927.413 303.351C956.988 292.909 993.219 293.899 1030.17 305.718C1044.36 310.256 1058.71 316.323 1072.61 323.825C1122.9 350.959 1165.67 396.522 1181.25 438.505" stroke="#E6E6E6" stroke-opacity="0.75" stroke-width="0.245052" stroke-miterlimit="10"/>
<path d="M-898.043 275.261C-855.084 225.209 -766.714 208.68 -691.027 233.247C-677.157 237.712 -663.715 243.518 -651.061 250.745C-598.155 281.09 -576.362 326.903 -553.159 365.672C-552.263 367.161 -551.359 368.655 -550.442 370.149C-532.864 398.819 -510.115 442.89 -467.723 431.993C-448.478 427.046 -425.854 421.835 -403.067 416.985C-366.145 409.125 -339.385 408.17 -323.715 404.49C-320.276 403.684 -317.295 402.627 -314.627 401.404C-306.005 397.447 -300.27 392.709 -293.5 387.578C-289.691 384.692 -285.574 382.144 -280.354 379.632C-271.522 375.378 -259.282 370.454 -241.453 361.327C-219.596 350.134 -195.941 331.852 -172.089 314.853C-98.4255 262.359 -50.9591 303.192 -27.7187 348.579C-23.0067 357.706 -19.1698 367.088 -16.2009 376.072C-4.40547 411.781 11.4739 456.836 60.1942 466.326C112.867 476.585 180.466 442.733 224.21 410.108C241.897 396.882 257.174 383.499 271.199 371.177C291.842 353.121 309.22 336.96 327.92 324.345C349.655 309.623 376.469 299.211 407.16 305.634C420.797 308.487 435.543 314.719 450.495 324.896C464.126 334.174 476.168 345.417 487.688 356.735C515.986 384.537 535.103 410.148 550.985 434.191C569.83 462.722 588.359 487.978 628.859 492.874C648.992 495.306 670.078 490.543 691.036 480.904C728.958 463.463 767.869 431.184 797.025 401.952C814.803 384.127 831.337 367.05 847.327 352.935C872.531 330.685 893.8 313.496 922.974 305.137C951.862 296.864 987.025 299.578 1023.38 312.421C1037.36 317.359 1051.57 323.708 1065.43 331.358C1115.53 359.031 1159.29 403.453 1176.6 443.034" stroke="#E6E6E6" stroke-opacity="0.75" stroke-width="0.245052" stroke-miterlimit="10"/>
<path d="M-898.555 276.03C-855.651 230.13 -768.246 215.495 -693.015 238.935C-679.213 243.196 -665.825 248.694 -653.199 255.511C-600.442 284.141 -577.66 326.858 -554.147 362.341C-553.239 363.703 -552.324 365.069 -551.397 366.434C-533.636 392.634 -510.261 435.197 -469.782 421.619C-450.715 415.225 -427.481 409.383 -404.074 404.674C-365.898 396.993 -338.999 398.713 -323.771 397.602C-320.433 397.357 -317.577 396.84 -315.077 396.169C-306.977 393.991 -302.002 391.213 -295.732 387.896C-292.187 386.018 -288.251 384.48 -283.097 383.003C-274.357 380.495 -261.868 377.281 -243.173 369.085C-220.306 359.061 -195.685 340.7 -171.395 323.028C-99.5525 270.755 -53.3117 307.96 -30.3842 349.239C-25.7686 357.551 -21.9529 366.076 -18.984 374.239C-7.1721 406.725 8.67197 448.574 56.5171 455.97C108.928 464.072 176.671 430.474 221.22 399.962C239.229 387.59 254.866 375.31 269.145 364.291C290.165 348.153 307.606 334.287 325.718 323.887C346.771 311.729 371.698 303.634 401.043 311.665C414.055 315.225 428.341 322.035 443.007 332.52C456.395 342.09 468.428 353.436 480.176 364.554C509.082 391.914 529.327 414.893 545.625 436.4C564.97 461.924 583.59 484.151 623.509 487.007C643.332 488.425 664.128 483.01 684.891 472.974C722.529 454.782 761.7 422.656 791.553 394.382C809.783 377.114 826.841 360.953 843.207 348.082C868.976 327.815 890.029 313.107 918.539 306.932C946.734 300.825 980.835 305.269 1016.6 319.132C1030.36 324.468 1044.44 331.102 1058.25 338.9C1108.18 367.114 1152.92 410.39 1171.96 447.572" stroke="#E6E6E6" stroke-opacity="0.75" stroke-width="0.245052" stroke-miterlimit="10"/>
<path d="M-899.068 276.797C-856.218 235.049 -769.777 222.306 -695.005 244.622C-681.272 248.675 -667.938 253.867 -655.34 260.273C-602.733 287.188 -578.961 326.811 -555.14 359.002C-554.22 360.237 -553.293 361.475 -552.359 362.712C-534.414 386.442 -510.348 427.176 -471.845 411.237C-452.978 403.429 -429.114 396.927 -405.086 392.356C-365.655 384.856 -338.625 389.246 -323.833 390.705C-320.598 391.022 -317.857 391.046 -315.531 390.923C-307.923 390.524 -303.775 389.726 -297.969 388.202C-294.706 387.345 -290.928 386.809 -285.845 386.36C-277.19 385.597 -264.463 384.092 -244.899 376.83C-221.028 367.97 -195.433 349.543 -170.711 331.189C-100.66 279.18 -55.6007 312.679 -33.0614 349.886C-28.5282 357.372 -24.7453 365.051 -21.7765 372.393C-9.94576 401.653 5.88661 440.272 52.8307 445.603C105.012 451.526 172.867 418.205 218.223 389.806C236.554 378.288 252.551 367.111 267.082 357.393C288.478 343.175 305.983 331.605 323.509 323.414C343.877 313.818 366.915 308.038 394.92 317.683C407.303 321.948 421.133 329.34 435.512 340.131C448.655 349.995 460.681 361.44 472.656 372.36C502.17 399.275 523.535 419.617 540.257 438.592C560.093 461.101 578.807 480.307 618.148 481.121C637.662 481.525 658.164 475.458 678.737 465.025C716.09 446.08 755.525 414.107 786.074 386.79C804.76 370.08 822.336 354.834 839.079 343.21C865.41 324.926 886.242 312.698 914.095 308.706C941.589 304.763 974.637 310.938 1009.81 325.823C1023.35 331.556 1037.3 338.474 1051.05 346.421C1100.81 375.176 1146.52 417.309 1167.3 452.086" stroke="#E6E6E6" stroke-opacity="0.75" stroke-width="0.245052" stroke-miterlimit="10"/>
<path d="M-899.581 277.566C-856.784 239.971 -771.311 229.121 -696.993 250.31C-683.328 254.159 -670.045 259.042 -657.478 265.039C-605.02 290.241 -580.262 326.768 -556.128 355.671C-555.196 356.779 -554.258 357.89 -553.314 358.998C-535.186 380.257 -514.119 407.095 -473.901 400.863C-453.354 397.68 -430.74 384.48 -406.092 380.048C-365.406 372.732 -338.249 379.782 -323.891 383.817C-320.763 384.696 -318.123 385.268 -315.982 385.689C-308.835 387.094 -305.601 388.999 -300.202 388.519C-297.263 388.258 -293.596 389.152 -288.587 389.731C-280.01 390.726 -267.053 390.914 -246.619 384.591C-221.743 376.891 -195.167 358.412 -170.019 339.366C-101.74 287.658 -57.8801 317.417 -35.7313 350.548C-31.2803 357.207 -27.5305 364.037 -24.5616 370.56C-12.7121 396.593 3.13439 431.953 49.1516 435.247C101.132 438.969 169.07 405.947 215.233 379.66C233.884 368.998 250.243 358.922 265.026 350.505C286.799 338.204 304.367 328.93 321.305 322.95C340.991 315.919 362.131 312.444 388.798 323.71C400.552 328.676 413.926 336.651 428.019 347.748C440.918 357.906 452.937 369.45 465.139 380.173C495.263 406.643 517.741 424.343 534.896 440.794C555.217 460.282 574.032 476.474 612.796 475.246C632 474.637 652.21 467.918 672.59 457.088C709.658 437.388 749.359 405.575 780.6 379.213C799.74 363.063 817.836 348.729 834.957 338.35C861.846 322.049 882.454 312.298 909.656 310.492C936.442 308.711 968.443 316.622 1003.02 332.525C1016.36 338.658 1030.16 345.857 1043.87 353.956C1093.45 383.25 1140.14 424.242 1162.65 456.617" stroke="#E6E6E6" stroke-opacity="0.75" stroke-width="0.245052" stroke-miterlimit="10"/>
<path d="M-900.094 278.333C-857.352 244.89 -772.843 235.934 -698.984 255.996C-685.386 259.64 -672.158 264.215 -659.622 269.8C-607.312 293.288 -581.62 326.773 -557.121 352.333C-556.178 353.316 -555.227 354.297 -554.274 355.274C-535.963 374.063 -514.957 398.35 -475.964 390.481C-455.159 386.282 -432.37 372.026 -407.104 367.73C-365.164 360.6 -337.877 370.299 -323.953 376.919C-320.928 378.359 -318.392 379.495 -316.437 380.445C-309.744 383.697 -307.495 386.661 -302.439 388.825C-299.83 389.942 -296.271 391.488 -291.335 393.09C-282.836 395.85 -269.648 397.722 -248.344 392.337C-222.464 385.797 -194.904 367.274 -169.332 347.529C-102.801 296.158 -60.1671 322.143 -38.4041 351.197C-34.0332 357.031 -30.3186 363.011 -27.3497 368.713C-15.4813 391.516 0.656831 429.874 45.4696 424.879C96.9799 419.137 165.271 393.676 212.241 369.504C231.214 359.696 247.933 350.722 262.97 343.61C285.121 333.228 302.76 326.286 319.103 322.48C338.116 318.055 357.348 316.834 382.682 329.73C393.804 335.393 406.724 343.958 420.531 355.361C433.185 365.813 445.199 377.458 457.625 387.978C488.358 414.004 511.938 429.055 529.534 442.989C550.326 459.452 569.254 472.637 607.442 469.365C626.332 467.747 646.253 460.369 666.443 449.143C703.226 428.688 743.193 397.033 775.126 371.626C794.722 356.033 813.333 342.612 830.835 333.482C858.28 319.163 878.659 311.886 905.219 312.27C931.292 312.646 962.251 322.301 996.235 339.22C1009.36 345.753 1023.03 353.234 1036.69 361.482C1086.09 391.316 1133.76 431.165 1158.01 461.138" stroke="#E6E6E6" stroke-opacity="0.75" stroke-width="0.245052" stroke-miterlimit="10"/>
<path d="M-900.607 279.102C-857.918 249.811 -774.374 242.747 -700.971 261.684C-687.442 265.121 -674.268 269.389 -661.76 274.566C-609.6 296.339 -582.92 326.74 -558.109 349.002C-557.153 349.858 -556.191 350.71 -555.229 351.559C-536.734 367.878 -515.785 389.521 -478.02 380.107C-456.949 374.854 -433.995 359.581 -408.109 355.42C-364.912 348.477 -337.491 360.819 -324.007 370.029C-321.085 372.026 -318.659 373.741 -316.886 375.209C-310.673 380.344 -309.32 385.009 -304.669 389.14C-302.373 391.18 -298.941 393.841 -294.078 396.459C-285.661 400.992 -272.237 404.535 -250.063 400.094C-223.181 394.709 -194.629 376.154 -168.64 355.702C-103.834 304.7 -62.4439 326.884 -41.0738 351.855C-36.7852 356.866 -33.1036 361.995 -30.1371 366.879C-18.2499 386.444 -1.73062 421.711 41.7883 414.521C92.7622 406.102 161.472 381.415 209.249 359.358C228.544 350.404 245.623 342.533 260.912 336.722C283.439 328.258 301.137 323.616 316.897 322.019C335.22 320.16 352.558 321.221 376.561 335.76C387.053 342.114 399.519 351.274 413.039 362.983C425.448 373.729 437.458 385.473 450.107 395.796C481.452 421.374 506.118 433.779 524.168 445.193C545.414 458.628 564.471 468.815 602.085 463.491C620.663 460.861 640.295 452.827 660.293 441.206C696.792 419.996 737.027 388.503 769.652 364.048C789.707 349.016 808.828 336.505 826.711 328.622C854.709 316.281 874.858 311.472 900.778 314.056C926.133 316.582 956.054 327.987 989.446 345.925C1002.35 352.858 1015.89 360.621 1029.5 369.017C1078.72 399.392 1127.38 438.098 1153.36 465.669" stroke="#E6E6E6" stroke-opacity="0.75" stroke-width="0.245052" stroke-miterlimit="10"/>
<path d="M-901.12 279.869C-858.485 254.73 -775.908 249.559 -702.961 267.37C-689.5 270.602 -676.378 274.562 -663.901 279.328C-611.889 299.385 -584.221 326.702 -559.101 345.664C-558.134 346.393 -557.161 347.117 -556.189 347.837C-537.508 361.687 -516.622 380.596 -480.081 369.725C-458.744 363.376 -435.626 347.129 -409.12 343.104C-364.667 336.35 -337.108 351.331 -324.068 363.136C-321.247 365.69 -318.944 367.987 -317.34 369.967C-311.642 377.001 -311.075 383.339 -306.906 389.451C-304.888 392.41 -301.623 396.188 -296.826 399.823C-288.498 406.132 -274.835 411.343 -251.787 407.847C-223.901 403.615 -194.351 385.042 -167.954 363.872C-104.852 313.267 -64.7258 331.629 -43.7486 352.512C-39.54 356.702 -35.8936 360.974 -32.9271 365.041C-21.0211 381.363 -4.09485 413.411 38.1043 404.163C88.5278 393.111 157.67 369.153 206.254 349.209C225.871 341.112 243.311 334.341 258.854 329.831C281.757 323.287 299.512 320.941 314.693 321.553C332.327 322.263 347.771 325.594 370.442 341.784C380.304 348.828 392.313 358.586 405.548 370.6C417.713 381.64 429.718 393.483 442.593 403.608C474.55 428.74 500.286 438.5 518.807 447.395C540.49 457.807 559.691 464.994 596.731 457.617C614.999 453.98 634.338 445.285 654.144 433.268C690.356 411.298 730.864 379.97 764.175 356.469C784.689 341.996 804.318 330.394 822.588 323.76C851.135 313.394 871.054 311.049 896.339 315.839C920.972 320.504 949.86 333.673 982.657 352.625C995.351 359.96 1008.75 368.001 1022.31 376.547C1071.36 407.461 1121 445.026 1148.71 470.196" stroke="#E6E6E6" stroke-opacity="0.75" stroke-width="0.245052" stroke-miterlimit="10"/>
<path d="M-901.633 280.638C-859.055 259.652 -777.439 256.375 -704.949 273.059C-691.557 276.086 -678.489 279.737 -666.041 284.094C-614.181 302.437 -585.52 326.67 -560.092 342.333C-559.111 342.937 -558.128 343.53 -557.147 344.123C-538.282 355.502 -517.472 371.598 -482.142 359.351C-460.546 351.865 -437.254 334.687 -410.129 330.794C-364.42 324.232 -336.717 341.846 -324.129 356.245C-321.41 359.358 -319.238 362.23 -317.794 364.731C-312.639 373.654 -312.79 381.704 -309.144 389.766C-307.382 393.659 -304.307 398.543 -299.574 403.192C-291.342 411.277 -277.43 418.154 -253.514 415.604C-224.625 412.524 -194.071 393.942 -167.269 372.045C-105.85 321.868 -67.0033 336.381 -46.426 353.171C-42.2973 356.539 -38.6885 359.95 -35.7197 363.206C-23.7996 376.274 -7.71553 398.266 34.4177 393.805C85.8269 388.364 153.866 356.895 203.254 339.063C223.192 331.819 240.986 326.119 256.788 322.946C280.061 318.271 297.879 318.271 312.481 321.092C329.424 324.367 342.981 329.963 364.314 347.812C373.547 355.537 385.098 365.902 398.048 378.218C409.969 389.554 421.969 401.491 435.067 411.421C467.638 436.106 494.426 443.231 513.436 449.595C535.536 456.993 554.901 461.171 591.37 451.74C609.324 447.096 628.372 437.738 647.99 425.329C683.915 402.601 724.695 371.44 758.696 348.889C779.669 334.979 799.804 324.279 818.459 318.899C847.552 310.508 867.243 310.616 891.895 317.624C915.805 324.421 943.661 339.361 975.865 359.327C988.342 367.064 1001.61 375.385 1015.12 384.08C1063.99 415.535 1114.61 451.957 1144.06 474.724" stroke="#E6E6E6" stroke-opacity="0.75" stroke-width="0.245052" stroke-miterlimit="10"/>
<path d="M-902.146 281.405C-859.622 264.571 -779.004 263.331 -706.94 278.747C-693.62 281.596 -680.599 284.913 -668.182 288.858C-616.47 305.485 -586.816 326.634 -561.082 338.999C-560.09 339.477 -559.095 339.942 -558.104 340.406C-539.056 349.312 -518.345 362.524 -484.2 348.974C-462.357 340.307 -438.882 322.242 -411.136 318.481C-364.171 312.112 -336.322 332.363 -324.186 349.352C-321.565 353.022 -319.53 356.469 -318.243 359.492C-313.644 370.292 -314.491 380.09 -311.374 390.079C-309.864 394.92 -306.987 400.893 -302.314 406.558C-294.184 416.42 -280.018 424.959 -255.232 423.36C-225.338 421.428 -193.772 402.851 -166.575 380.217C-106.822 330.492 -69.2617 341.14 -49.0914 353.827C-45.0404 356.375 -41.474 358.925 -38.5004 361.367C-26.5756 371.167 -10.3951 389.735 30.7431 383.445C82.0393 375.599 150.076 344.631 200.269 328.912C220.529 322.522 238.685 317.923 254.739 316.053C278.393 313.296 296.263 315.592 310.283 320.626C326.535 326.46 338.212 334.318 358.202 353.836C366.809 362.242 377.899 373.214 390.565 385.835C402.238 397.466 414.236 409.501 427.56 419.233C460.745 443.469 488.575 447.976 508.082 451.797C530.586 456.203 550.128 457.358 586.025 445.864C603.666 440.215 622.425 430.191 641.85 417.389C677.488 393.902 718.543 362.91 753.229 341.307C774.66 327.959 795.303 318.161 814.344 314.034C843.983 307.612 863.448 310.169 887.462 319.405C910.651 328.321 937.472 345.047 969.085 366.025C981.348 374.162 994.482 382.765 1007.94 391.608C1056.64 423.604 1108.24 458.882 1139.42 479.246" stroke="#E6E6E6" stroke-opacity="0.75" stroke-width="0.245052" stroke-miterlimit="10"/>
<path d="M-902.658 282.172C-860.189 269.492 -780.533 270.146 -708.927 284.433C-695.676 287.077 -682.709 290.086 -670.321 293.622C-618.756 308.536 -588.105 326.597 -562.073 335.663C-561.068 336.014 -560.064 336.35 -559.061 336.686C-539.83 343.123 -519.248 353.382 -486.261 338.594C-464.192 328.702 -440.51 309.797 -412.148 306.167C-363.926 299.994 -335.927 322.88 -324.247 342.459C-321.725 346.687 -319.826 350.705 -318.697 354.252C-314.66 366.916 -316.196 378.493 -313.611 390.389C-312.352 396.188 -309.673 403.239 -305.062 409.922C-297.033 421.555 -282.612 431.763 -256.956 431.111C-226.058 430.325 -193.474 411.766 -165.886 388.385C-107.777 339.133 -71.5082 345.896 -51.7637 354.481C-47.788 356.21 -44.2733 357.892 -41.2904 359.527C-29.3867 366.053 -13.0863 381.16 27.0591 373.084C78.2425 362.785 146.274 332.367 197.274 318.763C217.856 313.23 236.378 309.764 252.678 309.162C276.714 308.372 294.637 312.91 308.077 320.16C323.639 328.554 333.442 338.665 352.081 359.861C360.065 368.942 370.691 380.528 383.072 393.452C394.501 405.379 406.494 417.509 420.042 427.044C453.84 450.83 482.705 452.74 502.716 453.996C525.617 455.431 545.346 453.542 580.666 439.987C597.994 433.336 616.462 422.644 635.698 409.449C671.047 385.2 712.38 354.382 747.75 333.727C769.642 320.943 790.789 312.042 810.218 309.174C840.403 304.716 859.644 309.717 883.021 321.19C905.492 332.219 931.273 350.738 962.295 372.727C974.345 381.266 987.345 390.147 1000.76 399.141C1049.27 431.676 1101.85 465.81 1134.77 483.774" stroke="#E6E6E6" stroke-opacity="0.75" stroke-width="0.245052" stroke-miterlimit="10"/>
<path d="M-903.171 282.941C-860.756 274.414 -782.064 276.961 -710.915 290.121C-697.732 292.561 -684.819 295.261 -672.459 298.385C-621.045 311.585 -589.395 326.557 -563.061 332.33C-562.042 332.553 -561.028 332.763 -560.017 332.97C-540.601 336.936 -520.184 344.189 -488.317 328.218C-466.048 317.057 -442.135 297.355 -413.152 293.855C-363.675 287.879 -335.525 313.399 -324.301 335.567C-321.878 340.352 -320.118 344.937 -319.144 349.011C-315.672 363.531 -317.897 376.905 -315.841 390.7C-314.834 397.461 -312.357 405.584 -307.803 413.286C-299.877 426.691 -285.2 438.564 -258.673 438.863C-226.771 439.223 -193.158 420.692 -165.192 396.553C-108.708 347.797 -73.7289 350.649 -54.4314 355.135C-50.5262 356.043 -47.0752 356.862 -44.0734 357.687C-32.2238 360.946 -15.7775 372.543 23.3799 362.722C74.4409 349.912 142.478 320.101 194.284 308.609C215.189 303.93 234.07 301.568 250.622 302.269C275.036 303.399 293.016 310.226 305.875 319.692C320.748 330.643 328.685 343.003 345.964 365.883C353.33 375.637 363.488 387.839 375.584 401.067C386.766 413.291 398.757 425.517 412.531 434.854C446.943 458.188 476.846 457.525 497.359 456.194C520.661 454.681 540.575 449.729 575.319 434.108C592.337 426.456 610.51 415.095 629.558 401.507C664.62 376.496 706.228 345.854 742.285 326.143C764.639 313.924 786.289 305.916 806.104 304.307C836.834 301.811 855.859 309.252 878.589 322.969C900.347 336.101 925.081 356.424 955.513 379.424C967.346 388.369 980.212 397.527 993.577 406.669C1041.92 439.745 1095.48 472.736 1130.13 488.298" stroke="#E6E6E6" stroke-opacity="0.75" stroke-width="0.245052" stroke-miterlimit="10"/>
<path d="M-903.684 283.708C-861.322 279.332 -783.593 283.772 -712.905 295.807C-699.79 298.04 -686.929 300.434 -674.602 303.149C-623.336 314.634 -590.686 326.512 -564.053 328.994C-563.023 329.09 -561.997 329.173 -560.976 329.25C-541.377 330.746 -521.165 334.948 -490.378 317.838C-467.942 305.37 -443.763 284.91 -414.161 281.539C-363.427 275.761 -335.124 303.916 -324.362 328.671C-322.037 334.016 -320.417 339.166 -319.598 343.77C-316.688 360.136 -319.607 375.324 -318.076 391.01C-317.321 398.736 -315.043 407.93 -310.548 416.65C-302.728 431.824 -287.79 445.365 -260.397 446.616C-227.488 448.12 -192.838 429.631 -164.505 404.723C-109.63 356.483 -75.9378 355.382 -57.1037 355.791C-53.2644 355.876 -49.8838 355.671 -46.8609 355.85C-35.1148 356.544 -18.4874 363.888 19.6984 352.364C70.6206 336.992 138.678 307.84 191.292 298.463C212.519 294.638 231.76 293.377 248.566 295.381C273.357 298.428 291.398 307.546 303.671 319.229C317.859 332.737 323.936 347.343 339.843 371.91C346.595 382.337 356.278 395.155 368.092 408.685C379.026 421.207 391.017 433.525 405.012 442.667C440.041 465.549 470.988 462.329 491.993 458.395C515.707 453.954 535.795 445.925 569.96 428.234C586.667 419.582 604.546 407.548 623.404 393.57C658.174 367.794 700.065 337.331 736.804 318.565C759.618 306.911 781.772 299.797 801.975 299.449C833.252 298.91 852.069 308.788 874.145 324.757C895.2 339.987 918.878 362.119 948.722 386.129C960.338 395.475 973.073 404.914 986.385 414.206C1034.55 447.821 1089.09 479.671 1125.47 492.831" stroke="#E6E6E6" stroke-opacity="0.75" stroke-width="0.245052" stroke-miterlimit="10"/>
<path d="M-904 284.91C-861.693 284.686 -784.928 291.017 -714.697 301.928C-701.65 303.956 -688.843 306.04 -676.544 308.348C-625.426 318.118 -591.776 326.897 -564.845 326.095C-563.8 326.064 -562.765 326.017 -561.735 325.966C-541.953 324.992 -521.989 326.107 -492.24 307.894C-469.672 294.077 -445.192 272.903 -414.974 269.661C-362.984 264.083 -334.528 294.873 -324.224 322.216C-321.999 328.118 -320.516 333.832 -319.853 338.968C-317.503 357.178 -321.123 374.187 -320.114 391.76C-319.615 400.455 -317.534 410.712 -313.099 420.451C-305.383 437.394 -290.186 452.601 -261.925 454.805C-228.009 457.451 -192.312 439.017 -163.621 413.328C-110.339 365.622 -77.9479 360.517 -59.5819 356.882C-55.8085 356.134 -52.5079 355.271 -49.4544 354.445C-37.7672 351.288 -21.0197 355.631 16.211 342.435C66.9685 324.448 135.073 296.011 188.494 288.744C210.04 285.775 229.644 285.615 246.702 288.921C271.869 293.885 289.974 305.294 301.661 319.195C315.164 335.258 319.392 352.114 333.918 378.367C340.058 389.467 349.264 402.904 360.796 416.734C371.483 429.553 383.472 441.965 397.69 450.912C433.335 473.34 465.338 467.577 486.824 461.027C510.963 453.671 531.213 442.551 564.8 422.787C581.199 413.137 598.782 400.432 617.451 386.06C651.932 359.519 694.103 329.24 731.524 311.413C754.799 300.326 777.459 294.099 798.045 295.014C829.87 296.43 848.485 308.745 869.9 326.968C890.259 344.292 912.873 368.238 942.129 393.256C953.532 403.008 966.132 412.721 979.395 422.164C1027.38 456.32 1082.9 487.027 1121.02 497.785" stroke="#E6E6E6" stroke-opacity="0.75" stroke-width="0.245052" stroke-miterlimit="10"/>
<path d="M-904.709 285.244C-862.456 289.173 -786.654 297.393 -716.884 307.181C-703.902 309.002 -691.15 310.781 -678.881 312.677C-627.914 320.732 -593.262 326.411 -566.034 322.324C-564.978 322.167 -563.931 321.993 -562.891 321.812C-542.926 318.368 -523.256 316.373 -494.497 297.082C-471.84 281.885 -447.019 260.028 -416.18 256.913C-362.933 251.535 -334.273 284.943 -324.479 314.888C-322.341 321.346 -321.007 327.627 -320.501 333.294C-318.711 353.347 -323.035 372.179 -322.543 391.636C-322.299 401.298 -320.417 412.62 -316.039 423.381C-308.428 442.09 -292.968 458.965 -263.841 462.122C-228.916 465.909 -192.163 447.543 -163.126 421.061C-111.418 373.903 -80.3582 364.754 -62.4486 357.099C-58.7434 355.516 -55.5064 353.831 -52.4388 352.168C-40.7986 345.857 -23.9664 346.466 12.3327 331.638C62.8902 310.983 131.077 283.311 185.303 278.159C207.171 276.044 227.135 276.987 244.447 281.596C269.993 288.479 288.187 302.159 299.258 318.295C312.112 336.894 314.462 356.017 327.6 383.958C333.136 395.73 341.857 409.783 353.106 423.917C363.547 437.032 375.535 449.536 389.977 458.29C426.238 480.264 459.315 471.962 481.266 462.795C505.847 452.528 526.248 438.314 559.249 416.479C575.34 405.831 592.624 392.45 611.107 377.688C645.296 350.383 687.752 320.287 725.855 303.401C749.594 292.881 772.757 287.538 793.73 289.721C826.102 293.09 844.525 307.842 865.267 328.321C884.938 347.741 906.478 373.501 935.148 399.526C946.334 409.68 958.8 419.673 972.016 429.264C1019.82 463.961 1076.32 493.525 1116.18 501.881" stroke="#E6E6E6" stroke-opacity="0.75" stroke-width="0.245052" stroke-miterlimit="10"/>
<path d="M-905.222 286.014C-863.023 294.095 -788.167 304.067 -718.871 312.87C-705.956 314.46 -693.26 315.956 -681.02 317.443C-630.201 323.783 -594.554 326.359 -567.022 318.993C-565.954 318.706 -564.896 318.405 -563.846 318.097C-543.697 312.183 -524.372 307.062 -496.556 286.708C-473.852 270.097 -448.645 247.59 -417.187 244.603C-362.684 239.427 -333.875 275.475 -324.538 307.998C-322.501 315.018 -321.304 321.856 -320.953 328.055C-319.721 349.948 -324.753 370.61 -324.778 391.949C-324.793 402.582 -323.103 414.966 -318.784 426.747C-311.28 447.224 -295.558 465.764 -265.564 469.878C-229.629 474.807 -191.806 456.521 -162.437 429.234C-112.287 382.64 -82.6003 369.419 -65.1188 357.758C-61.4866 355.335 -58.2989 352.837 -55.2242 350.333C-43.5958 340.869 -26.7425 337.717 8.65323 321.28C58.9732 297.913 127.28 271.05 182.312 268.01C204.503 266.749 224.827 268.793 242.391 274.705C268.313 283.506 286.57 299.482 297.056 317.829C309.225 338.992 309.743 360.357 321.484 389.983C326.415 402.427 334.651 417.1 345.618 431.535C355.809 444.949 367.8 457.544 382.463 466.1C419.343 487.621 453.501 476.783 475.904 464.994C500.942 451.818 521.482 434.513 553.897 410.602C569.682 398.957 586.667 384.899 604.96 369.749C638.855 341.679 681.595 311.767 720.381 295.821C744.581 285.87 768.252 281.41 789.608 284.859C822.533 290.178 840.763 307.372 860.83 330.104C879.819 351.618 900.279 379.194 928.361 406.227C939.328 416.785 951.664 427.056 964.831 436.795C1012.46 472.031 1069.94 500.454 1111.53 506.405" stroke="#E6E6E6" stroke-opacity="0.75" stroke-width="0.245052" stroke-miterlimit="10"/>
<path d="M-905.735 286.781C-863.59 299.014 -789.698 310.88 -720.862 318.556C-708.015 319.941 -695.372 321.129 -683.163 322.205C-632.492 326.83 -595.852 326.303 -568.015 315.658C-566.933 315.244 -565.865 314.815 -564.806 314.378C-544.473 305.994 -525.538 297.736 -498.616 276.329C-475.912 258.275 -450.275 235.148 -418.198 232.29C-362.439 227.319 -333.485 266.001 -324.599 301.105C-322.661 308.685 -321.6 316.083 -321.409 322.816C-320.732 346.546 -326.474 369.038 -327.018 392.262C-327.288 403.865 -325.816 417.316 -321.534 430.114C-314.171 452.366 -298.148 472.562 -267.29 477.632C-230.344 483.701 -191.439 465.51 -161.752 437.404C-113.143 391.387 -84.8702 374.084 -67.7958 358.414C-64.2411 355.154 -61.0935 351.834 -58.0165 348.496C-46.3787 335.866 -29.5535 328.945 4.96704 310.922C55.0047 284.798 123.477 258.788 179.316 257.864C201.829 257.457 222.512 260.604 240.328 267.817C266.626 278.538 284.95 296.807 294.844 317.368C306.332 341.093 305.021 364.705 315.356 396.012C319.687 409.132 327.434 424.418 338.119 439.154C348.06 452.865 360.051 465.552 374.94 473.915C412.436 494.979 447.689 481.605 470.534 467.196C496.04 451.107 516.709 430.716 548.533 404.726C564.015 392.083 580.697 377.35 598.804 361.809C632.405 332.972 675.429 303.251 714.9 288.239C739.563 278.86 763.74 275.277 785.477 279.996C818.955 287.263 837.002 306.902 856.381 331.888C874.696 355.497 894.066 384.889 921.564 412.929C932.315 423.891 944.52 434.438 957.638 444.328C1005.09 480.104 1063.55 507.384 1106.88 510.934" stroke="#E6E6E6" stroke-opacity="0.75" stroke-width="0.245052" stroke-miterlimit="10"/>
<path d="M-906.248 287.55C-864.157 303.935 -791.232 317.692 -722.85 324.246C-710.071 325.425 -697.48 326.307 -685.301 326.973C-634.781 329.885 -597.151 326.251 -569.005 312.326C-567.912 311.785 -566.832 311.228 -565.764 310.663C-545.248 299.809 -526.75 288.415 -500.675 265.954C-478.018 246.437 -451.903 222.712 -419.205 219.979C-362.19 215.213 -333.087 256.532 -324.656 294.214C-322.819 302.354 -321.892 310.313 -321.859 317.579C-321.739 343.146 -328.194 367.474 -329.248 392.577C-329.777 405.151 -328.495 419.661 -324.275 433.482C-317.013 457.499 -300.731 479.363 -269.01 485.39C-231.052 492.598 -191.05 474.515 -161.061 445.579C-113.978 400.15 -87.1453 378.761 -70.4661 359.075C-66.9938 354.977 -63.8791 350.834 -60.8044 346.661C-49.1501 330.852 -32.3932 320.155 1.28515 300.564C50.9911 271.649 119.677 246.527 176.323 247.715C199.156 248.164 220.202 252.413 238.271 260.929C264.949 273.566 283.333 294.132 292.642 316.904C303.445 343.193 300.316 369.057 309.239 402.039C312.973 415.836 320.225 431.737 330.631 446.774C340.325 460.783 352.316 473.56 367.426 481.73C405.541 502.335 441.894 486.425 465.175 469.4C491.158 450.397 511.949 426.919 543.183 398.854C558.362 385.216 574.74 369.803 592.659 353.874C625.966 324.268 669.278 294.739 709.428 280.664C734.552 271.856 759.239 269.151 781.358 275.138C815.394 284.35 833.256 306.44 851.947 333.675C869.59 359.386 887.867 390.587 914.782 419.633C925.314 431 937.387 441.824 950.455 451.862C997.731 488.18 1057.17 514.317 1102.23 515.465" stroke="#E6E6E6" stroke-opacity="0.75" stroke-width="0.245052" stroke-miterlimit="10"/>
<path d="M-906.761 288.317C-864.724 308.854 -792.764 324.505 -724.837 329.932C-712.127 330.906 -699.59 331.48 -687.44 331.734C-637.068 332.932 -598.48 326.14 -569.994 308.99C-568.888 308.32 -567.796 307.638 -566.719 306.944C-546.019 293.619 -528.006 279.095 -502.733 255.575C-480.17 234.579 -453.528 210.272 -420.212 207.664C-361.941 203.102 -332.692 247.056 -324.713 287.322C-322.974 296.021 -322.184 304.54 -322.308 312.34C-322.741 339.742 -329.912 365.904 -331.481 392.888C-332.269 406.433 -331.179 422.002 -327.018 436.846C-319.855 462.625 -303.314 486.16 -270.73 493.142C-231.76 501.491 -190.644 483.529 -160.367 453.747C-114.794 408.915 -89.4272 383.442 -73.1314 359.729C-69.7415 354.796 -66.6597 349.825 -63.585 344.821C-51.9071 325.823 -35.2609 311.352 -2.38937 290.203C46.9331 258.468 115.885 234.266 173.338 237.566C196.493 238.869 217.899 244.221 236.22 254.038C263.274 268.596 281.722 291.457 290.445 316.438C300.566 345.292 295.618 373.409 303.127 408.064C306.263 422.541 313.022 439.051 323.147 454.391C332.59 468.699 344.585 481.565 359.917 489.543C398.648 509.689 436.11 491.239 459.818 471.6C486.286 449.677 507.197 423.117 537.834 392.977C552.709 378.342 568.781 362.253 586.517 345.934C619.527 315.561 663.126 286.225 703.958 273.082C729.546 264.846 754.744 263.018 777.238 270.275C811.832 281.436 829.513 305.975 847.512 335.458C864.49 363.272 881.666 396.282 908 426.333C918.316 438.105 930.257 449.207 943.276 459.393C990.375 496.249 1050.8 521.242 1097.59 519.991" stroke="#E6E6E6" stroke-opacity="0.75" stroke-width="0.245052" stroke-miterlimit="10"/>
<path d="M-907.274 289.086C-865.294 313.778 -794.295 331.321 -726.828 335.621C-714.185 336.39 -701.701 336.654 -689.583 336.501C-639.362 335.983 -599.783 326.098 -570.986 305.657C-569.869 304.86 -568.768 304.05 -567.679 303.227C-546.796 287.43 -529.312 269.791 -504.794 245.198C-482.372 222.708 -455.154 197.898 -421.224 195.353C-361.689 191.107 -332.299 237.588 -324.776 280.431C-323.136 289.691 -322.482 298.769 -322.765 307.102C-323.753 336.338 -331.584 364.34 -333.72 393.201C-334.739 407.72 -333.868 424.345 -329.768 440.213C-322.706 467.754 -305.904 492.958 -272.456 500.896C-232.473 510.383 -190.227 492.563 -159.682 461.917C-115.603 417.693 -91.7209 388.133 -75.8086 360.383C-72.501 354.617 -69.4522 348.814 -66.3774 342.982C-54.6785 320.788 -38.1733 302.545 -6.07581 279.841C42.8091 245.264 112.081 222 170.341 227.413C193.818 229.57 215.584 236.023 234.159 247.143C261.589 263.618 280.101 288.776 288.236 315.968C297.672 347.383 290.911 377.764 297.004 414.084C299.547 429.243 305.776 446.384 315.652 462.004C324.817 476.627 336.858 489.538 352.398 497.351C391.786 516.966 430.32 496.043 454.452 473.797C481.409 448.948 502.436 419.316 532.477 387.096C547.051 371.466 562.782 354.662 580.367 337.99C613.02 306.782 656.967 277.709 698.484 265.498C724.533 257.835 750.244 256.883 773.117 265.408C808.273 278.514 825.773 305.509 843.073 337.237C859.388 367.156 875.401 402.023 901.213 433.029C911.284 445.224 923.122 456.582 936.091 466.919C983.014 504.316 1044.41 528.166 1092.94 524.513" stroke="#E6E6E6" stroke-opacity="0.75" stroke-width="0.245052" stroke-miterlimit="10"/>
<path d="M-907.786 289.853C-865.86 318.697 -795.829 338.131 -728.815 341.307C-716.241 341.869 -703.81 341.827 -691.721 341.262C-641.648 339.03 -601.084 326.051 -571.974 302.321C-570.845 301.397 -569.732 300.458 -568.633 299.508C-547.567 281.241 -530.655 260.499 -506.85 234.819C-484.612 210.83 -456.779 185.449 -422.228 183.038C-361.439 178.982 -331.901 228.112 -324.83 273.536C-323.291 283.355 -322.785 292.994 -323.211 301.86C-324.802 332.93 -333.311 362.771 -335.948 393.511C-337.232 409.002 -336.545 426.684 -332.508 443.577C-325.545 472.88 -308.47 499.698 -274.173 508.65C-233.16 519.208 -189.78 501.611 -158.988 470.087C-116.389 426.477 -94.0048 392.831 -78.4759 361.04C-75.253 354.441 -72.2325 347.802 -69.1601 341.145C-57.44 315.749 -41.1088 293.737 -9.75231 269.483C38.6433 232.047 108.289 209.739 167.351 217.267C191.151 220.28 213.276 227.834 232.103 240.258C259.912 258.652 278.485 286.103 286.035 315.509C294.788 349.489 286.216 382.132 290.885 420.116C292.833 435.957 298.571 453.702 308.162 469.626C317.08 484.546 329.118 497.551 344.882 505.166C384.882 524.329 424.536 500.849 449.089 476.002C476.54 448.221 497.682 415.519 527.121 381.224C541.396 364.597 556.821 347.122 574.216 330.055C606.577 298.087 650.806 269.203 693.005 257.92C719.518 250.832 745.741 250.752 768.989 260.55C804.707 275.602 822.028 305.057 838.63 339.025C854.283 371.052 869.196 407.713 894.419 439.733C904.276 452.331 915.978 463.969 928.9 474.454C975.646 512.393 1038.03 535.099 1088.29 529.041" stroke="#E6E6E6" stroke-opacity="0.75" stroke-width="0.245052" stroke-miterlimit="10"/>
<path d="M-908.3 290.62C-866.427 323.616 -797.36 344.944 -730.806 346.993C-718.3 347.35 -705.923 347 -693.862 346.026C-643.937 342.078 -602.385 326.006 -572.967 298.988C-571.826 297.936 -570.702 296.87 -569.594 295.788C-548.344 275.051 -532.041 251.227 -508.913 224.439C-486.901 198.948 -458.412 173 -423.24 170.722C-361.197 166.857 -331.509 218.636 -324.891 266.641C-323.452 277.02 -323.08 287.216 -323.666 296.619C-325.797 329.521 -335.047 361.202 -338.185 393.822C-339.733 410.284 -339.232 429.024 -335.256 446.941C-328.394 478.006 -311.059 506.504 -275.898 516.401C-233.873 528.112 -189.319 510.673 -158.301 478.255C-117.166 435.263 -96.3601 397.503 -81.1488 361.694C-78.0223 354.257 -75.0064 346.793 -71.9505 339.302C-60.1574 310.722 -44.0852 284.929 -13.4368 259.118C34.4177 218.817 104.487 197.47 164.356 207.113C188.476 210.981 210.963 219.638 230.045 233.362C258.23 253.674 276.866 283.421 283.83 315.039C291.901 351.58 281.517 386.494 284.766 426.136C286.121 442.662 291.362 461.009 300.671 477.239C309.343 492.453 321.376 505.556 337.368 512.973C377.979 531.688 418.755 505.645 443.729 478.196C471.674 447.482 493.002 411.769 521.771 375.343C535.782 357.746 550.867 339.571 568.073 322.113C600.145 289.387 644.673 260.771 687.535 250.338C714.521 243.876 741.269 244.574 764.871 255.685C801.187 272.614 818.294 304.598 834.195 340.806C849.187 374.945 863.001 413.397 887.637 446.431C897.277 459.428 908.847 471.348 921.72 481.984C968.29 520.461 1031.65 542.027 1083.65 533.567" stroke="#E6E6E6" stroke-opacity="0.75" stroke-width="0.245052" stroke-miterlimit="10"/>
<path d="M-908.812 291.389C-866.994 328.537 -798.892 351.759 -732.794 352.681C-720.356 352.834 -708.031 352.175 -696 350.79C-646.226 345.127 -603.686 325.961 -573.955 295.652C-572.802 294.473 -571.666 293.278 -570.549 292.069C-549.115 268.862 -533.459 241.977 -510.969 214.062C-489.22 187.068 -460.038 160.555 -424.247 158.412C-360.95 154.739 -331.114 209.167 -324.948 259.75C-323.609 270.692 -323.367 281.445 -324.115 291.382C-326.79 326.119 -336.778 359.635 -340.418 394.137C-342.232 411.571 -341.914 431.37 -337.999 450.31C-331.236 483.137 -313.642 513.317 -277.62 524.157C-234.583 537.021 -188.834 519.756 -157.612 486.428C-117.923 444.059 -98.6302 402.222 -83.8212 362.352C-80.7747 354.088 -77.7988 345.781 -74.7382 337.468C-62.9427 305.674 -47.0917 276.136 -17.1208 248.762C30.1409 205.593 100.685 185.211 161.361 196.967C185.804 201.688 208.651 211.446 227.984 226.474C256.546 248.705 275.246 280.746 281.621 314.575C289.008 353.681 276.815 390.867 278.643 432.163C279.405 449.376 284.15 468.325 293.176 484.859C301.601 500.369 313.631 513.566 329.847 520.788C371.07 539.051 412.97 510.445 438.361 480.401C466.803 446.748 488.231 407.953 516.41 369.469C530.115 350.865 544.901 332.026 561.916 314.175C593.699 280.69 638.5 252.248 682.054 242.758C709.496 236.861 736.761 238.456 760.743 250.823C797.618 269.716 814.551 304.147 829.751 342.589C844.085 378.841 856.795 419.083 880.845 453.133C890.269 466.533 901.707 478.73 914.528 489.517C960.919 528.535 1025.26 548.957 1078.99 538.096" stroke="#E6E6E6" stroke-opacity="0.75" stroke-width="0.245052" stroke-miterlimit="10"/>
<path d="M-909.325 292.156C-867.561 333.457 -800.426 358.572 -734.784 358.367C-722.414 358.313 -710.144 357.349 -698.144 355.554C-648.518 348.176 -604.989 325.915 -574.948 292.318C-573.781 291.013 -572.635 289.691 -571.509 288.352C-549.891 262.675 -534.915 232.756 -513.032 203.686C-491.582 175.195 -461.67 148.108 -425.258 146.099C-360.708 142.617 -330.721 199.693 -325.011 252.858C-323.771 264.359 -323.663 275.672 -324.571 286.141C-327.787 322.713 -338.515 358.066 -342.655 394.445C-344.732 412.851 -344.6 433.708 -340.747 453.669C-334.085 488.258 -316.229 520.118 -279.345 531.906C-235.294 545.923 -188.324 528.853 -156.925 494.594C-118.671 452.853 -100.903 406.932 -86.496 363.004C-83.5271 353.912 -80.5935 344.763 -77.5282 335.626C-65.7281 300.616 -50.1263 267.347 -20.8047 238.399C25.8218 192.37 96.8837 172.948 158.366 186.816C183.131 192.394 206.339 203.253 225.923 219.584C254.864 243.732 273.625 278.072 279.414 314.112C286.119 355.78 272.117 395.245 272.519 438.19C272.688 456.092 276.939 475.639 285.681 492.479C293.859 508.283 305.887 521.577 322.328 528.604C364.163 546.414 407.233 515.277 432.995 482.605C461.982 446.052 483.461 404.14 511.053 363.597C524.453 343.989 538.94 324.487 555.767 306.241C587.258 271.995 632.334 243.728 676.577 235.183C704.478 229.85 732.259 232.339 756.616 245.967C794.052 266.824 810.87 303.683 825.309 344.379C839.041 382.73 850.594 424.776 874.056 459.84C883.263 473.642 894.567 486.12 907.341 497.054C953.556 536.614 1018.88 555.893 1074.35 542.629" stroke="#E6E6E6" stroke-opacity="0.75" stroke-width="0.245052" stroke-miterlimit="10"/>
<path d="M-909.838 292.925C-868.128 338.378 -801.957 365.385 -736.772 364.056C-724.47 363.797 -712.251 362.524 -700.282 360.317C-650.804 351.227 -606.29 325.87 -575.936 288.983C-574.757 287.55 -573.6 286.098 -572.463 284.633C-550.663 256.485 -536.397 223.557 -515.088 193.306C-493.97 163.326 -463.296 135.658 -426.263 133.783C-360.459 130.492 -330.323 190.22 -325.065 245.965C-323.927 258.026 -323.948 269.899 -325.018 280.902C-328.775 319.306 -340.244 356.497 -344.885 394.758C-347.226 414.136 -347.282 436.051 -343.488 457.036C-336.924 493.389 -318.812 526.929 -281.062 539.66C-236 554.829 -187.78 537.971 -156.231 502.764C-119.393 461.654 -103.17 411.649 -89.1612 363.658C-86.2724 353.737 -83.3788 343.746 -80.3088 333.786C-68.5063 295.56 -53.1798 258.572 -24.4793 228.036C21.4698 179.151 93.0916 160.682 155.381 176.662C180.468 183.094 204.036 195.057 223.874 212.689C253.191 238.757 272.016 275.39 277.217 313.641C283.237 357.873 267.471 399.618 266.407 444.21C266 462.802 269.738 482.946 278.198 500.089C286.128 516.189 298.154 529.577 314.82 536.407C357.268 553.768 401.436 520.04 427.641 484.795C457.101 445.278 478.702 400.31 505.708 357.711C518.802 337.098 532.99 316.93 549.63 298.291C580.831 263.286 626.18 235.193 671.115 227.592C699.472 222.823 727.77 226.208 752.507 241.093C790.502 263.914 807.118 303.236 820.882 346.153C833.929 386.632 844.405 430.452 867.278 466.53C876.27 480.732 887.441 493.492 900.166 504.575C946.205 544.673 1012.51 562.811 1069.71 547.146" stroke="#E6E6E6" stroke-opacity="0.75" stroke-width="0.245052" stroke-miterlimit="10"/>
<path d="M-910.351 293.692C-868.695 343.299 -803.491 372.197 -738.762 369.744C-674.033 367.29 -611.202 333.534 -573.423 280.916C-551.439 250.298 -537.912 214.389 -517.149 182.929C-496.386 151.469 -464.926 123.214 -427.274 121.473C-345.704 117.702 -318.546 210.811 -325.475 275.665C-329.773 315.904 -341.982 354.932 -347.122 395.073C-354.243 450.66 -343.699 525.842 -282.788 547.419C-236.715 563.738 -187.216 547.115 -155.546 510.939C-120.111 470.459 -105.445 416.37 -91.8383 364.319C-78.2315 312.27 -63.5824 258.179 -28.1656 217.681C35.2837 145.127 151.829 139.848 221.811 205.803C251.504 233.788 270.393 272.717 275.008 313.18C280.346 359.976 262.723 404.001 260.284 450.239C258.31 487.644 272.437 530.532 307.301 544.224C350.361 561.134 395.63 524.818 422.275 487.002C466.695 423.955 493.045 348.708 543.475 290.356C593.906 232.005 683.501 194.532 748.378 236.237C823.334 284.421 814.594 396.856 860.487 473.237C901.008 540.679 989.832 574.738 1065.06 551.679" stroke="#E6E6E6" stroke-opacity="0.75" stroke-width="0.245052" stroke-miterlimit="10"/>
</g>
</g>
</g>
<defs>
<clipPath id="clip0_245_143">
<rect width="375" height="936" fill="white"/>
</clipPath>
</defs>
</svg>
