<svg width="12" height="12" viewBox="0 0 12 12" fill="none" xmlns="http://www.w3.org/2000/svg">
<path d="M1.5 6C1.5 6.59095 1.6164 7.17611 1.84254 7.72208C2.06869 8.26804 2.40016 8.76412 2.81802 9.18198C3.23588 9.59984 3.73196 9.93131 4.27792 10.1575C4.82389 10.3836 5.40905 10.5 6 10.5C6.59095 10.5 7.17611 10.3836 7.72208 10.1575C8.26804 9.93131 8.76412 9.59984 9.18198 9.18198C9.59984 8.76412 9.93131 8.26804 10.1575 7.72208C10.3836 7.17611 10.5 6.59095 10.5 6C10.5 5.40905 10.3836 4.82389 10.1575 4.27792C9.93131 3.73196 9.59984 3.23588 9.18198 2.81802C8.76412 2.40016 8.26804 2.06869 7.72208 1.84254C7.17611 1.6164 6.59095 1.5 6 1.5C5.40905 1.5 4.82389 1.6164 4.27792 1.84254C3.73196 2.06869 3.23588 2.40016 2.81802 2.81802C2.40016 3.23588 2.06869 3.73196 1.84254 4.27792C1.6164 4.82389 1.5 5.40905 1.5 6Z" stroke="#444444" stroke-opacity="0.6" stroke-linecap="round" stroke-linejoin="round"/>
<path d="M7 4.87502C6.70855 4.61889 6.32958 4.48495 5.94191 4.50106C5.55424 4.51717 5.1877 4.68209 4.9185 4.96152C4.6497 5.24042 4.49951 5.61267 4.49951 6.00002C4.49951 6.38737 4.6497 6.75962 4.9185 7.03852C5.1877 7.31795 5.55424 7.48287 5.94191 7.49898C6.32958 7.51509 6.70855 7.38115 7 7.12502" stroke="#444444" stroke-opacity="0.6" stroke-linecap="round" stroke-linejoin="round"/>
</svg>
