<svg viewBox="0 0 177 50" xmlns="http://www.w3.org/2000/svg" xmlns:xlink="http://www.w3.org/1999/xlink" width="177.000000" height="50.000000" fill="none">
	<defs>
		<clipPath id="clipPath_0">
			<rect width="120.500000" height="29.000000" x="56.000000" y="10.500000" fill="rgb(255,255,255)" />
		</clipPath>
		<clipPath id="clipPath_1">
			<rect width="120.149704" height="28.738510" x="56.595703" y="10.695312" fill="rgb(255,255,255)" />
		</clipPath>
	</defs>
	<rect id="NEW_logo" width="177.000000" height="50.000000" x="0.000000" y="0.000000" fill="rgb(255,255,255)" fill-opacity="0" />
	<path id="bg" d="M49.75 25C49.75 38.8071 38.5571 50 24.75 50C10.9429 50 -0.25 38.8071 -0.25 25C-0.25 11.1929 10.9429 0 24.75 0C38.5571 0 49.75 11.1929 49.75 25Z" fill="rgb(55,125,255)" fill-rule="nonzero" />
	<path id="chirp" d="M45.7112 23.847C45.7947 21.806 45.8781 19.8125 45.9616 18.081C45.9756 17.7978 45.9895 17.5219 46.0035 17.2537C46.0144 17.0429 46.0253 16.8368 46.0363 16.6359C46.1129 15.2246 46.1884 14.066 46.2638 13.2656C46.2749 13.1478 46.286 13.0378 46.2971 12.9358C46.3186 12.7382 46.3401 12.5711 46.3616 12.4349L46.3629 12.4269C46.1343 12.0348 45.8953 11.6494 45.6463 11.2712C45.5601 11.4353 45.5125 11.5951 45.4883 11.6833C45.4574 11.7962 45.4335 11.911 45.4145 12.0155C45.3764 12.225 45.3436 12.4744 45.3139 12.7473C45.1965 13.8256 45.0836 15.7041 44.9702 17.9946L44.9701 17.9968C44.8697 20.0814 44.7599 22.542 44.6599 25.0007L44.6607 25.0007C44.6539 25.1728 44.6528 25.3617 44.6435 25.5333L44.6399 25.5989L44.6399 25.5995L44.6338 25.7132C44.6276 25.8273 44.6218 25.9414 44.6171 26.0553L44.6128 26.1647C44.5157 28.54 44.4208 30.8447 44.3242 32.7565C44.312 32.9985 44.2999 33.2342 44.2876 33.463C44.2136 34.8388 44.1397 35.959 44.0659 36.7428C44.0576 36.8307 44.0493 36.9145 44.041 36.9938C44.0123 37.2679 43.984 37.4899 43.9555 37.6549C43.9333 37.7841 43.9111 37.8772 43.8896 37.9356C43.8788 37.9651 43.8689 37.9835 43.8608 37.9933C43.8583 37.9962 43.8561 37.9973 43.8549 37.9981L43.8545 37.9978C43.8545 37.9978 43.8527 37.9964 43.8515 37.9952C43.848 37.9914 43.8433 37.9852 43.8383 37.9762C43.8285 37.9581 43.818 37.9311 43.8071 37.8946C43.7853 37.8217 43.763 37.7149 43.7407 37.5738C43.7193 37.4382 43.6982 37.2716 43.6767 37.0743C43.6656 36.9725 43.6541 36.8624 43.643 36.7447C43.5677 35.9449 43.4926 34.7868 43.416 33.3756L43.4094 33.254C43.4005 33.0918 43.3915 32.9264 43.3828 32.7579C43.3704 32.5207 43.3584 32.2771 43.3461 32.0281L43.3457 32.0202L43.3455 32.016L43.3413 31.9308C43.2578 30.1993 43.1742 28.2056 43.0908 26.1647C43.0833 25.9806 43.0735 25.7962 43.0637 25.6117L43.0625 25.5885L43.0615 25.571C43.0516 25.3844 43.0417 25.1975 43.0341 25.0108L42.9887 23.8951C42.878 21.1838 42.7698 18.5421 42.6582 16.4645C42.5492 14.4365 42.4348 12.831 42.3027 12.066C42.2763 11.9132 42.2171 11.5802 42.0747 11.297C42.0464 11.2407 41.9697 11.0932 41.8369 10.9537C41.704 10.8141 41.5136 10.6811 41.2592 10.6559C40.9832 10.6285 40.7672 10.7382 40.6118 10.8712C40.4568 11.0039 40.3603 11.1606 40.3208 11.2311C40.2196 11.411 40.1659 11.5919 40.1396 11.6876C40.1084 11.8015 40.0845 11.9171 40.0654 12.0221C40.0272 12.2325 39.9941 12.4828 39.9643 12.756C39.8469 13.8352 39.7339 15.7144 39.6206 18.0045L39.6206 18.0069C39.5201 20.0916 39.4198 22.5522 39.3198 25.0108C39.3119 25.1855 39.3079 25.3602 39.3042 25.5343C39.3004 25.7084 39.2964 25.882 39.2885 26.0553L39.2837 26.1647C39.1754 28.54 39.0696 30.8447 38.9619 32.7565C38.9482 32.9985 38.9346 33.2342 38.9209 33.463C38.8384 34.8389 38.7562 35.9591 38.6738 36.7428C38.6645 36.8307 38.6552 36.9145 38.646 36.9938C38.614 37.2678 38.582 37.4895 38.5503 37.6544C38.5254 37.7836 38.5009 37.8764 38.477 37.9347C38.465 37.9641 38.4539 37.9825 38.4448 37.9923C38.4406 37.9968 38.4378 37.9986 38.4365 37.9991L38.435 37.9991C38.4326 37.9984 38.4249 37.9938 38.4135 37.9752C38.4026 37.9572 38.3906 37.9301 38.3784 37.8937C38.3541 37.8209 38.3295 37.7143 38.3046 37.5733C38.2808 37.4378 38.2568 37.2711 38.2329 37.0738C38.2205 36.972 38.2081 36.8619 38.1958 36.7442C38.1117 35.9445 38.0278 34.7863 37.9423 33.3751C37.9302 33.1743 37.9179 32.9682 37.9057 32.7574C37.8902 32.4893 37.8745 32.2133 37.8588 31.9303C37.7658 30.1989 37.6726 28.2055 37.5796 26.1647C37.5714 25.9869 37.5672 25.8087 37.563 25.63L37.562 25.589C37.5574 25.3967 37.5527 25.2038 37.5439 25.0108L37.5044 24.151C37.3808 21.5213 37.2591 18.9414 37.1377 16.8683L37.1323 16.7755C37.1289 16.7194 37.1254 16.6635 37.122 16.608L37.1219 16.6058C37.0052 14.6631 36.9088 13.0578 36.768 12.2389C36.7282 12.0027 36.6598 11.6939 36.521 11.4166C36.4525 11.2799 36.3147 11.0441 36.0698 10.8668C35.7778 10.6555 35.391 10.5753 35.0092 10.7394C34.6889 10.8771 34.5001 11.1326 34.4101 11.2774C34.3115 11.4363 34.2477 11.5976 34.2055 11.7228C34.1209 11.974 34.0661 12.2571 34.0283 12.5367C33.9304 13.2439 33.8749 14.4046 33.8096 15.7709L33.8095 15.7716L33.8095 15.7731L33.7163 17.6124C33.6692 18.4369 33.6105 19.3387 33.5483 20.2882L33.547 20.3085L33.5469 20.309C33.4493 21.7985 33.3441 23.4042 33.2661 25.0108C33.266 25.0132 33.2661 25.0154 33.2666 25.0177C33.2381 25.4003 33.2106 25.7836 33.1836 26.1656C33.1469 26.6825 33.1113 27.1973 33.0761 27.7062L33.073 27.7518C32.9496 29.5368 32.8314 31.2461 32.6919 32.7066C32.5699 34.0015 32.4477 35.1125 32.3252 35.9767C32.2808 36.2896 32.2364 36.57 32.1919 36.815C32.1717 36.9257 32.1519 37.0297 32.1318 37.1256C32.11 37.2295 32.0877 37.3244 32.0659 37.4103C32.0141 37.6169 31.9629 37.7692 31.9121 37.8678C31.8867 37.9171 31.8622 37.9515 31.8393 37.9728C31.8167 37.9937 31.7974 38 31.7812 37.9986C31.7644 37.9972 31.744 37.987 31.7202 37.961C31.6964 37.9352 31.6712 37.8962 31.6455 37.8424C31.594 37.7349 31.5418 37.5743 31.4892 37.3595C31.4754 37.3031 31.4615 37.2429 31.4477 37.1793L31.4472 37.1754L31.3759 36.817C31.331 36.572 31.2858 36.2915 31.2407 35.9786C31.1115 35.0833 30.9822 33.9227 30.854 32.568C30.6741 30.6955 30.4938 28.4595 30.3139 26.1651C30.2838 25.7813 30.2537 25.3956 30.2236 25.0099L30.2226 25.0069L30.2222 25.0023C30.0053 22.2767 29.7868 19.5314 29.5644 17.2955C29.3451 15.0921 29.1146 13.2685 28.8588 12.2745C28.7939 12.0223 28.707 11.7396 28.582 11.4923C28.5096 11.3491 28.1789 10.7058 27.4765 10.6549C27.0977 10.6274 26.8106 10.7816 26.6084 10.9615C26.4065 11.1412 26.2884 11.3474 26.2451 11.4264C26.1076 11.6768 26.0156 11.9635 25.9492 12.2086C25.7188 13.0593 25.5099 14.5478 25.3125 16.3692L25.2285 17.17C25.0017 19.4066 24.7721 22.1672 24.5473 24.8932L24.5376 25.0099C24.5371 25.0155 24.5391 25.0207 24.542 25.0255L24.5312 25.1588L24.5307 25.1642L24.4702 25.9062L24.4511 26.1402C24.2679 28.3858 24.0847 30.5889 23.8989 32.4454C23.7454 33.9963 23.5904 35.2999 23.435 36.2516C23.4006 36.4623 23.3659 36.6557 23.3315 36.8307C23.3086 36.9471 23.286 37.0556 23.2631 37.1554C23.2628 37.1569 23.2621 37.1581 23.2617 37.1598C23.2493 37.2137 23.237 37.2652 23.2246 37.3141C23.1682 37.5361 23.1124 37.7041 23.0571 37.8185C23.0294 37.8756 23.002 37.918 22.976 37.9474C22.95 37.9768 22.9269 37.9909 22.9067 37.9947C22.8875 37.9984 22.8665 37.9939 22.8427 37.9762C22.8184 37.958 22.7922 37.9267 22.7646 37.8805C22.7095 37.7879 22.6528 37.6417 22.5957 37.44C22.5631 37.3235 22.5308 37.1887 22.498 37.0372C22.484 36.9723 22.4696 36.9042 22.4555 36.8331C22.4208 36.6576 22.3859 36.4634 22.351 36.2521C22.2053 35.3688 22.0588 34.1827 21.9121 32.774C21.7121 30.8606 21.5099 28.5441 21.3071 26.1402L21.3011 26.0697L21.301 26.0683L21.3008 26.0652C21.2731 25.7378 21.2453 25.4083 21.2177 25.0787L21.2104 25.0094L21.2099 25.0065C21.1985 24.8979 21.1872 24.7891 21.1757 24.6803L20.9721 22.7555C20.7677 20.8377 20.5608 18.9652 20.3515 17.3663C20.0583 15.1327 19.746 13.24 19.3896 12.1886C19.2971 11.9158 19.1747 11.6158 19.0048 11.3585C18.8517 11.1265 18.5116 10.7077 17.9545 10.6568C17.3615 10.6028 16.9609 10.9985 16.7719 11.2482C16.5777 11.5049 16.4438 11.8097 16.3471 12.0729L16.3457 12.0773C15.9781 13.0875 15.651 14.9469 15.3452 17.1524C15.1885 18.2831 14.9542 20.2474 14.7592 21.9288C14.6617 22.7695 14.574 23.5398 14.5107 24.0997C14.485 24.3268 14.4634 24.5193 14.4468 24.6679L14.436 24.7643C14.4272 24.843 14.4201 24.9044 14.4155 24.9459C14.4132 24.9664 14.4113 24.9822 14.4101 24.9928L14.4087 25.005L14.4087 25.0079L14.4082 25.0089C14.3673 25.3731 14.3265 25.7376 14.2856 26.1002C14.0234 28.423 13.7592 30.6874 13.4951 32.5787C13.1798 34.8341 12.8584 36.5467 12.538 37.3912C12.458 37.6021 12.3786 37.7565 12.3003 37.8565C12.2215 37.9571 12.148 37.9973 12.08 37.9928C12.0111 37.988 11.936 37.9367 11.8554 37.8248C11.7754 37.7136 11.6938 37.5479 11.6113 37.3263C11.2844 36.4391 10.9537 34.6907 10.6191 32.4024C10.3481 30.5497 10.0748 28.3532 9.79781 26.0997L9.66891 25.0089C9.66795 24.9999 9.6666 24.991 9.66549 24.982L9.63326 24.7223C9.29136 21.9459 8.9423 19.1569 8.58492 16.9112C8.40622 15.7897 8.22404 14.7878 8.03707 13.9562C7.85567 13.1493 7.65066 12.4115 7.40328 11.8741L7.40279 11.8732C7.27986 11.6066 7.10208 11.2901 6.84127 11.045C6.55131 10.7725 6.11504 10.5583 5.60641 10.693C5.159 10.8115 4.86466 11.1495 4.69674 11.3937C4.51928 11.6517 4.38074 11.9537 4.26852 12.2491C3.83577 13.3794 3.44407 15.3543 3.07027 17.6598L3.06978 17.6617C2.73931 19.7164 2.40455 22.1516 2.07027 24.5836L2.06978 24.5856C2.06951 24.5873 2.06933 24.5901 2.06881 24.5934L2.06441 24.6212C2.06066 24.645 2.05512 24.6785 2.04928 24.7164C2.03984 24.7777 2.02926 24.8512 2.01998 24.9161C2.0178 24.9311 2.0152 24.9461 2.01314 24.961C1.92682 25.5891 1.86792 25.9774 1.82271 26.3287C1.54268 28.505 1.20852 30.7648 0.920288 32.5818C0.974035 32.7509 1.02953 32.9192 1.08676 33.0867C1.28108 33.6555 1.49533 34.215 1.72868 34.7645C1.74169 34.7951 1.75476 34.8257 1.76788 34.8563C1.85259 34.4057 1.93631 33.9264 2.01949 33.423C2.39011 31.1773 2.80163 28.0788 3.15621 25.3023L3.18941 25.0426C3.19054 25.0338 3.19186 25.025 3.19283 25.0162L3.22359 24.8102L3.35396 23.8624C3.64504 21.7498 3.93374 19.6884 4.21871 17.9166C4.59694 15.5837 4.96813 13.7683 5.33541 12.8102C5.42635 12.5705 5.51694 12.386 5.60641 12.256C5.69633 12.1252 5.78276 12.0534 5.86422 12.0318C5.94315 12.011 6.02441 12.0356 6.11031 12.1163C6.19695 12.1977 6.28535 12.3337 6.37447 12.527C6.55257 12.9138 6.72983 13.5195 6.9067 14.3063C7.08348 15.0926 7.2594 16.0584 7.43551 17.1637C7.74301 19.096 8.04578 21.4455 8.34566 23.8624L8.35287 23.9204L8.36833 24.0451C8.40441 24.3359 8.44059 24.6277 8.47652 24.9195L8.48873 25.0157L8.80123 27.5543C9.0233 29.3446 9.2448 31.0735 9.4648 32.5826L9.47213 32.6373L9.47262 32.6383C9.80283 34.8968 10.1522 36.8134 10.5449 37.879L10.5468 37.8834L10.6303 38.0953C10.7206 38.3097 10.8313 38.528 10.9697 38.7203C11.1444 38.9632 11.4894 39.335 12.0146 39.3702C12.5646 39.407 12.9503 39.0545 13.1533 38.7955C13.3556 38.5373 13.4968 38.2281 13.5996 37.9571C13.9924 36.9216 14.3327 35.0279 14.6435 32.8043C14.959 30.5446 15.2731 27.767 15.5815 25.0152C15.6034 24.8218 15.6273 24.6284 15.6508 24.4352C15.6744 24.2419 15.6978 24.0484 15.7197 23.8556C15.9842 21.5278 16.2485 19.2602 16.5102 17.3712C16.7669 15.5195 17.0233 14.0413 17.2758 13.1153L17.2789 13.1039L17.2885 13.069C17.3367 12.8959 17.3849 12.7434 17.4326 12.6124C17.5089 12.4045 17.5843 12.2525 17.6582 12.1549C17.7326 12.0566 17.8007 12.0194 17.8623 12.025C17.9251 12.0308 17.9946 12.082 18.0688 12.1944C18.1424 12.3059 18.2167 12.4716 18.2915 12.692C18.3298 12.805 18.3684 12.9322 18.4067 13.0729C18.4108 13.088 18.4148 13.1033 18.4189 13.1188C18.6752 14.0789 18.9302 15.6326 19.185 17.5738C19.4255 19.4112 19.6636 21.6183 19.8999 23.8556L19.9741 24.5602L20.0078 24.8805L20.018 24.9786L20.021 25.0055C20.0213 25.0085 20.0218 25.0112 20.0219 25.0128L20.0219 25.0152L20.0454 25.2213C20.2773 27.9905 20.5201 30.7336 20.7509 32.942C20.9772 35.1144 21.2172 36.9116 21.4848 37.8697L21.4863 37.8751C21.5549 38.1171 21.6535 38.4132 21.8061 38.6695C21.865 38.7685 22.0012 38.9736 22.2148 39.1368C22.4291 39.3006 22.7225 39.4227 23.0927 39.3526C23.7089 39.236 23.9983 38.6544 24.0737 38.4986C24.1935 38.251 24.2795 37.9679 24.3457 37.7071C24.6051 36.6841 24.8398 34.8353 25.0605 32.6056C25.2748 30.4637 25.486 27.8694 25.6953 25.297L25.7163 25.0382C25.7293 25.037 25.7401 25.0275 25.7412 25.0143C25.7733 24.6242 25.8056 24.2339 25.8379 23.8448C26.0313 21.5139 26.2262 19.2286 26.4189 17.3287C26.5589 15.9539 26.6989 14.7864 26.8388 13.9005C26.8799 13.6406 26.9209 13.4048 26.9619 13.1954C26.9813 13.0961 27.0005 13.0025 27.02 12.9151C27.0444 12.8054 27.0689 12.7053 27.0932 12.6153C27.1493 12.4084 27.2049 12.2563 27.2592 12.1573C27.2864 12.1079 27.3124 12.0729 27.3369 12.0514C27.3611 12.0301 27.3824 12.0232 27.4008 12.0245C27.4197 12.0259 27.4417 12.0365 27.4668 12.0621C27.4918 12.0878 27.5178 12.1268 27.5449 12.1803C27.599 12.2874 27.6542 12.4479 27.7094 12.6627C27.7262 12.7279 27.7429 12.7982 27.7597 12.8731C27.7821 12.9729 27.8047 13.0811 27.8271 13.1974C27.8675 13.4068 27.9078 13.6426 27.9482 13.9024C28.09 14.8147 28.232 16.0254 28.374 17.4513C28.5598 19.3192 28.7431 21.5497 28.9262 23.8385C28.9575 24.2292 28.9887 24.6216 29.02 25.0143C29.2327 27.7413 29.4693 30.485 29.684 32.7203C29.8931 34.9279 30.1157 36.7454 30.3579 37.7364C30.4194 37.9877 30.5013 38.2678 30.6186 38.5128C30.6773 38.6353 30.7719 38.8077 30.9179 38.9664C31.0668 39.1282 31.3289 39.3381 31.6977 39.3688C32.0825 39.4007 32.3703 39.237 32.5703 39.0489C32.7699 38.8611 32.8835 38.6477 32.9204 38.5763C33.049 38.3267 33.1338 38.0419 33.1948 37.7989L33.2407 37.608C33.4677 36.6051 33.6693 34.8971 33.8613 32.858C34.0039 31.3646 34.126 29.6025 34.2514 27.7882L34.2523 27.7762L34.2523 27.7754L34.2754 27.4412C34.3295 26.6607 34.3845 25.873 34.4423 25.0953C34.4434 25.0812 34.4441 25.067 34.4448 25.0528L34.4467 25.0133C34.4664 24.6126 34.4802 24.2155 34.5024 23.8204C34.5681 22.6531 34.6429 21.5115 34.7143 20.423L34.7143 20.422C34.7768 19.4691 34.8365 18.5565 34.8852 17.7027C34.8956 17.5151 34.9056 17.3305 34.915 17.1495C34.9369 16.721 34.966 16.1264 34.9843 15.7418C35.0327 14.7296 35.0733 13.8814 35.1294 13.256C35.1462 13.068 35.1643 12.9003 35.1845 12.7545C35.1909 12.7076 35.1977 12.6627 35.2046 12.6202L35.205 12.6173L35.2299 12.4791C35.2559 12.3499 35.2847 12.2482 35.3144 12.1734C35.3343 12.1236 35.3543 12.0869 35.3735 12.0621C35.3928 12.0372 35.4092 12.0274 35.4213 12.025C35.4321 12.023 35.4453 12.0255 35.4619 12.0406C35.4791 12.0563 35.4981 12.0834 35.5171 12.1241C35.5549 12.2053 35.5902 12.3331 35.6196 12.5079L35.645 12.67L35.6699 12.8556L35.6704 12.858C35.6854 12.9796 35.6999 13.1143 35.7143 13.2608C35.7973 14.1025 35.872 15.3443 35.9638 16.8722L35.9692 16.9625L35.9799 17.1461C36.0909 19.0682 36.2019 21.4075 36.3154 23.8199L36.3349 24.2335L36.3701 24.9938C36.3653 24.999 36.3629 25.0061 36.3632 25.0133C36.4748 27.472 36.5866 29.933 36.6987 32.0177L36.6987 32.0196C36.8251 34.3098 36.9515 36.1893 37.0825 37.2687C37.1156 37.5418 37.1521 37.792 37.1948 38.0025C37.2161 38.1076 37.2429 38.2235 37.2778 38.3375C37.3071 38.4333 37.3676 38.614 37.4804 38.794C37.5676 38.9331 37.9111 39.423 38.5229 39.3688C39.0862 39.3187 39.3671 38.84 39.4296 38.7286C39.5887 38.4451 39.6546 38.1115 39.684 37.9586C39.8314 37.1934 39.959 35.5878 40.0805 33.5602C40.1428 32.5209 40.1692 31.3405 40.1953 30.0816C40.2213 28.8226 40.2468 27.4843 40.3086 26.129L40.3584 25.0328C40.3643 25.0281 40.3688 25.0214 40.3691 25.0133C40.3848 24.628 40.4003 24.2429 40.416 23.8595C40.4994 21.8186 40.583 19.8253 40.6665 18.0939L40.6708 18.0068L40.6708 18.0056L40.6709 18.0034C40.6834 17.7519 40.6955 17.5062 40.708 17.2667C40.7189 17.0559 40.7298 16.8499 40.7407 16.649C40.8173 15.2377 40.8929 14.0793 40.9682 13.2794C40.9793 13.1618 40.9904 13.052 41.0014 12.9503C41.0229 12.7531 41.0445 12.5864 41.0659 12.4508C41.0882 12.3097 41.1105 12.2024 41.1323 12.1295C41.1432 12.093 41.1537 12.066 41.1635 12.048C41.1683 12.0392 41.1727 12.0332 41.1762 12.0294C41.1778 12.0278 41.1793 12.0266 41.1801 12.026C41.1813 12.0268 41.1835 12.0279 41.186 12.0309C41.1941 12.0406 41.204 12.059 41.2148 12.0885C41.2363 12.1469 41.258 12.2401 41.2802 12.3692C41.3087 12.5343 41.3375 12.7562 41.3662 13.0304C41.3745 13.1097 41.3828 13.1934 41.3911 13.2814C41.4649 14.0651 41.5388 15.1853 41.6128 16.5611C41.625 16.7899 41.6371 17.0257 41.6494 17.2677C41.746 19.1794 41.8409 21.4841 41.938 23.8595L41.9423 23.9689L41.9848 25.0133C42.0848 27.472 42.1949 29.9326 42.2954 32.0172L42.2954 32.0196L42.3803 33.6544C42.4654 35.1997 42.551 36.4593 42.6391 37.2687C42.6688 37.5417 42.702 37.7917 42.7402 38.0021C42.7593 38.107 42.7832 38.2227 42.8144 38.3365C42.8407 38.4322 42.8945 38.6131 42.9956 38.7931C43.0351 38.8635 43.132 39.0202 43.2871 39.1529C43.4425 39.2859 43.658 39.3956 43.934 39.3683C44.1884 39.3431 44.3788 39.21 44.5117 39.0704C44.6443 38.9311 44.7211 38.7841 44.7495 38.7276C44.8919 38.4444 44.9511 38.111 44.9775 37.9581C45.1096 37.1931 45.224 35.5875 45.333 33.5597C45.4446 31.4823 45.5001 28.6293 45.6108 25.919C45.6256 25.5572 45.6392 25.356 45.6539 25.0007L45.6548 25.0007C45.6705 24.6154 45.6956 24.2303 45.7112 23.847ZM46.9624 16.5482C46.8885 15.1723 46.8146 14.0517 46.7407 13.2674C46.7339 13.1959 46.7272 13.1272 46.7205 13.0613C47.1585 13.8656 47.5536 14.6967 47.9027 15.5514C47.9198 15.8414 47.9366 16.1429 47.9534 16.4544C48.065 18.5319 48.1203 21.3833 48.2311 24.0948C48.2462 24.4658 48.2474 24.6284 48.2625 25.0007C48.2688 25.1553 48.277 25.3052 48.2853 25.4586L48.2886 25.5195L48.2887 25.52L48.2922 25.5847C48.3004 25.7363 48.3083 25.8878 48.3145 26.039L48.319 26.1484C48.4124 28.4363 48.5039 30.6586 48.5968 32.5276C48.3456 33.324 48.0557 34.1032 47.7292 34.8629C47.7035 34.4479 47.6783 34.0055 47.6533 33.5409C47.5892 32.3483 47.5437 30.9007 47.4956 29.371C47.4599 28.2359 47.4228 27.0555 47.3756 25.9006C47.368 25.7144 47.364 25.5807 47.3599 25.4467C47.3558 25.3136 47.3517 25.1862 47.3442 25.0007C47.33 24.6521 47.3064 24.3036 47.2922 23.9563L47.2877 23.847C47.1907 21.4716 47.0958 19.167 46.9992 17.255C46.987 17.0129 46.9747 16.7771 46.9624 16.5482Z" fill="rgb(255,255,255)" fill-rule="evenodd" />
	<g id="txt" customFrame="url(#clipPath_0)">
		<rect id="txt" width="120.500000" height="29.000000" x="56.000000" y="10.500000" />
		<g id="Frame 6776" customFrame="url(#clipPath_1)">
			<rect id="Frame 6776" width="120.149704" height="28.738510" x="56.595703" y="10.695312" />
			<path id="SKYYAR" d="M74.0882 24.4214C74.0882 27.5722 71.0189 30.1255 65.9395 30.1255C60.833 30.1255 56.8673 27.6265 56.5957 23.8781L60.5614 23.8781C60.9688 25.698 63.1147 26.866 65.8852 26.866C68.4656 26.866 70.2855 25.7795 70.2855 24.3127C70.2855 22.4102 67.9203 22.1179 65.1739 21.7785C61.3723 21.3087 56.8402 20.7487 56.8402 15.7023C56.8402 12.3613 60.3713 10.297 65.0432 10.297C69.9867 10.297 73.4635 12.6601 73.7623 16.1097L69.8237 16.1097C69.4978 14.643 67.4878 13.4478 65.0432 13.4478C62.3813 13.4478 60.6429 14.4528 60.6429 15.8109C60.6429 17.5323 62.8906 17.8143 65.5479 18.1477C69.3899 18.6296 74.0882 19.2191 74.0882 24.4214ZM80.6042 29.718L80.6042 21.9496L82.6957 21.9496L90.7629 29.718L96.0596 29.718L86.3355 20.2112L95.3533 10.7044L90.1925 10.7044L82.7772 18.4729L80.6042 18.4729L80.6042 10.7044L76.8015 10.7044L76.8015 29.718L80.6042 29.718ZM104.383 22.3842L95.6369 10.7044L100.417 10.7044L106.284 18.5272L112.152 10.7044L120.789 10.7044L126.656 18.5272L132.523 10.7044L137.304 10.7044L128.558 22.3842L128.558 29.718L124.755 29.718L124.755 22.3842L116.47 11.3211L108.186 22.3842L108.186 29.718L104.383 29.718L104.383 22.3842ZM143.739 10.7044L147.977 10.7044L157.565 29.718L153.327 29.718L151.073 25.2363L140.67 25.2363L138.415 29.718L134.205 29.718L143.739 10.7044ZM167.809 24.1769L172.019 29.718L176.745 29.718L171.965 23.4436C174.328 22.3299 176.066 20.1026 176.066 17.4407C176.066 13.3935 172.698 10.7044 168.624 10.7044L158.845 10.7044L158.845 29.718L162.648 29.718L162.648 24.1769L167.809 24.1769ZM168.624 14.2084C170.743 14.2084 172.264 15.5665 172.264 17.4407C172.264 19.2334 170.715 20.6187 168.624 20.6187L162.648 20.6187L162.648 14.2084L168.624 14.2084ZM149.307 21.7595L145.858 14.9146L142.408 21.7595L149.307 21.7595Z" fill="rgb(0,0,0)" fill-rule="evenodd" />
			<path id="Drone Defence Systems" d="M104.625 34.8827L106.02 34.8827L106.02 35.549L104.625 35.549L104.625 39.3245L103.914 39.3245L103.914 35.549L102.964 35.549L102.964 34.8827L103.914 34.8827C103.914 33.6568 104.687 32.9728 106.02 32.9728L106.02 33.5591C105.105 33.5591 104.625 34.0033 104.625 34.8827ZM140.33 37.7344C140.33 38.7027 139.38 39.4578 137.958 39.4578C136.501 39.4578 135.391 38.7027 135.284 37.5478L136.022 37.5478C136.164 38.3384 136.919 38.8359 137.931 38.8359C138.909 38.8359 139.619 38.3562 139.619 37.7077C139.619 35.7 135.391 37.2813 135.391 34.6429C135.391 33.639 136.421 32.9728 137.789 32.9728C139.131 32.9728 140.135 33.6923 140.268 34.7406L139.539 34.7406C139.397 34.0655 138.678 33.5857 137.789 33.5857C136.821 33.5857 136.102 34.0299 136.102 34.6695C136.102 36.464 140.33 34.9272 140.33 37.7344ZM56.5957 39.3245L56.5957 33.106L58.9587 33.106C60.7354 33.106 62.0768 34.4297 62.0768 36.2064C62.0768 37.9209 60.6732 39.3245 58.9587 39.3245L56.5957 39.3245ZM90.0821 39.3245L90.0821 33.106L92.4452 33.106C94.2219 33.106 95.5633 34.4297 95.5633 36.2064C95.5633 37.9209 94.1597 39.3245 92.4452 39.3245L90.0821 39.3245ZM61.3662 36.2064C61.3662 34.7939 60.3446 33.7812 58.9587 33.7812L57.3064 33.7812L57.3064 38.6494L58.9587 38.6494C60.3179 38.6494 61.3662 37.5745 61.3662 36.2064ZM94.8526 36.2064C94.8526 34.7939 93.831 33.7812 92.4452 33.7812L90.7928 33.7812L90.7928 38.6494L92.4452 38.6494C93.8043 38.6494 94.8526 37.5745 94.8526 36.2064ZM154.248 35.549L154.248 37.2458C154.248 38.3296 154.665 38.7826 155.598 38.7826L155.598 39.4578C154.141 39.4578 153.537 38.7115 153.537 37.2458L153.537 35.549L152.604 35.549L152.604 35.247L153.955 33.8878L154.248 33.8878L154.248 34.8827L155.598 34.8827L155.598 35.549L154.248 35.549ZM66.6122 34.7495L66.6122 35.4957C65.3685 35.4957 64.569 36.4818 64.569 38.063L64.569 39.3245L63.8583 39.3245L63.8583 34.8827L64.4713 34.8827L64.569 36.2952C64.9421 35.3358 65.6795 34.7495 66.6122 34.7495ZM67.9214 37.1125C67.9214 35.7533 68.9252 34.7495 70.2578 34.7495C71.6258 34.7495 72.6208 35.7089 72.6208 37.1125C72.6208 38.4983 71.6258 39.4578 70.2578 39.4578C68.9252 39.4578 67.9214 38.4539 67.9214 37.1125ZM75.1644 37.1303L75.1644 39.3245L74.4537 39.3245L74.4537 34.8827L75.0667 34.8827L75.1555 35.7622C75.502 35.1315 76.0883 34.7495 76.8167 34.7495C77.9627 34.7495 78.7533 35.7356 78.7533 37.1303L78.7533 39.3245L78.0426 39.3245L78.0426 37.1303C78.0426 36.0998 77.4741 35.4158 76.6035 35.4158C75.7507 35.4158 75.1644 36.1087 75.1644 37.1303ZM85.191 37.3079L81.3444 37.3079C81.4244 38.2229 82.0551 38.8892 82.899 38.8892C83.5209 38.8892 84.0272 38.5694 84.3204 38.063L85.0488 38.063C84.6846 38.9247 83.894 39.4578 82.899 39.4578C81.5931 39.4578 80.6248 38.4539 80.6248 37.1125C80.6248 35.7533 81.5754 34.7495 82.899 34.7495C84.2493 34.7495 85.1999 35.7089 85.1999 37.1125C85.1999 37.1747 85.191 37.2369 85.191 37.3079ZM101.626 37.3079L97.7796 37.3079C97.8596 38.2229 98.4903 38.8892 99.3343 38.8892C99.9561 38.8892 100.462 38.5694 100.756 38.063L101.484 38.063C101.12 38.9247 100.329 39.4578 99.3343 39.4578C98.0284 39.4578 97.0601 38.4539 97.0601 37.1125C97.0601 35.7533 98.0106 34.7495 99.3343 34.7495C100.685 34.7495 101.635 35.7089 101.635 37.1125C101.635 37.1747 101.626 37.2369 101.626 37.3079ZM112.065 37.3079L108.219 37.3079C108.299 38.2229 108.93 38.8892 109.773 38.8892C110.395 38.8892 110.902 38.5694 111.195 38.063L111.923 38.063C111.559 38.9247 110.768 39.4578 109.773 39.4578C108.468 39.4578 107.499 38.4539 107.499 37.1125C107.499 35.7533 108.45 34.7495 109.773 34.7495C111.124 34.7495 112.074 35.7089 112.074 37.1125C112.074 37.1747 112.065 37.2369 112.065 37.3079ZM114.647 37.1303L114.647 39.3245L113.936 39.3245L113.936 34.8827L114.549 34.8827L114.638 35.7622C114.984 35.1315 115.571 34.7495 116.299 34.7495C117.445 34.7495 118.236 35.7356 118.236 37.1303L118.236 39.3245L117.525 39.3245L117.525 37.1303C117.525 36.0998 116.957 35.4158 116.086 35.4158C115.233 35.4158 114.647 36.1087 114.647 37.1303ZM120.818 37.1036C120.818 38.0897 121.502 38.8093 122.435 38.8093C123.172 38.8093 123.758 38.3917 123.989 37.761L124.727 37.761C124.434 38.7826 123.572 39.4578 122.435 39.4578C121.102 39.4578 120.107 38.4539 120.107 37.1125C120.107 35.7533 121.093 34.7495 122.435 34.7495C123.563 34.7495 124.425 35.4158 124.718 36.4374L123.981 36.4374C123.741 35.8155 123.163 35.3891 122.435 35.3891C121.502 35.3891 120.818 36.1264 120.818 37.1036ZM130.713 37.3079L126.866 37.3079C126.946 38.2229 127.577 38.8892 128.421 38.8892C129.043 38.8892 129.549 38.5694 129.842 38.063L130.571 38.063C130.207 38.9247 129.416 39.4578 128.421 39.4578C127.115 39.4578 126.147 38.4539 126.147 37.1125C126.147 35.7533 127.097 34.7495 128.421 34.7495C129.771 34.7495 130.722 35.7089 130.722 37.1125C130.722 37.1747 130.713 37.2369 130.713 37.3079ZM151.087 38.143C151.087 38.8892 150.367 39.4578 149.337 39.4578C148.209 39.4578 147.418 38.9781 147.311 38.0719L147.987 38.0719C148.084 38.6227 148.546 38.9159 149.346 38.9159C149.95 38.9159 150.412 38.5783 150.412 38.1519C150.412 36.8371 147.454 37.841 147.454 36.0554C147.454 35.3358 148.155 34.7495 149.186 34.7495C150.279 34.7495 150.971 35.2736 151.042 36.1531L150.385 36.1531C150.35 35.6645 149.968 35.2825 149.177 35.2825C148.608 35.2825 148.138 35.6201 148.138 36.0465C148.138 37.3168 151.087 36.2419 151.087 38.143ZM161.718 37.3079L157.872 37.3079C157.952 38.2229 158.582 38.8892 159.426 38.8892C160.048 38.8892 160.554 38.5694 160.848 38.063L161.576 38.063C161.212 38.9247 160.421 39.4578 159.426 39.4578C158.12 39.4578 157.152 38.4539 157.152 37.1125C157.152 35.7533 158.103 34.7495 159.426 34.7495C160.776 34.7495 161.727 35.7089 161.727 37.1125C161.727 37.1747 161.718 37.2369 161.718 37.3079ZM164.3 37.1303L164.3 39.3245L163.589 39.3245L163.589 34.8827L164.202 34.8827L164.291 35.7356C164.619 35.1226 165.179 34.7495 165.854 34.7495C166.645 34.7495 167.258 35.2558 167.533 36.0643C167.826 35.2647 168.466 34.7495 169.248 34.7495C170.331 34.7495 171.095 35.7356 171.095 37.1303L171.095 39.3245L170.385 39.3245L170.385 37.1303C170.385 36.0998 169.834 35.4158 169.034 35.4158C168.253 35.4158 167.702 36.1087 167.702 37.1303L167.702 39.3245L166.991 39.3245L166.991 37.1303C166.991 36.0998 166.458 35.4158 165.641 35.4158C164.841 35.4158 164.3 36.1087 164.3 37.1303ZM176.745 38.143C176.745 38.8892 176.026 39.4578 174.995 39.4578C173.867 39.4578 173.077 38.9781 172.97 38.0719L173.645 38.0719C173.743 38.6227 174.205 38.9159 175.004 38.9159C175.608 38.9159 176.07 38.5783 176.07 38.1519C176.07 36.8371 173.112 37.841 173.112 36.0554C173.112 35.3358 173.814 34.7495 174.844 34.7495C175.937 34.7495 176.63 35.2736 176.701 36.1531L176.044 36.1531C176.008 35.6645 175.626 35.2825 174.835 35.2825C174.267 35.2825 173.796 35.6201 173.796 36.0465C173.796 37.3168 176.745 36.2419 176.745 38.143ZM144.122 41.0746L143.376 41.0746L143.98 39.3245L142.834 39.3245L141.324 34.8827L142.052 34.8827L143.323 38.5872L144.229 38.5872L145.499 34.8827L146.219 34.8827L144.122 41.0746ZM81.3444 36.8993L84.4803 36.8993C84.4003 35.9665 83.7785 35.3358 82.899 35.3358C82.0551 35.3358 81.4244 35.9843 81.3444 36.8993ZM97.7796 36.8993L100.916 36.8993C100.836 35.9665 100.214 35.3358 99.3343 35.3358C98.4903 35.3358 97.8596 35.9843 97.7796 36.8993ZM108.219 36.8993L111.355 36.8993C111.275 35.9665 110.653 35.3358 109.773 35.3358C108.93 35.3358 108.299 35.9843 108.219 36.8993ZM126.866 36.8993L130.002 36.8993C129.922 35.9665 129.3 35.3358 128.421 35.3358C127.577 35.3358 126.946 35.9843 126.866 36.8993ZM157.872 36.8993L161.007 36.8993C160.928 35.9665 160.306 35.3358 159.426 35.3358C158.582 35.3358 157.952 35.9843 157.872 36.8993ZM68.6321 37.1036C68.6321 38.0719 69.3339 38.7826 70.2578 38.7826C71.2438 38.7826 71.9101 38.1075 71.9101 37.1036C71.9101 36.0998 71.2349 35.4158 70.2578 35.4158C69.325 35.4158 68.6321 36.1353 68.6321 37.1036Z" fill="rgb(0,0,0)" fill-rule="evenodd" />
		</g>
	</g>
</svg>
