<svg width="304" height="80" viewBox="0 0 304 80" fill="none" xmlns="http://www.w3.org/2000/svg">
<g clip-path="url(#clip0_262_144)">
<g clip-path="url(#clip1_262_144)">
<path d="M80 40C80 62.0914 62.0914 80 40 80C17.9086 80 0 62.0914 0 40C0 17.9086 17.9086 0 40 0C62.0914 0 80 17.9086 80 40Z" fill="#377DFF"/>
<path fill-rule="evenodd" clip-rule="evenodd" d="M28.0496 20.9541C28.0535 20.9398 28.0574 20.9256 28.0613 20.9115L28.0496 20.9541Z" fill="white"/>
<path fill-rule="evenodd" clip-rule="evenodd" d="M76.3926 46.9947V46.9945C76.3923 46.9855 76.392 46.9765 76.3918 46.9674C76.392 46.9765 76.3923 46.9856 76.3926 46.9947Z" fill="white"/>
<path d="M73.5376 38.1563C73.6711 34.8908 73.8046 31.7012 73.9381 28.9307C73.9605 28.4777 73.9829 28.0362 74.0052 27.6071C74.0227 27.2697 74.0402 26.9401 74.0576 26.6186C74.1802 24.3605 74.3011 22.5068 74.4217 21.2261C74.4395 21.0376 74.4572 20.8616 74.475 20.6984C74.5094 20.3823 74.5438 20.115 74.5782 19.897L74.5803 19.8842C74.2145 19.2568 73.8321 18.6402 73.4337 18.0351C73.2957 18.2977 73.2196 18.5534 73.1809 18.6945C73.1314 18.8751 73.0932 19.0587 73.0628 19.226C73.0019 19.5612 72.9493 19.9602 72.9018 20.3968C72.714 22.1221 72.5333 25.1277 72.352 28.7925L72.3518 28.7961C72.1911 32.1314 72.0154 36.0683 71.8554 40.0023C71.8542 40.0312 71.7847 41.7474 71.7836 41.7764L71.7831 41.7874C71.7821 41.8132 71.7811 41.8389 71.78 41.8646C71.6248 45.6652 71.4728 49.3526 71.3183 52.4115C71.2987 52.7987 71.2794 53.1759 71.2597 53.542C71.1414 55.7433 71.0232 57.5356 70.905 58.7896C70.8918 58.9303 70.8784 59.0643 70.8652 59.1912C70.8194 59.6298 70.7741 59.985 70.7285 60.249C70.6928 60.4557 70.6573 60.6047 70.623 60.6982C70.6057 60.7454 70.5899 60.7748 70.5769 60.7904C70.5729 60.7951 70.5693 60.7969 70.5675 60.7982L70.5668 60.7976C70.5668 60.7976 70.5639 60.7955 70.5621 60.7935C70.5564 60.7874 70.5488 60.7775 70.541 60.7631C70.5252 60.7341 70.5084 60.691 70.491 60.6326C70.4561 60.5159 70.4204 60.345 70.3847 60.1193C70.3504 59.9023 70.3167 59.6357 70.2824 59.3201C70.2646 59.1572 70.2462 58.9811 70.2285 58.7927C70.1079 57.513 69.9877 55.6601 69.8652 53.4021L69.8546 53.2076C69.8405 52.9481 69.8261 52.6834 69.8121 52.4138C69.7924 52.0346 69.7731 51.6453 69.7534 51.2472L69.7534 51.2467L69.7533 51.2461L69.7527 51.2335L69.7524 51.2267L69.7457 51.0904C69.6122 48.3201 69.4784 45.1301 69.3449 41.8646L69.2953 40.8345L69.2949 40.8266C69.2707 40.3266 69.2464 39.8266 69.2449 39.7882C69.2238 39.2693 69.2027 38.7504 69.1816 38.2334C69.0044 33.8952 68.8313 29.6685 68.6527 26.3443C68.4783 23.0996 68.2952 20.5308 68.0839 19.3068C68.0418 19.0623 67.947 18.5295 67.7191 18.0763C67.6738 17.9863 67.5511 17.7503 67.3386 17.5271C67.126 17.3038 66.8214 17.0909 66.4144 17.0506C65.9727 17.0068 65.6272 17.1823 65.3785 17.3951C65.1304 17.6073 64.9762 17.8582 64.9128 17.9709C64.751 18.2588 64.665 18.5482 64.623 18.7013C64.573 18.8835 64.5348 19.0685 64.5042 19.2365C64.4431 19.5732 64.3901 19.9736 64.3425 20.4107C64.1546 22.1375 63.9739 25.1441 63.7925 28.8084V28.8123C63.6318 32.1477 63.4713 36.0847 63.3113 40.0185C63.1381 43.8191 62.911 49.3527 62.7386 52.4115C62.7168 52.7987 62.6949 53.1759 62.673 53.542C62.5411 55.7434 62.4095 57.5357 62.2777 58.7896C62.2629 58.9303 62.2479 59.0643 62.2331 59.1912C62.1821 59.6297 62.1309 59.9844 62.08 60.2482C62.0403 60.4549 62.001 60.6034 61.9628 60.6966C61.9436 60.7437 61.9258 60.7732 61.9113 60.7888C61.9046 60.796 61.9002 60.7989 61.898 60.7998H61.8956C61.8918 60.7985 61.8794 60.7913 61.8613 60.7615C61.8437 60.7326 61.8245 60.6894 61.805 60.631C61.7662 60.5146 61.7268 60.344 61.6871 60.1185C61.6488 59.9016 61.6105 59.635 61.5722 59.3193C61.5524 59.1564 61.5326 58.9803 61.5128 58.792C61.3784 57.5123 61.2441 55.6592 61.1074 53.4013C61.0879 53.08 61.0683 52.7503 61.0488 52.4131C61.0239 51.9841 60.9988 51.5425 60.9738 51.0896C60.8249 48.3194 60.6758 45.13 60.5269 41.8646C60.5139 41.5802 60.5071 41.2951 60.5003 41.0092L60.4988 40.9435C60.4914 40.6359 60.4839 40.3272 60.4699 40.0185L60.4066 38.6427C60.2088 34.4352 60.0141 30.3074 59.8199 26.9904L59.8113 26.842C59.8059 26.7523 59.8002 26.6628 59.7949 26.574L59.7947 26.5705C59.608 23.4621 59.4537 20.8937 59.2285 19.5834C59.1647 19.2055 59.0553 18.7114 58.8331 18.2677C58.7237 18.0491 58.5031 17.6717 58.1113 17.3881C57.6441 17.05 57.0252 16.9217 56.4144 17.1841C55.9019 17.4045 55.5998 17.8133 55.4558 18.0451C55.2979 18.2992 55.1959 18.5573 55.1285 18.7576C54.9931 19.1596 54.9054 19.6126 54.8449 20.0599C54.6883 21.1914 54.5995 23.0486 54.4949 25.2346L54.4949 25.2357V25.2381L54.3456 28.181C54.2704 29.5001 54.1764 30.9432 54.0769 32.4623L54.0748 32.4947L54.0747 32.4956C53.9186 34.8787 53.7502 37.448 53.6253 40.0185C53.5799 40.6307 53.5366 41.2549 53.4933 41.8662C53.4347 42.6931 53.3777 43.5169 53.3214 44.331L53.3164 44.404C53.1189 47.2601 52.9298 49.9949 52.7066 52.3318C52.5115 54.4036 52.3159 56.1811 52.1199 57.5638C52.0489 58.0645 51.9778 58.5132 51.9066 58.9052C51.8744 59.0823 51.8427 59.2486 51.8105 59.4021C51.7756 59.5684 51.74 59.7202 51.705 59.8576C51.6222 60.1883 51.5402 60.4319 51.4589 60.5896C51.4183 60.6685 51.3792 60.7236 51.3425 60.7576C51.3063 60.7911 51.2755 60.8011 51.2495 60.799C51.2226 60.7967 51.19 60.7803 51.1519 60.7388C51.1139 60.6975 51.0736 60.635 51.0324 60.549C50.95 60.377 50.8665 60.1201 50.7824 59.7763C50.7603 59.6861 50.7381 59.5898 50.716 59.4881C50.7155 59.4859 50.7156 59.4839 50.7152 59.4818L50.6011 58.9084C50.5292 58.5164 50.4569 58.0676 50.3847 57.567C50.1781 56.1344 49.9712 54.2774 49.766 52.1099C49.4782 49.114 49.1897 45.5364 48.9019 41.8654C48.8537 41.2512 48.8034 40.6219 48.7552 40.0048L48.7552 40.0046C48.4081 35.6438 48.0586 31.2514 47.7027 27.674C47.3517 24.1486 46.983 21.2307 46.5738 19.6404C46.4699 19.2368 46.3308 18.7845 46.1308 18.3888C46.015 18.1598 45.4858 17.1305 44.362 17.049C43.7559 17.005 43.2965 17.2517 42.973 17.5396C42.6501 17.827 42.4611 18.1571 42.3917 18.2834C42.1718 18.684 42.0245 19.1428 41.9183 19.5349C41.5497 20.8961 41.2155 23.2777 40.8995 26.192L40.7652 27.4732C40.4023 31.0518 40.035 35.4687 39.6753 39.8302C39.66 40.0184 39.6384 40.3094 39.6166 40.6029C39.6162 40.6078 39.6159 40.6127 39.6155 40.6175C39.5929 40.9218 39.5703 41.2271 39.5544 41.4218L39.5531 41.4379L39.552 41.4511L39.5214 41.8256C39.2283 45.4184 38.9351 48.9433 38.6378 51.9138C38.3922 54.3953 38.1443 56.481 37.8956 58.0037C37.8406 58.3409 37.7851 58.6503 37.73 58.9302C37.6934 59.1166 37.6573 59.2902 37.6206 59.4498C37.6201 59.4522 37.6189 59.4542 37.6183 59.4568C37.5985 59.543 37.5787 59.6256 37.5589 59.7037C37.4688 60.059 37.3795 60.3277 37.291 60.5107C37.2467 60.6022 37.2029 60.67 37.1613 60.717C37.1195 60.764 37.0826 60.7866 37.0503 60.7927C37.0196 60.7985 36.986 60.7914 36.948 60.7631C36.909 60.7339 36.8671 60.6839 36.823 60.6099C36.7348 60.4618 36.6441 60.2279 36.5527 59.9052C36.5006 59.7188 36.4489 59.5032 36.3964 59.2607C36.3739 59.1568 36.351 59.0479 36.3285 58.9341C36.2729 58.6534 36.2171 58.3427 36.1613 58.0045C35.9281 56.5913 35.6936 54.6935 35.4589 52.4396C35.139 49.3781 34.6053 43.3358 34.2808 39.4896L33.955 36.4099C33.628 33.3414 33.2969 30.3455 32.962 27.7873C32.493 24.2135 31.9933 21.1851 31.423 19.5029C31.275 19.0664 31.0792 18.5865 30.8074 18.1748C30.5623 17.8036 30.0182 17.1335 29.1269 17.0521C28.1781 16.9656 27.537 17.5987 27.2347 17.9982C26.9239 18.4089 26.7096 18.8967 26.555 19.3177L26.5527 19.3248C25.9646 20.9412 25.4412 23.9162 24.9519 27.4451C24.7012 29.2541 24.3263 32.3971 24.0144 35.0873C23.8584 36.4324 23.7181 37.6649 23.6167 38.5607C23.5758 38.9224 23.4436 40.0966 23.417 40.334L23.4168 40.3354C23.3634 40.8115 23.3101 41.2875 23.2566 41.7615C22.837 45.478 22.4143 49.101 21.9917 52.1271C21.4873 55.7357 20.9731 58.4759 20.4605 59.8271C20.3325 60.1645 20.2054 60.4116 20.08 60.5716C19.954 60.7325 19.8365 60.7969 19.7277 60.7896C19.6174 60.782 19.4971 60.6999 19.3683 60.5209C19.2403 60.343 19.1096 60.0778 18.9777 59.7232C18.4546 58.3037 17.9255 55.5063 17.3902 51.8451C16.9565 48.8807 16.5194 45.3663 16.0761 41.7607L15.8699 40.0154C15.8683 40.001 15.8662 39.9868 15.8644 39.9724L15.8128 39.5568C15.2658 35.1147 14.7073 30.6522 14.1355 27.0591C13.8496 25.2646 13.5581 23.6617 13.2589 22.331C12.9687 21.04 12.6407 19.8595 12.2449 18.9998L12.2441 18.9982C12.0474 18.5717 11.7629 18.0654 11.3456 17.6732C10.8817 17.2372 10.1837 16.8945 9.36986 17.1099C8.65401 17.2995 8.18307 17.8404 7.91439 18.231C7.63046 18.6438 7.4088 19.1271 7.22923 19.5998C6.53685 21.4082 5.91012 24.568 5.31205 28.2568L5.31127 28.2599C4.78251 31.5475 4.24689 35.4437 3.71205 39.3349C3.57392 40.3397 3.38829 41.565 3.31595 42.1271C2.8679 45.6091 2.33324 49.2248 1.87207 52.1321C1.95807 52.4026 2.04686 52.6719 2.13842 52.9399C2.44934 53.8499 2.79214 54.7452 3.1655 55.6244C3.18631 55.6734 3.20722 55.7223 3.22822 55.7712C3.36375 55.0503 3.4977 54.2834 3.6308 53.4779C4.22378 49.8848 4.88222 44.9272 5.44955 40.4849L5.55736 39.6974L5.76595 38.181C6.23168 34.8009 6.6936 31.5026 7.14955 28.6677C7.75472 24.9352 8.34861 22.0304 8.93627 20.4974C9.08176 20.114 9.22672 19.8188 9.36986 19.6107C9.51374 19.4015 9.65202 19.2866 9.78236 19.2521C9.90865 19.2188 10.0387 19.2582 10.1761 19.3873C10.3147 19.5176 10.4562 19.7351 10.5988 20.0443C10.8837 20.6632 11.1673 21.6324 11.4503 22.8912C11.7332 24.1493 12.0147 25.6946 12.2964 27.4631C12.7884 30.5547 13.2729 34.314 13.7527 38.181L13.7642 38.2739L13.7889 38.4733C13.8467 38.9386 13.9046 39.4056 13.962 39.8724L13.9816 40.0263L14.4816 44.0881C14.8369 46.9525 15.1913 49.7188 15.5433 52.1334L15.555 52.2209L15.5558 52.2224C16.0841 55.8361 16.6431 58.9026 17.2714 60.6076L17.2745 60.6146L17.4081 60.9537C17.5526 61.2967 17.7297 61.646 17.9511 61.9537C18.2307 62.3422 18.7827 62.9371 19.623 62.9935C20.5029 63.0524 21.1201 62.4884 21.4449 62.074C21.7686 61.6608 21.9944 61.1662 22.1589 60.7326C22.7875 59.0757 23.3319 56.0458 23.8292 52.4881C24.3341 48.8725 24.8366 44.4284 25.33 40.0256C25.365 39.7161 25.4032 39.4067 25.441 39.0974C25.4787 38.7881 25.5161 38.4786 25.5511 38.1701C25.9743 34.4457 26.3972 30.8175 26.816 27.7951C27.2267 24.8324 27.6369 22.4672 28.041 20.9857L28.0459 20.9674L28.0496 20.9541C28.0535 20.9398 28.0574 20.9256 28.0613 20.9115C28.1383 20.6346 28.2155 20.3906 28.2917 20.181C28.4139 19.8483 28.5345 19.6052 28.6527 19.449C28.7717 19.2917 28.8807 19.2322 28.9792 19.2412C29.0798 19.2505 29.1909 19.3324 29.3097 19.5123C29.4274 19.6906 29.5464 19.9557 29.666 20.3084C29.7273 20.4892 29.789 20.6928 29.8503 20.9177C29.8569 20.942 29.8633 20.9665 29.8699 20.9912C30.28 22.5274 30.688 25.0134 31.0956 28.1193C31.4804 31.059 31.8614 34.5905 32.2394 38.1701C32.2676 38.4369 32.3163 38.9005 32.3581 39.2974L32.4248 39.9161C32.427 39.9362 32.4292 39.9561 32.4313 39.9757C32.4502 40.1501 32.4666 40.3016 32.4722 40.3552C32.8432 44.786 33.2318 49.175 33.6011 52.7084C33.9631 56.1843 34.3472 59.0597 34.7753 60.5927L34.7777 60.6013C34.8874 60.9886 35.0452 61.4623 35.2894 61.8724C35.3837 62.0307 35.6015 62.3589 35.9433 62.6201C36.2861 62.8821 36.7557 63.0774 37.348 62.9654C38.3339 62.7788 38.7969 61.8482 38.9175 61.599C39.1092 61.2028 39.2468 60.7498 39.3527 60.3326C39.7678 58.6958 40.1433 55.7376 40.4964 52.1701C40.8393 48.743 41.1773 44.5922 41.512 40.4763L41.5287 40.2707C41.5802 39.6466 41.6885 38.7754 41.7402 38.1529C42.0496 34.4234 42.3616 30.767 42.6699 27.7271C42.8939 25.5274 43.1179 23.6594 43.3417 22.242C43.4074 21.8261 43.473 21.4489 43.5386 21.1138C43.5697 20.9549 43.6005 20.8051 43.6316 20.6654C43.6706 20.4899 43.7098 20.3296 43.7488 20.1857C43.8385 19.8545 43.9275 19.6112 44.0144 19.4529C44.0578 19.3738 44.0994 19.3178 44.1386 19.2834C44.1774 19.2493 44.2115 19.2383 44.241 19.2404C44.2711 19.2426 44.3064 19.2595 44.3464 19.3006C44.3865 19.3416 44.4282 19.4041 44.4714 19.4896C44.5581 19.6611 44.6463 19.9179 44.7347 20.2615C44.7616 20.3659 44.7883 20.4784 44.8152 20.5982C44.851 20.7578 44.8871 20.9309 44.923 21.117C44.9876 21.452 45.0521 21.8293 45.1167 22.2451C45.3437 23.7048 45.5709 25.6418 45.798 27.9232C46.0953 30.9118 46.3886 34.4807 46.6816 38.1427C46.7316 38.7679 46.7816 39.3958 46.8316 40.024C47.172 44.3873 47.5506 48.7771 47.8941 52.3537C48.2285 55.8858 48.5848 58.7938 48.9722 60.3795C49.0706 60.7815 49.2017 61.2296 49.3894 61.6216C49.4832 61.8176 49.6347 62.0935 49.8683 62.3474C50.1064 62.6063 50.5259 62.9421 51.116 62.9912C51.7316 63.0422 52.1921 62.7804 52.5121 62.4795C52.8314 62.179 53.0133 61.8376 53.0722 61.7232C53.278 61.3239 53.4137 60.8683 53.5113 60.4795L53.5847 60.174C53.9479 58.5693 54.2705 55.8365 54.5777 52.574C54.8059 50.1846 55.0011 47.3651 55.2019 44.4623L55.2032 44.4431L55.2033 44.4418L55.2403 43.9071C55.3268 42.6582 55.4148 41.398 55.5074 40.1537C55.5388 39.5126 55.5679 38.746 55.6035 38.1138C55.7086 36.2462 55.8283 34.4195 55.9425 32.6779V32.6763C56.0425 31.1517 56.1381 29.6916 56.216 28.3256C56.2326 28.0253 56.2485 27.73 56.2636 27.4404C56.2987 26.7548 56.3451 25.8034 56.3746 25.1881C56.452 23.5685 56.5169 22.2115 56.6066 21.2107C56.6335 20.91 56.6625 20.6416 56.6949 20.4084C56.705 20.3333 56.7159 20.2614 56.7269 20.1935L56.7277 20.1888L56.7675 19.9677C56.8091 19.761 56.8551 19.5983 56.9027 19.4787C56.9344 19.399 56.9666 19.3401 56.9972 19.3006C57.0282 19.2607 57.0543 19.245 57.0738 19.2412C57.0909 19.2379 57.112 19.242 57.1386 19.2662C57.1661 19.2913 57.1965 19.3347 57.2269 19.3998C57.2874 19.5296 57.3439 19.7341 57.391 20.0138L57.4316 20.2732L57.4714 20.5701L57.4722 20.574C57.4963 20.7685 57.5194 20.984 57.5425 21.2185C57.6753 22.5651 57.7948 24.5521 57.9417 26.9966C58.1193 30.072 58.3227 34.2531 58.5042 38.1131L58.5095 38.2251L58.5186 38.4177C58.5243 38.5367 58.5299 38.6557 58.5355 38.7748L58.5808 40.0224C58.7593 43.9563 58.9382 47.8939 59.1175 51.2295V51.2326C59.3198 54.8969 59.5219 57.904 59.7316 59.631C59.7846 60.068 59.843 60.4684 59.9113 60.8052C59.9453 60.9733 59.9883 61.1588 60.0441 61.3412C60.091 61.4945 60.1877 61.7835 60.3683 62.0716C60.5078 62.2942 61.0574 63.0781 62.0363 62.9912C62.9376 62.9111 63.387 62.1452 63.4871 61.967C63.7415 61.5134 63.847 60.9796 63.8941 60.7349C64.1298 59.5106 64.334 56.9417 64.5285 53.6974C64.6281 52.0345 64.6704 50.146 64.7121 48.1318L64.7192 47.7848L64.7192 47.7842C64.7586 45.8717 64.8002 43.8518 64.8933 41.8076C64.9199 41.2243 64.9465 40.639 64.973 40.0537C64.9981 39.4372 65.0401 38.7897 65.0652 38.1763C65.1987 34.9109 65.3325 31.7216 65.466 28.9513L65.4728 28.8121L65.4729 28.8102L65.4731 28.8066C65.493 28.4043 65.5125 28.011 65.5324 27.6279C65.5499 27.2907 65.5673 26.9609 65.5847 26.6396C65.7073 24.3816 65.8282 22.528 65.9488 21.2482C65.9665 21.0601 65.9842 20.8844 66.0019 20.7216C66.0362 20.4061 66.0708 20.1394 66.105 19.9224C66.1407 19.6966 66.1764 19.525 66.2113 19.4084C66.2287 19.35 66.2455 19.3068 66.2613 19.2779C66.269 19.2638 66.276 19.2544 66.2816 19.2482C66.2839 19.2457 66.2861 19.244 66.2876 19.2429L66.2878 19.2427C66.2896 19.244 66.2932 19.2457 66.2972 19.2506C66.3102 19.2661 66.326 19.2955 66.3433 19.3427C66.3776 19.4362 66.4123 19.5853 66.448 19.792C66.4936 20.056 66.5397 20.4111 66.5855 20.8498C66.5987 20.9767 66.6121 21.1106 66.6253 21.2513C66.7435 22.5053 66.8617 24.2976 66.98 26.499C66.9997 26.865 67.0191 27.2422 67.0386 27.6295C67.1932 30.6883 67.3451 34.3758 67.5003 38.1763L67.5753 40.0224C67.7354 43.9564 67.9115 47.8933 68.0722 51.2287V51.2326L68.2081 53.8482C68.3443 56.3207 68.4813 58.336 68.6222 59.631C68.6698 60.0679 68.7228 60.4678 68.7839 60.8045C68.8144 60.9724 68.8528 61.1575 68.9027 61.3396C68.9447 61.4927 69.0308 61.7822 69.1925 62.0701C69.2558 62.1827 69.4108 62.4336 69.6589 62.6459C69.9076 62.8586 70.2525 63.0341 70.6941 62.9904C71.1011 62.9501 71.4057 62.7372 71.6183 62.5138C71.8304 62.291 71.9533 62.0557 71.9988 61.9654C72.2267 61.5122 72.3214 60.9787 72.3636 60.7341C72.5749 59.5101 72.758 56.9411 72.9324 53.6966C73.1109 50.3728 73.1998 45.808 73.3769 41.4716C73.4005 40.8927 73.4223 40.5708 73.4458 40.0023H73.4473C73.4723 39.3858 73.5125 38.7697 73.5376 38.1563Z" fill="white"/>
<path d="M75.1847 21.229C75.303 22.4839 75.4212 24.2768 75.5395 26.4783C75.5592 26.8445 75.5788 27.2218 75.5984 27.6092C75.753 30.6683 75.9047 34.3558 76.06 38.1563L76.0672 38.3312C76.0898 38.8869 76.1276 39.4445 76.1503 40.0023C76.1623 40.2991 76.1689 40.5029 76.1754 40.7159C76.1819 40.9303 76.1885 41.1442 76.2006 41.4421C76.2667 43.059 76.3204 44.707 76.3711 46.3104C76.378 46.5303 76.3849 46.7494 76.3918 46.9674L76.3926 46.9945V46.9947C76.4696 49.4423 76.5424 51.7585 76.6449 53.6666C76.6849 54.41 76.7252 55.1177 76.7663 55.7818C77.2887 54.5663 77.7526 53.3196 78.1545 52.0454C78.0058 49.055 77.8595 45.4992 77.71 41.8385C77.6857 41.2428 77.5935 39.1465 77.5693 38.5528C77.3921 34.2145 77.3036 29.6522 77.125 26.3283C77.0983 25.8298 77.0713 25.3474 77.044 24.8834C76.4853 23.5159 75.8532 22.1862 75.1524 20.8993C75.1631 21.0046 75.1739 21.1146 75.1847 21.229Z" fill="white"/>
</g>
<path d="M122.217 47.445C122.217 53.032 116.775 57.5593 107.768 57.5593C98.7137 57.5593 91.6818 53.1283 91.2002 46.4817H98.2321C98.9545 49.7087 102.759 51.7797 107.672 51.7797C112.248 51.7797 115.475 49.8532 115.475 47.2524C115.475 39.2091 91.6337 47.3969 91.6337 31.9845C91.6337 26.0604 97.8949 22.4 106.179 22.4C114.945 22.4 121.11 26.5902 121.64 32.707H114.656C114.078 30.1062 110.514 27.987 106.179 27.987C101.459 27.987 98.3766 29.769 98.3766 32.1772C98.3766 39.6425 122.217 31.84 122.217 47.445Z" fill="black"/>
<path d="M133.771 43.0621V56.8369H127.029V23.1225H133.771V36.8972H137.625L150.773 23.1225H159.924L143.934 39.9797L161.176 56.8369H151.785L137.48 43.0621H133.771Z" fill="black"/>
<path d="M175.936 43.8328L160.427 23.1225H168.904L179.307 36.9935L189.71 23.1225H198.187L182.678 43.8328V56.8369H175.936V43.8328Z" fill="black"/>
<path d="M212.058 43.8328L196.55 23.1225H205.026L215.43 36.9935L225.833 23.1225H234.31L218.801 43.8328V56.8369H212.058V43.8328Z" fill="black"/>
<path d="M228.815 56.8369L245.721 23.1225H253.234L270.236 56.8369H262.722L258.725 48.8899H240.278L236.281 56.8369H228.815ZM243.361 42.725H255.594L249.477 30.5878L243.361 42.725Z" fill="black"/>
<path d="M295.866 56.8369L288.401 47.0115H279.25V56.8369H272.507V23.1225H289.846C297.07 23.1225 303.042 27.8906 303.042 35.067C303.042 39.787 299.96 43.7364 295.77 45.7111L304.247 56.8369H295.866ZM296.3 35.067C296.3 31.7437 293.602 29.3355 289.846 29.3355H279.25V40.7021H289.846C293.554 40.7021 296.3 38.2458 296.3 35.067Z" fill="black"/>
</g>
<defs>
<clipPath id="clip0_262_144">
<rect width="304" height="80" fill="white"/>
</clipPath>
<clipPath id="clip1_262_144">
<rect width="80" height="80" fill="white"/>
</clipPath>
</defs>
</svg>
