<svg width="284" height="80" viewBox="0 0 284 80" fill="none" xmlns="http://www.w3.org/2000/svg">
<g clip-path="url(#clip0_155_2855)">
<path d="M80 40C80 62.0914 62.0914 80 40 80C17.9086 80 0 62.0914 0 40C0 17.9086 17.9086 0 40 0C62.0914 0 80 17.9086 80 40Z" fill="#377DFF"/>
<path d="M73.5381 38.1551C73.6716 34.8896 73.8051 31.7 73.9386 28.9295C73.961 28.4765 73.9834 28.0349 74.0056 27.6059C74.0232 27.2685 74.0406 26.9388 74.0581 26.6173C74.1807 24.3592 74.3016 22.5056 74.4222 21.2249C74.44 21.0364 74.4577 20.8603 74.4755 20.6972C74.5099 20.381 74.5443 20.1137 74.5787 19.8957L74.5807 19.883C74.215 19.2556 73.8326 18.639 73.4342 18.0339C73.2962 18.2964 73.2201 18.5521 73.1814 18.6932C73.1319 18.8738 73.0937 19.0574 73.0633 19.2247C73.0024 19.56 72.9498 19.9589 72.9023 20.3955C72.7145 22.1208 72.5338 25.1264 72.3525 28.7912L72.3523 28.7948C72.1916 32.1301 72.0159 36.0671 71.8559 40.001H71.8572C71.8463 40.2764 71.8446 40.5786 71.8297 40.8532L71.824 40.9581L71.824 40.9591L71.8141 41.1411C71.8043 41.3236 71.795 41.5061 71.7875 41.6884L71.7805 41.8633C71.6253 45.6639 71.4733 49.3514 71.3188 52.4102C71.2992 52.7975 71.2799 53.1746 71.2602 53.5407C71.1419 55.742 71.0237 57.5344 70.9055 58.7883C70.8923 58.929 70.8789 59.063 70.8657 59.1899C70.8199 59.6285 70.7746 59.9837 70.7289 60.2477C70.6933 60.4544 70.6578 60.6034 70.6235 60.6969C70.6061 60.7441 70.5904 60.7736 70.5774 60.7891C70.5734 60.7939 70.5698 60.7956 70.568 60.7969L70.5673 60.7964C70.5673 60.7964 70.5644 60.7942 70.5625 60.7923C70.5568 60.7861 70.5493 60.7762 70.5414 60.7618C70.5257 60.7328 70.5089 60.6897 70.4914 60.6313C70.4565 60.5147 70.4208 60.3438 70.3852 60.118C70.3509 59.9011 70.3172 59.6344 70.2829 59.3188C70.2651 59.1559 70.2467 58.9798 70.2289 58.7915C70.1084 57.5117 69.9882 55.6588 69.8657 53.4008L69.8551 53.2063C69.841 52.9468 69.8265 52.6821 69.8125 52.4126C69.7928 52.033 69.7735 51.6433 69.7538 51.2448L69.7532 51.2322L69.7529 51.2254L69.7461 51.0891C69.6126 48.3188 69.4789 45.1288 69.3454 41.8633C69.3333 41.5689 69.3177 41.2738 69.302 40.9787L69.3 40.9415L69.2986 40.9135C69.2827 40.615 69.2669 40.3159 69.2547 40.0173L69.1821 38.2321C69.0049 33.894 68.8318 29.6672 68.6532 26.343C68.4788 23.0983 68.2957 20.5295 68.0844 19.3055C68.0422 19.061 67.9475 18.5282 67.7196 18.0751C67.6743 17.985 67.5516 17.7491 67.3391 17.5258C67.1265 17.3025 66.8219 17.0896 66.4149 17.0493C65.9732 17.0056 65.6276 17.181 65.3789 17.3938C65.1309 17.6061 64.9766 17.8569 64.9133 17.9696C64.7515 18.2576 64.6655 18.5469 64.6235 18.7001C64.5735 18.8823 64.5352 19.0673 64.5047 19.2352C64.4436 19.572 64.3906 19.9724 64.343 20.4094C64.1551 22.1362 63.9743 25.1429 63.793 28.8071V28.811C63.6323 32.1464 63.4718 36.0835 63.3118 40.0173C63.2991 40.2968 63.2928 40.5763 63.2868 40.8548C63.2807 41.1334 63.2744 41.4111 63.2618 41.6884L63.2539 41.8633C63.0808 45.6639 62.9115 49.3514 62.7391 52.4102C62.7173 52.7975 62.6954 53.1747 62.6735 53.5407C62.5416 55.7421 62.41 57.5345 62.2782 58.7883C62.2634 58.929 62.2484 59.063 62.2336 59.1899C62.1825 59.6284 62.1313 59.9831 62.0805 60.2469C62.0408 60.4536 62.0015 60.6022 61.9633 60.6954C61.944 60.7424 61.9263 60.7719 61.9118 60.7876C61.905 60.7947 61.9006 60.7976 61.8985 60.7985H61.8961C61.8923 60.7973 61.8799 60.7901 61.8618 60.7602C61.8442 60.7314 61.825 60.6881 61.8055 60.6298C61.7667 60.5134 61.7273 60.3427 61.6875 60.1173C61.6493 59.9003 61.611 59.6337 61.5727 59.318C61.5529 59.1552 61.5331 58.979 61.5133 58.7907C61.3788 57.511 61.2445 55.658 61.1078 53.4001C61.0884 53.0787 61.0688 52.749 61.0493 52.4118C61.0244 51.9828 60.9993 51.5413 60.9743 51.0883C60.8254 48.3181 60.6763 45.1287 60.5274 41.8633C60.5144 41.579 60.5076 41.2938 60.5008 41.008L60.4993 40.9423C60.4919 40.6346 60.4844 40.326 60.4703 40.0173L60.4071 38.6415C60.2093 34.434 60.0146 30.3062 59.8204 26.9891L59.8118 26.8407C59.8064 26.751 59.8007 26.6615 59.7953 26.5727L59.7951 26.5693C59.6085 23.4609 59.4542 20.8924 59.2289 19.5821C59.1652 19.2043 59.0558 18.7101 58.8336 18.2665C58.7242 18.0478 58.5036 17.6705 58.1118 17.3868C57.6446 17.0487 57.0257 16.9204 56.4149 17.1829C55.9024 17.4032 55.6003 17.812 55.4563 18.0438C55.2984 18.298 55.1964 18.556 55.1289 18.7563C54.9935 19.1583 54.9059 19.6113 54.8453 20.0587C54.6888 21.1902 54.6 23.0473 54.4954 25.2334L54.4953 25.2344V25.2368L54.3461 28.1798C54.2709 29.4989 54.1769 30.9419 54.0774 32.461L54.0753 32.4934L54.0752 32.4944C53.919 34.8775 53.7507 37.4467 53.6258 40.0173C53.6256 40.021 53.6259 40.0246 53.6266 40.0282C53.5811 40.6404 53.5371 41.2536 53.4938 41.8649C53.4352 42.6919 53.3782 43.5156 53.3219 44.3298L53.3169 44.4027C53.1194 47.2588 52.9303 49.9937 52.7071 52.3305C52.512 54.4023 52.3164 56.1798 52.1203 57.5626C52.0494 58.0632 51.9783 58.5119 51.9071 58.904C51.8749 59.0811 51.8432 59.2474 51.811 59.4008C51.7761 59.5671 51.7404 59.719 51.7055 59.8563C51.6227 60.187 51.5407 60.4306 51.4594 60.5883C51.4187 60.6672 51.3796 60.7224 51.343 60.7563C51.3068 60.7899 51.276 60.7999 51.25 60.7977C51.2231 60.7955 51.1905 60.779 51.1524 60.7376C51.1144 60.6963 51.0741 60.6338 51.0328 60.5477C50.9505 60.3758 50.867 60.1188 50.7828 59.7751C50.7608 59.6848 50.7386 59.5886 50.7164 59.4868C50.716 59.4846 50.7161 59.4826 50.7157 59.4805L50.6016 58.9071C50.5297 58.5151 50.4574 58.0663 50.3852 57.5657C50.1785 56.1332 49.9717 54.2761 49.7664 52.1087C49.4787 49.1127 49.1902 45.5351 48.9024 41.8641C48.8542 41.25 48.806 40.6328 48.7578 40.0157C48.7577 40.014 48.7566 40.0126 48.7563 40.011L48.7557 40.0035C48.4086 35.6426 48.0591 31.2502 47.7032 27.6727C47.3522 24.1473 46.9835 21.2295 46.5743 19.6391C46.4704 19.2356 46.3313 18.7832 46.1313 18.3876C46.0155 18.1585 45.4863 17.1292 44.3625 17.0477C43.7564 17.0038 43.297 17.2504 42.9735 17.5383C42.6506 17.8258 42.4616 18.1558 42.3922 18.2821C42.1722 18.6827 42.025 19.1415 41.9188 19.5337C41.5502 20.8949 41.216 23.2764 40.9 26.1907L40.7657 27.4719C40.4028 31.0505 40.0355 35.4674 39.6758 39.829L39.6602 40.0157C39.6594 40.0247 39.6627 40.033 39.6672 40.0407L39.65 40.254L39.6493 40.2626L39.5525 41.4498L39.5219 41.8243C39.2288 45.4172 38.9356 48.9421 38.6383 51.9126C38.3927 54.394 38.1448 56.4798 37.8961 58.0024C37.8411 58.3396 37.7856 58.649 37.7305 58.929C37.6939 59.1153 37.6577 59.2889 37.6211 59.4485C37.6206 59.4509 37.6194 59.4529 37.6188 59.4555C37.5989 59.5418 37.5792 59.6243 37.5594 59.7024C37.4693 60.0577 37.38 60.3264 37.2914 60.5094C37.2472 60.6009 37.2034 60.6688 37.1618 60.7157C37.12 60.7627 37.0831 60.7853 37.0508 60.7915C37.0201 60.7973 36.9865 60.7901 36.9485 60.7618C36.9095 60.7327 36.8675 60.6826 36.8235 60.6087C36.7353 60.4606 36.6446 60.2266 36.5532 59.904C36.5011 59.7175 36.4494 59.5019 36.3969 59.2594C36.3744 59.1555 36.3515 59.0467 36.3289 58.9329C36.2734 58.6521 36.2176 58.3414 36.1618 58.0032C35.9286 56.59 35.6941 54.6922 35.4594 52.4384C35.1394 49.3769 34.8159 45.6705 34.4914 41.8243L34.4819 41.7115L34.4817 41.7092L34.4813 41.7042C34.4371 41.1804 34.3926 40.6532 34.3485 40.1259L34.3368 40.0149L34.336 40.0102C34.3177 39.8365 34.2996 39.6625 34.2813 39.4883L33.9555 36.4087C33.6285 33.3402 33.2973 30.3442 32.9625 27.786C32.4934 24.2122 31.9938 21.1839 31.4235 19.5016C31.2755 19.0652 31.0797 18.5852 30.8078 18.1735C30.5628 17.8023 30.0187 17.1322 29.1274 17.0508C28.1785 16.9643 27.5375 17.5974 27.2352 17.9969C26.9244 18.4077 26.7101 18.8955 26.5555 19.3165L26.5532 19.3235C25.965 20.9399 25.4416 23.9149 24.9524 27.4438C24.7017 29.2528 24.3268 32.3958 24.0149 35.086C23.8589 36.4312 23.7185 37.6636 23.6172 38.5594C23.5761 38.9228 23.5416 39.2308 23.515 39.4686L23.4977 39.6227C23.4836 39.7487 23.4723 39.8469 23.4649 39.9134C23.4612 39.9462 23.4582 39.9713 23.4563 39.9883L23.4539 40.0079C23.4537 40.0098 23.4539 40.0126 23.4539 40.0126L23.4532 40.0141C23.3878 40.5969 23.3226 41.1801 23.2571 41.7602C22.8375 45.4768 22.4148 49.0998 21.9922 52.1259C21.4878 55.7344 20.9736 58.4746 20.461 59.8258C20.333 60.1632 20.2059 60.4104 20.0805 60.5704C19.9545 60.7312 19.837 60.7957 19.7282 60.7883C19.6178 60.7808 19.4976 60.6987 19.3688 60.5196C19.2408 60.3417 19.1101 60.0765 18.9782 59.7219C18.4551 58.3025 17.926 55.505 17.3907 51.8438C16.957 48.8795 16.5198 45.3651 16.0766 41.7594L15.8703 40.0141C15.8688 39.9998 15.8667 39.9855 15.8649 39.9712L15.8133 39.5555C15.2663 35.1134 14.7078 30.6509 14.136 27.0579C13.85 25.2634 13.5586 23.6604 13.2594 22.3298C12.9692 21.0387 12.6411 19.8582 12.2453 18.9985L12.2446 18.9969C12.0479 18.5705 11.7634 18.0641 11.3461 17.6719C10.8822 17.236 10.1842 16.8932 9.37035 17.1087C8.6545 17.2982 8.18355 17.8392 7.91488 18.2298C7.63095 18.6425 7.40929 19.1258 7.22972 19.5985C6.53733 21.4069 5.91061 24.5667 5.31253 28.2555L5.31175 28.2587C4.783 31.5462 4.24737 35.4425 3.71253 39.3337L3.71175 39.3368C3.71132 39.3395 3.71103 39.344 3.71019 39.3493L3.70316 39.3938C3.69716 39.432 3.6883 39.4855 3.67894 39.5462C3.66383 39.6441 3.64692 39.7618 3.63207 39.8657C3.62858 39.8896 3.62442 39.9136 3.62113 39.9376C3.483 40.9424 3.38877 41.5637 3.31644 42.1259C2.86839 45.6079 2.33373 49.2236 1.87256 52.1308C1.95855 52.4013 2.04735 52.6706 2.13891 52.9386C2.44982 53.8487 2.79263 54.7439 3.16599 55.6231C3.1868 55.6721 3.20771 55.7211 3.22871 55.77C3.36424 55.0491 3.49819 54.2821 3.63128 53.4766C4.22427 49.8836 4.88271 44.9259 5.45003 40.4837L5.50316 40.068C5.50497 40.054 5.50707 40.0399 5.50863 40.0259L5.55785 39.6962L5.76644 38.1798C6.23217 34.7996 6.69409 31.5013 7.15003 28.6665C7.7552 24.9339 8.3491 22.0292 8.93675 20.4962C9.08225 20.1127 9.22721 19.8175 9.37035 19.6094C9.51423 19.4003 9.65251 19.2854 9.78285 19.2508C9.90913 19.2175 10.0392 19.2569 10.1766 19.386C10.3152 19.5163 10.4567 19.7339 10.5993 20.043C10.8842 20.662 11.1678 21.6312 11.4508 22.8899C11.7337 24.1481 12.0151 25.6934 12.2969 27.4618C12.7889 30.5534 13.2733 34.3128 13.7532 38.1798L13.7647 38.2726L13.7894 38.472C13.8472 38.9373 13.905 39.4043 13.9625 39.8712L13.9821 40.0251L14.4821 44.0868C14.8374 46.9512 15.1918 49.7175 15.5438 52.1321L15.5555 52.2196L15.5563 52.2212C16.0846 55.8348 16.6436 58.9013 17.2719 60.6063L17.275 60.6133L17.4086 60.9524C17.5531 61.2954 17.7302 61.6448 17.9516 61.9524C18.2312 62.341 18.7831 62.9359 19.6235 62.9923C20.5034 63.0511 21.1206 62.4872 21.4453 62.0727C21.769 61.6596 21.9949 61.1649 22.1594 60.7313C22.788 59.0744 23.3324 56.0445 23.8297 52.4868C24.3346 48.8712 24.8371 44.4271 25.3305 40.0243C25.3655 39.7148 25.4037 39.4054 25.4414 39.0962C25.4792 38.7869 25.5165 38.4773 25.5516 38.1688C25.9748 34.4445 26.3977 30.8162 26.8164 27.7938C27.2272 24.8312 27.6374 22.4659 28.0414 20.9844L28.0464 20.9662L28.0618 20.9102C28.1388 20.6334 28.216 20.3894 28.2922 20.1798C28.4144 19.847 28.5349 19.6039 28.6532 19.4477C28.7722 19.2904 28.8812 19.2309 28.9797 19.2399C29.0803 19.2492 29.1914 19.3312 29.3102 19.511C29.4279 19.6893 29.5468 19.9544 29.6664 20.3071C29.7277 20.4879 29.7895 20.6915 29.8508 20.9165C29.8574 20.9407 29.8638 20.9652 29.8703 20.9899C30.2805 22.5261 30.6885 25.0121 31.0961 28.118C31.4809 31.0578 31.8619 34.5892 32.2399 38.1688L32.3586 39.2962L32.4125 39.8087L32.4289 39.9657L32.4336 40.0087C32.4341 40.0136 32.4349 40.0179 32.4352 40.0204V40.0243L32.4727 40.354C32.8437 44.7847 33.2323 49.1737 33.6016 52.7071C33.9636 56.183 34.3476 59.0584 34.7758 60.5915L34.7782 60.6001C34.8879 60.9873 35.0457 61.4611 35.2899 61.8712C35.3841 62.0294 35.602 62.3576 35.9438 62.6188C36.2866 62.8808 36.7562 63.0762 37.3485 62.9641C38.3344 62.7775 38.7974 61.847 38.918 61.5977C39.1097 61.2015 39.2473 60.7485 39.3532 60.3313C39.7683 58.6945 40.1438 55.7364 40.4969 52.1688C40.8398 48.7418 41.1778 44.5909 41.5125 40.4751L41.5461 40.061C41.5669 40.0591 41.5842 40.0439 41.586 40.0227C41.6374 39.3987 41.689 38.7741 41.7407 38.1516C42.0501 34.4221 42.3621 30.7657 42.6703 27.7258C42.8943 25.5261 43.1184 23.6581 43.3422 22.2407C43.4079 21.8248 43.4735 21.4476 43.5391 21.1126C43.5702 20.9536 43.601 20.8038 43.6321 20.6641C43.6711 20.4886 43.7103 20.3284 43.7493 20.1844C43.8389 19.8533 43.928 19.6099 44.0149 19.4516C44.0583 19.3725 44.0999 19.3165 44.1391 19.2821C44.1779 19.2481 44.212 19.237 44.2414 19.2391C44.2715 19.2414 44.3068 19.2582 44.3469 19.2993C44.387 19.3404 44.4286 19.4028 44.4719 19.4883C44.5586 19.6598 44.6468 19.9166 44.7352 20.2602C44.7621 20.3646 44.7888 20.4771 44.8157 20.5969C44.8515 20.7566 44.8876 20.9296 44.9235 21.1157C44.9881 21.4507 45.0526 21.828 45.1172 22.2438C45.3442 23.7035 45.5714 25.6406 45.7985 27.9219C46.0958 30.9106 46.3891 34.4794 46.6821 38.1415C46.7321 38.7667 46.7821 39.3945 46.8321 40.0227C47.1725 44.386 47.5511 48.7759 47.8946 52.3524C48.229 55.8845 48.5853 58.7925 48.9727 60.3782C49.0711 60.7802 49.2021 61.2283 49.3899 61.6204C49.4837 61.8163 49.6352 62.0922 49.8688 62.3462C50.1069 62.605 50.5264 62.9409 51.1164 62.9899C51.732 63.041 52.1926 62.7791 52.5125 62.4782C52.8319 62.1777 53.0137 61.8363 53.0727 61.7219C53.2785 61.3227 53.4142 60.867 53.5118 60.4782L53.5852 60.1727C53.9483 58.568 54.271 55.8353 54.5782 52.5727C54.8064 50.1833 55.0016 47.3638 55.2024 44.461L55.2037 44.4418L55.2038 44.4405L55.2408 43.9058C55.3273 42.657 55.4152 41.3967 55.5079 40.1524C55.5095 40.1298 55.5107 40.1071 55.5118 40.0844L55.5149 40.0212C55.5464 39.3801 55.5684 38.7447 55.6039 38.1126C55.709 36.2449 55.8288 34.4182 55.943 32.6766V32.6751C56.043 31.1505 56.1385 29.6904 56.2164 28.3243C56.2331 28.0241 56.249 27.7287 56.2641 27.4391C56.2992 26.7535 56.3456 25.8021 56.375 25.1868C56.4524 23.5673 56.5174 22.2102 56.6071 21.2094C56.634 20.9087 56.663 20.6404 56.6954 20.4071C56.7055 20.332 56.7164 20.2602 56.7274 20.1923L56.7282 20.1876L56.768 19.9665C56.8096 19.7598 56.8555 19.597 56.9032 19.4774C56.9349 19.3977 56.967 19.3389 56.9977 19.2993C57.0286 19.2594 57.0548 19.2437 57.0743 19.2399C57.0914 19.2366 57.1125 19.2408 57.1391 19.2649C57.1666 19.29 57.197 19.3334 57.2274 19.3985C57.2879 19.5283 57.3444 19.7328 57.3914 20.0126L57.4321 20.2719L57.4719 20.5688L57.4727 20.5727C57.4968 20.7673 57.5199 20.9827 57.543 21.2173C57.6757 22.5639 57.7953 24.5508 57.9422 26.9954L57.9508 27.1399L57.968 27.4337C58.1456 30.509 58.3232 34.2518 58.5047 38.1118L58.536 38.7735L58.5922 39.9899C58.5846 39.9984 58.5808 40.0097 58.5813 40.0212C58.7598 43.9551 58.9387 47.8927 59.118 51.2282V51.2313C59.3203 54.8957 59.5224 57.9028 59.7321 59.6298C59.7851 60.0667 59.8435 60.4672 59.9118 60.804C59.9458 60.972 59.9888 61.1575 60.0446 61.3399C60.0914 61.4932 60.1882 61.7823 60.3688 62.0704C60.5083 62.2929 61.0579 63.0768 62.0368 62.9899C62.9381 62.9098 63.3875 62.144 63.4875 61.9657C63.742 61.5121 63.8475 60.9783 63.8946 60.7337C64.1303 59.5093 64.3345 56.9404 64.5289 53.6962C64.6286 52.0333 64.6709 50.1447 64.7125 48.1305C64.7542 46.116 64.795 43.9748 64.8938 41.8063L64.9735 40.0524C64.9829 40.0448 64.9901 40.0342 64.9907 40.0212C65.0157 39.4047 65.0406 38.7885 65.0657 38.1751C65.1992 34.9097 65.333 31.7203 65.4664 28.9501L65.4733 28.8108L65.4734 28.8089L65.4736 28.8054C65.4935 28.403 65.513 28.0098 65.5328 27.6266C65.5504 27.2894 65.5678 26.9597 65.5852 26.6383C65.7078 24.3803 65.8287 22.5267 65.9493 21.2469C65.967 21.0588 65.9847 20.8831 66.0024 20.7204C66.0367 20.4048 66.0713 20.1382 66.1055 19.9212C66.1412 19.6954 66.1768 19.5238 66.2118 19.4071C66.2292 19.3488 66.246 19.3056 66.2618 19.2766C66.2694 19.2626 66.2765 19.2531 66.2821 19.2469C66.2845 19.2443 66.2869 19.2425 66.2883 19.2415C66.2901 19.2428 66.2937 19.2445 66.2977 19.2493C66.3107 19.2648 66.3264 19.2942 66.3438 19.3415C66.3781 19.435 66.4128 19.584 66.4485 19.7907C66.4941 20.0547 66.5402 20.4099 66.586 20.8485C66.5992 20.9754 66.6126 21.1094 66.6258 21.2501C66.744 22.5041 66.8622 24.2963 66.9805 26.4977C67.0002 26.8638 67.0195 27.2409 67.0391 27.6282C67.1936 30.687 67.3456 34.3745 67.5008 38.1751L67.5079 38.3501L67.5758 40.0212C67.7358 43.9551 67.912 47.8921 68.0727 51.2274V51.2313L68.2086 53.8469C68.3448 56.3195 68.4817 58.3347 68.6227 59.6298C68.6702 60.0667 68.7233 60.4666 68.7844 60.8032C68.8149 60.9711 68.8532 61.1562 68.9032 61.3383C68.9451 61.4915 69.0313 61.7809 69.193 62.0688C69.2563 62.1815 69.4113 62.4323 69.6594 62.6446C69.9081 62.8573 70.253 63.0328 70.6946 62.9891C71.1016 62.9488 71.4062 62.7359 71.6188 62.5126C71.8309 62.2897 71.9538 62.0545 71.9993 61.9641C72.2272 61.5109 72.3219 60.9774 72.3641 60.7329C72.5754 59.5088 72.7585 56.9399 72.9329 53.6954C73.1114 50.3715 73.2003 45.8068 73.3774 41.4704C73.401 40.8914 73.4228 40.5695 73.4463 40.001H73.4477C73.4728 39.3845 73.513 38.7685 73.5381 38.1551Z" fill="white"/>
<path d="M75.1852 21.2277C75.3035 22.4826 75.4217 24.2755 75.54 26.4771C75.5597 26.8433 75.5793 27.2206 75.5989 27.608C75.7534 30.6671 75.9052 34.3545 76.0605 38.1551L76.0676 38.33C76.0903 38.8857 76.1281 39.4432 76.1507 40.001C76.1628 40.2979 76.1694 40.5016 76.1759 40.7146C76.1824 40.929 76.189 41.1429 76.2011 41.4408C76.2766 43.2887 76.336 45.1773 76.3931 46.9934C76.4701 49.4411 76.5429 51.7572 76.6454 53.6653C76.6853 54.4087 76.7257 55.1165 76.7668 55.7806C77.2892 54.565 77.7531 53.3183 78.155 52.0441C78.0063 49.0537 77.86 45.4979 77.7104 41.8373L77.7033 41.6624C77.6934 41.4204 77.6807 41.178 77.6676 40.9354L77.6619 40.8319L77.6619 40.831L77.6566 40.7337C77.6432 40.4882 77.6302 40.2485 77.6201 40.001C77.5959 39.4053 77.594 39.1452 77.5698 38.5515C77.3926 34.2132 77.3041 29.6509 77.1255 26.327C77.0987 25.8286 77.0717 25.3461 77.0445 24.8821C76.4858 23.5146 75.8536 22.1849 75.1528 20.898C75.1636 21.0034 75.1744 21.1133 75.1852 21.2277Z" fill="white"/>
<path d="M118.941 39.0741C118.941 44.1155 114.03 48.2007 105.903 48.2007C97.7328 48.2007 91.3877 44.2024 90.9531 38.2049H97.2982C97.9501 41.1167 101.383 42.9855 105.816 42.9855C109.945 42.9855 112.857 41.2471 112.857 38.9003C112.857 31.6425 91.3443 39.0307 91.3443 25.1236C91.3443 19.778 96.994 16.4751 104.469 16.4751C112.379 16.4751 117.942 20.2561 118.42 25.7755H112.118C111.596 23.4286 108.38 21.5164 104.469 21.5164C100.21 21.5164 97.4286 23.1244 97.4286 25.2974C97.4286 32.0337 118.941 24.9932 118.941 39.0741Z" fill="black"/>
<path d="M129.367 35.1193V47.5488H123.282V17.127H129.367V29.5565H132.844L144.708 17.127H152.965L138.537 32.3379L154.095 47.5488H145.621L132.713 35.1193H129.367Z" fill="black"/>
<path d="M167.413 35.8147L153.419 17.127H161.068L170.455 29.6434L179.842 17.127H187.491L173.497 35.8147V47.5488H167.413V35.8147Z" fill="black"/>
<path d="M200.008 35.8147L186.014 17.127H193.663L203.05 29.6434L212.437 17.127H220.086L206.092 35.8147V47.5488H200.008V35.8147Z" fill="black"/>
<path d="M215.128 47.5488L230.383 17.127H237.162L252.504 47.5488H245.724L242.117 40.3779H225.472L221.865 47.5488H215.128ZM228.253 34.8151H239.292L233.773 23.8632L228.253 34.8151Z" fill="black"/>
<path d="M275.631 47.5488L268.894 38.683H260.637V47.5488H254.553V17.127H270.198C276.717 17.127 282.106 21.4295 282.106 27.905C282.106 32.164 279.325 35.7277 275.544 37.5096L283.193 47.5488H275.631ZM276.022 27.905C276.022 24.9063 273.588 22.7333 270.198 22.7333H260.637V32.9898H270.198C273.545 32.9898 276.022 30.7733 276.022 27.905Z" fill="black"/>
<path d="M90.9531 62.9191V52.9696H94.734C97.5767 52.9696 99.723 55.0874 99.723 57.9301C99.723 60.6734 97.4772 62.9191 94.734 62.9191H90.9531ZM98.5859 57.9301C98.5859 55.6701 96.9513 54.0498 94.734 54.0498H92.0902V61.8389H94.734C96.9086 61.8389 98.5859 60.119 98.5859 57.9301Z" fill="black"/>
<path d="M106.98 55.5991V56.793C104.99 56.793 103.71 58.3707 103.71 60.9008V62.9191H102.573V55.8123H103.554L103.71 58.0723C104.307 56.5372 105.487 55.5991 106.98 55.5991Z" fill="black"/>
<path d="M109.074 59.3799C109.074 57.2052 110.68 55.5991 112.812 55.5991C115.001 55.5991 116.593 57.1342 116.593 59.3799C116.593 61.5972 115.001 63.1323 112.812 63.1323C110.68 63.1323 109.074 61.5262 109.074 59.3799ZM110.211 59.3657C110.211 60.915 111.334 62.0521 112.812 62.0521C114.39 62.0521 115.456 60.9718 115.456 59.3657C115.456 57.7596 114.376 56.6651 112.812 56.6651C111.32 56.6651 110.211 57.8164 110.211 59.3657Z" fill="black"/>
<path d="M120.663 59.4083V62.9191H119.526V55.8123H120.507L120.649 57.2194C121.203 56.2103 122.141 55.5991 123.307 55.5991C125.14 55.5991 126.405 57.1768 126.405 59.4083V62.9191H125.268V59.4083C125.268 57.7596 124.359 56.6651 122.966 56.6651C121.601 56.6651 120.663 57.7738 120.663 59.4083Z" fill="black"/>
<path d="M136.706 59.6926H130.551C130.679 61.1566 131.688 62.2226 133.038 62.2226C134.033 62.2226 134.844 61.711 135.313 60.9008H136.478C135.895 62.2795 134.63 63.1323 133.038 63.1323C130.949 63.1323 129.4 61.5262 129.4 59.3799C129.4 57.2052 130.921 55.5991 133.038 55.5991C135.199 55.5991 136.72 57.1342 136.72 59.3799C136.72 59.4794 136.706 59.5789 136.706 59.6926ZM130.551 59.0388H135.568C135.441 57.5464 134.446 56.5372 133.038 56.5372C131.688 56.5372 130.679 57.5748 130.551 59.0388Z" fill="black"/>
<path d="M144.531 62.9191V52.9696H148.312C151.155 52.9696 153.301 55.0874 153.301 57.9301C153.301 60.6734 151.055 62.9191 148.312 62.9191H144.531ZM152.164 57.9301C152.164 55.6701 150.53 54.0498 148.312 54.0498H145.669V61.8389H148.312C150.487 61.8389 152.164 60.119 152.164 57.9301Z" fill="black"/>
<path d="M163.002 59.6926H156.847C156.975 61.1566 157.985 62.2226 159.335 62.2226C160.33 62.2226 161.14 61.711 161.609 60.9008H162.775C162.192 62.2795 160.927 63.1323 159.335 63.1323C157.245 63.1323 155.696 61.5262 155.696 59.3799C155.696 57.2052 157.217 55.5991 159.335 55.5991C161.495 55.5991 163.016 57.1342 163.016 59.3799C163.016 59.4794 163.002 59.5789 163.002 59.6926ZM156.847 59.0388H161.865C161.737 57.5464 160.742 56.5372 159.335 56.5372C157.985 56.5372 156.975 57.5748 156.847 59.0388Z" fill="black"/>
<path d="M167.8 55.8123H170.032V56.8783H167.8V62.9191H166.663V56.8783H165.142V55.8123H166.663C166.663 53.8508 167.9 52.7563 170.032 52.7563V53.6944C168.568 53.6944 167.8 54.4051 167.8 55.8123Z" fill="black"/>
<path d="M179.705 59.6926H173.55C173.678 61.1566 174.687 62.2226 176.038 62.2226C177.033 62.2226 177.843 61.711 178.312 60.9008H179.477C178.894 62.2795 177.629 63.1323 176.038 63.1323C173.948 63.1323 172.399 61.5262 172.399 59.3799C172.399 57.2052 173.92 55.5991 176.038 55.5991C178.198 55.5991 179.719 57.1342 179.719 59.3799C179.719 59.4794 179.705 59.5789 179.705 59.6926ZM173.55 59.0388H178.568C178.44 57.5464 177.445 56.5372 176.038 56.5372C174.687 56.5372 173.678 57.5748 173.55 59.0388Z" fill="black"/>
<path d="M183.835 59.4083V62.9191H182.698V55.8123H183.679L183.821 57.2194C184.375 56.2103 185.313 55.5991 186.479 55.5991C188.312 55.5991 189.577 57.1768 189.577 59.4083V62.9191H188.44V59.4083C188.44 57.7596 187.531 56.6651 186.138 56.6651C184.773 56.6651 183.835 57.7738 183.835 59.4083Z" fill="black"/>
<path d="M193.709 59.3657C193.709 60.9434 194.803 62.0947 196.296 62.0947C197.475 62.0947 198.414 61.4267 198.783 60.4175H199.963C199.494 62.0521 198.115 63.1323 196.296 63.1323C194.164 63.1323 192.572 61.5262 192.572 59.3799C192.572 57.2052 194.149 55.5991 196.296 55.5991C198.101 55.5991 199.48 56.6651 199.949 58.2997H198.769C198.385 57.3047 197.461 56.6225 196.296 56.6225C194.803 56.6225 193.709 57.8022 193.709 59.3657Z" fill="black"/>
<path d="M209.541 59.6926H203.386C203.514 61.1566 204.523 62.2226 205.873 62.2226C206.868 62.2226 207.679 61.711 208.148 60.9008H209.313C208.73 62.2795 207.465 63.1323 205.873 63.1323C203.784 63.1323 202.235 61.5262 202.235 59.3799C202.235 57.2052 203.756 55.5991 205.873 55.5991C208.034 55.5991 209.555 57.1342 209.555 59.3799C209.555 59.4794 209.541 59.5789 209.541 59.6926ZM203.386 59.0388H208.403C208.276 57.5464 207.281 56.5372 205.873 56.5372C204.523 56.5372 203.514 57.5748 203.386 59.0388Z" fill="black"/>
<path d="M224.928 60.3749C224.928 61.9242 223.407 63.1323 221.133 63.1323C218.802 63.1323 217.025 61.9242 216.855 60.0764H218.034C218.262 61.3414 219.47 62.1374 221.09 62.1374C222.654 62.1374 223.791 61.3698 223.791 60.3322C223.791 57.1199 217.025 59.65 217.025 55.4285C217.025 53.8224 218.674 52.7563 220.863 52.7563C223.009 52.7563 224.615 53.9077 224.829 55.5849H223.663C223.436 54.5046 222.284 53.7371 220.863 53.7371C219.314 53.7371 218.162 54.4478 218.162 55.4712C218.162 58.3423 224.928 55.8834 224.928 60.3749Z" fill="black"/>
<path d="M230.995 65.7192H229.801L230.768 62.9191H228.934L226.518 55.8123H227.684L229.716 61.7394H231.166L233.198 55.8123H234.35L230.995 65.7192Z" fill="black"/>
<path d="M242.139 61.0287C242.139 62.2226 240.988 63.1323 239.339 63.1323C237.534 63.1323 236.269 62.3648 236.098 60.915H237.178C237.335 61.7962 238.074 62.2653 239.353 62.2653C240.32 62.2653 241.059 61.7252 241.059 61.0429C241.059 58.9393 236.326 60.5454 236.326 57.6885C236.326 56.5372 237.449 55.5991 239.097 55.5991C240.846 55.5991 241.954 56.4377 242.068 57.8448H241.016C240.959 57.0631 240.348 56.4519 239.083 56.4519C238.173 56.4519 237.42 56.992 237.42 57.6743C237.42 59.7068 242.139 57.987 242.139 61.0287Z" fill="black"/>
<path d="M247.196 56.8783V59.5931C247.196 61.3272 247.865 62.0521 249.357 62.0521V63.1323C247.026 63.1323 246.059 61.9384 246.059 59.5931V56.8783H244.567V56.395L246.727 54.2204H247.196V55.8123H249.357V56.8783H247.196Z" fill="black"/>
<path d="M259.149 59.6926H252.995C253.122 61.1566 254.132 62.2226 255.482 62.2226C256.477 62.2226 257.287 61.711 257.756 60.9008H258.922C258.339 62.2795 257.074 63.1323 255.482 63.1323C253.393 63.1323 251.843 61.5262 251.843 59.3799C251.843 57.2052 253.364 55.5991 255.482 55.5991C257.642 55.5991 259.163 57.1342 259.163 59.3799C259.163 59.4794 259.149 59.5789 259.149 59.6926ZM252.995 59.0388H258.012C257.884 57.5464 256.889 56.5372 255.482 56.5372C254.132 56.5372 253.122 57.5748 252.995 59.0388Z" fill="black"/>
<path d="M263.279 59.4083V62.9191H262.142V55.8123H263.123L263.265 57.1768C263.791 56.1961 264.686 55.5991 265.767 55.5991C267.032 55.5991 268.012 56.4093 268.453 57.7027C268.922 56.4235 269.946 55.5991 271.196 55.5991C272.93 55.5991 274.153 57.1768 274.153 59.4083V62.9191H273.016V59.4083C273.016 57.7596 272.134 56.6651 270.855 56.6651C269.604 56.6651 268.723 57.7738 268.723 59.4083V62.9191H267.586V59.4083C267.586 57.7596 266.733 56.6651 265.426 56.6651C264.146 56.6651 263.279 57.7738 263.279 59.4083Z" fill="black"/>
<path d="M283.193 61.0287C283.193 62.2226 282.041 63.1323 280.393 63.1323C278.587 63.1323 277.322 62.3648 277.152 60.915H278.232C278.388 61.7962 279.128 62.2653 280.407 62.2653C281.373 62.2653 282.112 61.7252 282.112 61.0429C282.112 58.9393 277.379 60.5454 277.379 57.6885C277.379 56.5372 278.502 55.5991 280.151 55.5991C281.899 55.5991 283.008 56.4377 283.122 57.8448H282.07C282.013 57.0631 281.402 56.4519 280.137 56.4519C279.227 56.4519 278.474 56.992 278.474 57.6743C278.474 59.7068 283.193 57.987 283.193 61.0287Z" fill="black"/>
</g>
<defs>
<clipPath id="clip0_155_2855">
<rect width="284" height="80" fill="white"/>
</clipPath>
</defs>
</svg>
