<svg width="190" height="50" viewBox="0 0 190 50" fill="none" xmlns="http://www.w3.org/2000/svg">
<g clip-path="url(#clip0_262_168)">
<g clip-path="url(#clip1_262_168)">
<path d="M50 25C50 38.8071 38.8071 50 25 50C11.1929 50 0 38.8071 0 25C0 11.1929 11.1929 0 25 0C38.8071 0 50 11.1929 50 25Z" fill="#377DFF"/>
<path fill-rule="evenodd" clip-rule="evenodd" d="M17.5309 13.0963C17.5333 13.0874 17.5357 13.0785 17.5382 13.0697L17.5309 13.0963Z" fill="white"/>
<path fill-rule="evenodd" clip-rule="evenodd" d="M47.7453 29.3717V29.3716C47.7451 29.3659 47.7449 29.3603 47.7447 29.3546C47.7449 29.3603 47.7451 29.366 47.7453 29.3717Z" fill="white"/>
<path d="M45.9609 23.8477C46.0443 21.8068 46.1278 19.8133 46.2112 18.0817C46.2252 17.7986 46.2392 17.5226 46.2531 17.2545C46.2641 17.0436 46.275 16.8375 46.2859 16.6366C46.3625 15.2253 46.438 14.0668 46.5135 13.2663C46.5246 13.1485 46.5356 13.0385 46.5467 12.9365C46.5683 12.7389 46.5898 12.5719 46.6113 12.4356L46.6125 12.4277C46.3839 12.0355 46.1449 11.6502 45.896 11.272C45.8097 11.436 45.7621 11.5959 45.7379 11.6841C45.707 11.7969 45.6831 11.9117 45.6641 12.0162C45.6261 12.2258 45.5932 12.4751 45.5635 12.748C45.4461 13.8263 45.3332 15.7048 45.2199 17.9953L45.2198 17.9976C45.1193 20.0821 45.0095 22.5427 44.9095 25.0014C44.9088 25.0195 44.8653 26.0922 44.8646 26.1102L44.8643 26.1172C44.8637 26.1332 44.863 26.1493 44.8624 26.1654C44.7654 28.5407 44.6704 30.8454 44.5738 32.7572C44.5616 32.9992 44.5495 33.2349 44.5372 33.4637C44.4633 34.8395 44.3894 35.9598 44.3155 36.7435C44.3072 36.8314 44.2989 36.9152 44.2906 36.9945C44.262 37.2686 44.2337 37.4906 44.2052 37.6556C44.1829 37.7848 44.1607 37.8779 44.1392 37.9364C44.1284 37.9659 44.1185 37.9843 44.1104 37.994C44.108 37.997 44.1057 37.9981 44.1046 37.9989L44.1041 37.9985C44.1041 37.9985 44.1023 37.9972 44.1012 37.996C44.0976 37.9921 44.0929 37.9859 44.088 37.9769C44.0781 37.9588 44.0677 37.9319 44.0567 37.8954C44.0349 37.8225 44.0126 37.7156 43.9903 37.5746C43.9689 37.439 43.9478 37.2723 43.9264 37.0751C43.9153 36.9733 43.9038 36.8632 43.8927 36.7455C43.8173 35.9456 43.7422 34.7876 43.6656 33.3763L43.659 33.2547C43.6502 33.0926 43.6412 32.9271 43.6324 32.7586C43.6201 32.5216 43.6081 32.2783 43.5957 32.0295L43.5957 32.0292L43.5957 32.0288L43.5953 32.0209L43.5951 32.0167L43.5909 31.9315C43.5075 30.2 43.4239 28.2063 43.3404 26.1654L43.3094 25.5216L43.3092 25.5166C43.294 25.2041 43.2789 24.8916 43.2779 24.8676C43.2647 24.5433 43.2516 24.219 43.2384 23.8959C43.1276 21.1845 43.0194 18.5428 42.9078 16.4652C42.7988 14.4373 42.6844 12.8317 42.5523 12.0668C42.526 11.9139 42.4667 11.5809 42.3243 11.2977C42.296 11.2414 42.2193 11.094 42.0865 10.9544C41.9536 10.8149 41.7633 10.6818 41.5089 10.6566C41.2328 10.6293 41.0168 10.7389 40.8614 10.8719C40.7064 11.0046 40.61 11.1614 40.5704 11.2318C40.4693 11.4118 40.4155 11.5926 40.3892 11.6883C40.358 11.8022 40.3341 11.9178 40.315 12.0228C40.2768 12.2333 40.2437 12.4835 40.214 12.7567C40.0965 13.8359 39.9835 15.7151 39.8702 18.0052V18.0077C39.7697 20.0923 39.6694 22.553 39.5694 25.0116C39.4612 27.3869 39.3192 30.8454 39.2115 32.7572C39.1979 32.9992 39.1842 33.2349 39.1705 33.4637C39.088 34.8396 39.0058 35.9598 38.9234 36.7435C38.9142 36.8314 38.9048 36.9152 38.8956 36.9945C38.8637 37.2686 38.8317 37.4902 38.7999 37.6551C38.7751 37.7843 38.7505 37.8771 38.7267 37.9354C38.7146 37.9648 38.7035 37.9833 38.6944 37.993C38.6902 37.9975 38.6875 37.9993 38.6861 37.9999H38.6847C38.6823 37.9991 38.6745 37.9946 38.6632 37.9759C38.6522 37.9579 38.6402 37.9309 38.628 37.8944C38.6037 37.8216 38.5791 37.715 38.5543 37.5741C38.5304 37.4385 38.5065 37.2719 38.4825 37.0746C38.4701 36.9728 38.4578 36.8627 38.4454 36.745C38.3614 35.9452 38.2774 34.787 38.192 33.3758C38.1798 33.175 38.1676 32.9689 38.1554 32.7582C38.1398 32.4901 38.1241 32.2141 38.1085 31.931C38.0154 30.1996 37.9223 28.2063 37.8292 26.1654C37.8211 25.9877 37.8168 25.8094 37.8126 25.6308L37.8116 25.5897C37.807 25.3974 37.8023 25.2045 37.7935 25.0116L37.754 24.1517C37.6304 21.522 37.5087 18.9422 37.3873 16.869L37.3819 16.7762C37.3786 16.7202 37.375 16.6643 37.3717 16.6087L37.3715 16.6066C37.2549 14.6638 37.1585 13.0586 37.0177 12.2396C36.9778 12.0035 36.9094 11.6946 36.7706 11.4173C36.7022 11.2807 36.5643 11.0448 36.3194 10.8675C36.0275 10.6562 35.6406 10.5761 35.2589 10.7401C34.9385 10.8778 34.7498 11.1333 34.6598 11.2782C34.5611 11.437 34.4973 11.5983 34.4552 11.7235C34.3705 11.9747 34.3158 12.2579 34.2779 12.5375C34.1801 13.2446 34.1245 14.4053 34.0592 15.7716L34.0592 15.7723V15.7738L33.9659 17.6131C33.9189 18.4376 33.8601 19.3395 33.7979 20.2889L33.7966 20.3092L33.7966 20.3098C33.699 21.7992 33.5938 23.405 33.5157 25.0116C33.4873 25.3942 33.4603 25.7843 33.4332 26.1664C33.3966 26.6832 33.361 27.1981 33.3258 27.7069L33.3226 27.7525C33.1992 29.5375 33.081 31.2468 32.9415 32.7074C32.8196 34.0022 32.6973 35.1132 32.5748 35.9774C32.5304 36.2903 32.486 36.5707 32.4415 36.8158C32.4214 36.9265 32.4016 37.0304 32.3814 37.1263C32.3596 37.2302 32.3373 37.3252 32.3155 37.411C32.2638 37.6177 32.2125 37.7699 32.1617 37.8685C32.1363 37.9178 32.1118 37.9523 32.089 37.9735C32.0663 37.9944 32.0471 38.0007 32.0308 37.9994C32.014 37.998 31.9937 37.9877 31.9698 37.9618C31.9461 37.9359 31.9209 37.8969 31.8951 37.8431C31.8437 37.7357 31.7914 37.575 31.7389 37.3602C31.7251 37.3038 31.7112 37.2436 31.6973 37.18C31.6971 37.1787 31.6971 37.1774 31.6969 37.1761L31.6256 36.8177C31.5806 36.5728 31.5355 36.2922 31.4903 35.9794C31.3612 35.084 31.2319 33.9234 31.1036 32.5687C30.9237 30.6962 30.7434 28.4602 30.5636 26.1659C30.5335 25.782 30.502 25.3887 30.4719 25.003L30.4719 25.0029C30.255 22.2774 30.0365 19.5321 29.814 17.2962C29.5947 15.0929 29.3643 13.2692 29.1085 12.2752C29.0436 12.023 28.9566 11.7403 28.8316 11.493C28.7593 11.3499 28.4285 10.7066 27.7262 10.6556C27.3473 10.6282 27.0602 10.7823 26.858 10.9623C26.6562 11.1419 26.5381 11.3482 26.4947 11.4271C26.3572 11.6775 26.2652 11.9642 26.1988 12.2093C25.9684 13.0601 25.7595 14.5486 25.5621 16.37L25.4781 17.1708C25.2513 19.4074 25.0218 22.1679 24.797 24.8939C24.7874 25.0115 24.7739 25.1934 24.7603 25.3768C24.76 25.3799 24.7598 25.3829 24.7596 25.3859C24.7455 25.5761 24.7313 25.7669 24.7214 25.8886L24.7205 25.8987L24.7199 25.9069L24.7008 26.141C24.5176 28.3865 24.3343 30.5896 24.1485 32.4461C23.995 33.9971 23.8401 35.3006 23.6847 36.2523C23.6502 36.463 23.6156 36.6564 23.5811 36.8314C23.5582 36.9478 23.5357 37.0564 23.5128 37.1561C23.5124 37.1576 23.5117 37.1589 23.5113 37.1605C23.4989 37.2144 23.4866 37.266 23.4742 37.3148C23.4179 37.5368 23.3621 37.7048 23.3067 37.8192C23.2791 37.8764 23.2517 37.9188 23.2257 37.9481C23.1996 37.9775 23.1765 37.9916 23.1563 37.9955C23.1372 37.9991 23.1161 37.9946 23.0924 37.9769C23.068 37.9587 23.0418 37.9274 23.0142 37.8812C22.9591 37.7887 22.9024 37.6424 22.8453 37.4408C22.8127 37.3242 22.7804 37.1895 22.7476 37.0379C22.7336 36.973 22.7192 36.905 22.7052 36.8338C22.6704 36.6584 22.6355 36.4642 22.6007 36.2528C22.4549 35.3695 22.3084 34.1834 22.1617 32.7748C21.9617 30.8613 21.6282 27.0849 21.4254 24.681L21.2218 22.7562C21.0174 20.8384 20.8104 18.9659 20.6012 17.367C20.308 15.1334 19.9957 13.2407 19.6392 12.1893C19.5467 11.9165 19.4244 11.6166 19.2545 11.3592C19.1013 11.1273 18.7612 10.7084 18.2042 10.6576C17.6112 10.6035 17.2105 10.9992 17.0216 11.2489C16.8273 11.5056 16.6934 11.8105 16.5968 12.0736L16.5953 12.078C16.2277 13.0882 15.9006 14.9476 15.5948 17.1532C15.4381 18.2838 15.2038 20.2482 15.0089 21.9295C14.9114 22.7703 14.8237 23.5406 14.7603 24.1004C14.7348 24.3265 14.6521 25.0604 14.6355 25.2087L14.6354 25.2096C14.602 25.5072 14.5687 25.8047 14.5352 26.1009C14.273 28.4238 14.0088 30.6882 13.7447 32.5794C13.4294 34.8348 13.108 36.5474 12.7877 37.3919C12.7077 37.6028 12.6282 37.7573 12.5499 37.8573C12.4711 37.9578 12.3977 37.9981 12.3297 37.9935C12.2607 37.9888 12.1856 37.9375 12.1051 37.8255C12.0251 37.7144 11.9434 37.5486 11.8609 37.327C11.534 36.4398 11.2033 34.6914 10.8687 32.4032C10.5977 30.5505 10.3245 28.354 10.0474 26.1004L9.91854 25.0096C9.91758 25.0007 9.91623 24.9917 9.91512 24.9828L9.8829 24.723C9.54099 21.9467 9.19193 19.1576 8.83456 16.912C8.65585 15.7904 8.47367 14.7886 8.2867 13.9569C8.1053 13.15 7.90029 12.4122 7.65292 11.8749L7.65243 11.8739C7.52949 11.6073 7.35171 11.2909 7.0909 11.0458C6.80094 10.7733 6.36467 10.5591 5.85604 10.6937C5.40863 10.8122 5.11429 11.1503 4.94637 11.3944C4.76891 11.6524 4.63038 11.9544 4.51815 12.2499C4.08541 13.3801 3.6937 15.355 3.31991 17.6605L3.31942 17.6625C2.98895 19.7172 2.65418 22.1523 2.31991 24.5843C2.23358 25.2123 2.11756 25.9781 2.07235 26.3294C1.79232 28.5057 1.45815 30.7655 1.16992 32.5826C1.22367 32.7516 1.27917 32.9199 1.33639 33.0874C1.53071 33.6562 1.74497 34.2158 1.97832 34.7652C1.99132 34.7959 2.00439 34.8265 2.01752 34.857C2.10222 34.4065 2.18594 33.9271 2.26913 33.4237C2.63974 31.178 3.05126 28.0795 3.40584 25.3031L3.47323 24.8109L3.6036 23.8631C3.89468 21.7505 4.18338 19.6891 4.46834 17.9173C4.84658 15.5845 5.21776 13.769 5.58504 12.8109C5.67598 12.5712 5.76658 12.3868 5.85604 12.2567C5.94596 12.126 6.03239 12.0541 6.11385 12.0326C6.19278 12.0117 6.27404 12.0364 6.35995 12.117C6.44659 12.1985 6.53499 12.3345 6.62411 12.5277C6.80221 12.9145 6.97946 13.5203 7.15633 14.307C7.33312 15.0933 7.50904 16.0591 7.68514 17.1644C7.99265 19.0967 8.29541 21.4463 8.5953 23.8631L8.6025 23.9212L8.61796 24.0458C8.65404 24.3366 8.69022 24.6285 8.72616 24.9203L8.73836 25.0165L9.05086 27.555C9.27293 29.3453 9.49444 31.0742 9.71444 32.5834L9.72176 32.638L9.72225 32.639C10.0525 34.8975 10.4018 36.8141 10.7945 37.8797L10.7965 37.8841L10.88 38.0961C10.9703 38.3104 11.081 38.5288 11.2193 38.7211C11.3941 38.9639 11.739 39.3357 12.2642 39.371C12.8142 39.4077 13.2 39.0553 13.4029 38.7962C13.6052 38.538 13.7464 38.2289 13.8492 37.9579C14.242 36.9223 14.5823 35.0286 14.8931 32.805C15.2087 30.5453 15.5228 27.7677 15.8311 25.016C15.853 24.8226 15.8769 24.6292 15.9005 24.4359C15.924 24.2426 15.9474 24.0491 15.9693 23.8563C16.2338 21.5286 16.4981 19.2609 16.7598 17.3719C17.0166 15.5203 17.273 14.042 17.5255 13.1161L17.5286 13.1046L17.5309 13.0963C17.5333 13.0874 17.5357 13.0785 17.5382 13.0697C17.5863 12.8966 17.6345 12.7442 17.6822 12.6131C17.7586 12.4052 17.8339 12.2533 17.9078 12.1556C17.9822 12.0573 18.0503 12.0201 18.1119 12.0257C18.1748 12.0316 18.2442 12.0828 18.3184 12.1952C18.392 12.3066 18.4663 12.4723 18.5411 12.6927C18.5794 12.8057 18.618 12.933 18.6563 13.0736C18.6605 13.0887 18.6644 13.1041 18.6685 13.1195C18.9249 14.0796 19.1799 15.6334 19.4347 17.5746C19.6751 19.4119 19.9132 21.619 20.1495 23.8563C20.1671 24.0231 20.1976 24.3128 20.2237 24.5609L20.2654 24.9475C20.2668 24.9601 20.2681 24.9726 20.2694 24.9848C20.2812 25.0938 20.2915 25.1885 20.295 25.222C20.5269 27.9912 20.7698 30.7344 21.0006 32.9427C21.2268 35.1152 21.4669 36.9123 21.7345 37.8705L21.7359 37.8758C21.8045 38.1179 21.9031 38.414 22.0557 38.6703C22.1147 38.7692 22.2508 38.9743 22.4644 39.1376C22.6787 39.3013 22.9722 39.4234 23.3424 39.3534C23.9586 39.2367 24.2479 38.6551 24.3233 38.4994C24.4431 38.2517 24.5292 37.9686 24.5953 37.7079C24.8548 36.6848 25.0895 34.836 25.3101 32.6063C25.5245 30.4644 25.7357 27.8701 25.9449 25.2977L25.9553 25.1692C25.9875 24.7791 26.0552 24.2346 26.0875 23.8456C26.2809 21.5146 26.4759 19.2294 26.6685 17.3294C26.8085 15.9546 26.9486 14.7871 27.0885 13.9012C27.1295 13.6413 27.1705 13.4056 27.2115 13.1961C27.231 13.0968 27.2502 13.0032 27.2696 12.9159C27.294 12.8062 27.3185 12.706 27.3429 12.6161C27.3989 12.4091 27.4546 12.257 27.5089 12.1581C27.536 12.1086 27.562 12.0736 27.5865 12.0521C27.6108 12.0308 27.6321 12.0239 27.6505 12.0252C27.6693 12.0266 27.6913 12.0372 27.7164 12.0628C27.7414 12.0885 27.7675 12.1275 27.7945 12.181C27.8487 12.2882 27.9038 12.4487 27.9591 12.6634C27.9759 12.7287 27.9925 12.799 28.0094 12.8739C28.0318 12.9736 28.0543 13.0818 28.0767 13.1981C28.1171 13.4075 28.1574 13.6433 28.1978 13.9032C28.3397 14.8155 28.4817 16.0262 28.6236 17.452C28.8094 19.3199 28.9927 21.5504 29.1759 23.8392C29.2071 24.2299 29.2384 24.6224 29.2696 25.015C29.4824 27.7421 29.719 30.4857 29.9337 32.7211C30.1427 34.9286 30.3654 36.7461 30.6075 37.7372C30.669 37.9884 30.7509 38.2685 30.8682 38.5135C30.9269 38.636 31.0216 38.8084 31.1676 38.9671C31.3164 39.1289 31.5786 39.3388 31.9473 39.3695C32.3321 39.4014 32.62 39.2377 32.8199 39.0497C33.0195 38.8619 33.1332 38.6485 33.17 38.577C33.2986 38.3275 33.3835 38.0427 33.4444 37.7997L33.4903 37.6087C33.7173 36.6058 33.9189 34.8978 34.1109 32.8587C34.2536 31.3653 34.3756 29.6032 34.5011 27.7889L34.5019 27.7769L34.502 27.7761L34.5251 27.4419C34.5791 26.6614 34.6341 25.8737 34.692 25.0961C34.7117 24.6954 34.7298 24.2162 34.752 23.8211C34.8177 22.6539 34.8926 21.5122 34.964 20.4237V20.4227C35.0265 19.4698 35.0862 18.5573 35.1349 17.7035C35.1453 17.5158 35.1552 17.3312 35.1646 17.1502C35.1866 16.7218 35.2156 16.1271 35.234 15.7425C35.2823 14.7303 35.323 13.8822 35.379 13.2567C35.3958 13.0687 35.4139 12.901 35.4342 12.7552C35.4405 12.7083 35.4473 12.6634 35.4542 12.621L35.4547 12.618L35.4796 12.4798C35.5056 12.3506 35.5343 12.2489 35.5641 12.1742C35.5839 12.1244 35.604 12.0876 35.6231 12.0628C35.6425 12.0379 35.6588 12.0281 35.671 12.0257C35.6817 12.0237 35.6949 12.0263 35.7115 12.0414C35.7287 12.057 35.7477 12.0842 35.7667 12.1249C35.8045 12.206 35.8398 12.3338 35.8692 12.5086L35.8946 12.6708L35.9195 12.8563L35.92 12.8587C35.9351 12.9803 35.9495 13.115 35.964 13.2616C36.0469 14.1032 36.1217 15.345 36.2135 16.8729C36.3244 18.795 36.4516 21.4082 36.565 23.8207L36.5683 23.8907L36.574 24.0111C36.5775 24.0854 36.5811 24.1598 36.5846 24.2342L36.6129 25.014C36.7244 27.4727 36.8363 29.9337 36.9483 32.0184V32.0204C37.0747 34.3106 37.2011 36.19 37.3321 37.2694C37.3653 37.5425 37.4018 37.7928 37.4444 38.0033C37.4657 38.1083 37.4926 38.2243 37.5274 38.3382C37.5567 38.434 37.6172 38.6147 37.7301 38.7948C37.8172 38.9339 38.1607 39.4238 38.7725 39.3695C39.3359 39.3194 39.6168 38.8408 39.6793 38.7294C39.8383 38.4459 39.9043 38.1122 39.9337 37.9593C40.081 37.1941 40.2087 35.5886 40.3302 33.5609C40.3924 32.5216 40.4189 31.3412 40.4449 30.0824L40.4494 29.8655L40.4494 29.8651C40.474 28.6698 40.5 27.4074 40.5582 26.1297C40.5748 25.7652 40.5914 25.3994 40.608 25.0336C40.6237 24.6482 40.6499 24.2436 40.6656 23.8602C40.7491 21.8193 40.8327 19.826 40.9161 18.0946L40.9204 18.0076L40.9205 18.0064L40.9206 18.0041C40.933 17.7527 40.9452 17.5069 40.9576 17.2674C40.9686 17.0567 40.9794 16.8506 40.9903 16.6498C41.0669 15.2385 41.1425 14.08 41.2179 13.2801C41.2289 13.1626 41.24 13.0527 41.2511 12.951C41.2725 12.7538 41.2941 12.5871 41.3155 12.4515C41.3378 12.3104 41.3601 12.2031 41.3819 12.1302C41.3928 12.0938 41.4033 12.0668 41.4132 12.0487C41.418 12.0399 41.4224 12.034 41.4259 12.0301C41.4273 12.0286 41.4287 12.0275 41.4296 12.0268L41.4298 12.0267C41.4309 12.0275 41.4331 12.0286 41.4356 12.0316C41.4437 12.0413 41.4536 12.0597 41.4644 12.0892C41.4859 12.1476 41.5076 12.2408 41.5299 12.37C41.5584 12.535 41.5872 12.757 41.6158 13.0311C41.6241 13.1104 41.6324 13.1941 41.6407 13.2821C41.7146 14.0658 41.7885 15.186 41.8624 16.5619C41.8747 16.7906 41.8868 17.0264 41.899 17.2684C41.9956 19.1802 42.0906 21.4849 42.1876 23.8602L42.2345 25.014C42.3345 27.4727 42.4446 29.9333 42.545 32.0179V32.0204L42.63 33.6551C42.7151 35.2004 42.8007 36.46 42.8888 37.2694C42.9185 37.5425 42.9516 37.7924 42.9898 38.0028C43.0089 38.1077 43.0328 38.2234 43.0641 38.3373C43.0903 38.433 43.1441 38.6139 43.2452 38.7938C43.2848 38.8642 43.3816 39.021 43.5367 39.1537C43.6921 39.2866 43.9077 39.3963 44.1837 39.369C44.4381 39.3438 44.6284 39.2107 44.7613 39.0711C44.8939 38.9319 44.9707 38.7848 44.9991 38.7284C45.1416 38.4451 45.2008 38.1117 45.2271 37.9588C45.3592 37.1938 45.4737 35.5882 45.5826 33.5604C45.6942 31.483 45.7497 28.63 45.8604 25.9198C45.8752 25.5579 45.8888 25.3567 45.9035 25.0014H45.9044C45.9201 24.6161 45.9452 24.2311 45.9609 23.8477Z" fill="white"/>
<path d="M46.9903 13.2681C47.0642 14.0524 47.1382 15.173 47.2121 16.549C47.2244 16.7778 47.2366 17.0137 47.2489 17.2558C47.3455 19.1677 47.4403 21.4724 47.5374 23.8477L47.5418 23.957C47.556 24.3043 47.5796 24.6528 47.5938 25.0014C47.6013 25.187 47.6054 25.3143 47.6095 25.4474C47.6136 25.5814 47.6177 25.7151 47.6253 25.9013C47.6666 26.9118 47.7001 27.9418 47.7318 28.944C47.7361 29.0814 47.7404 29.2184 47.7447 29.3546L47.7453 29.3716V29.3717C47.7934 30.9015 47.8389 32.3491 47.9029 33.5416C47.9279 34.0062 47.9532 34.4486 47.9788 34.8636C48.3053 34.1039 48.5953 33.3247 48.8464 32.5284C48.7535 30.6594 48.6621 28.437 48.5686 26.1491C48.5535 25.7768 48.4958 24.4665 48.4807 24.0955C48.3699 21.3841 48.3146 18.5326 48.203 16.4552C48.1863 16.1436 48.1694 15.8421 48.1524 15.5521C47.8032 14.6974 47.4081 13.8664 46.9701 13.062C46.9768 13.1279 46.9836 13.1966 46.9903 13.2681Z" fill="white"/>
</g>
<path d="M76.3858 29.6531C76.3858 33.145 72.9843 35.9746 67.3552 35.9746C61.6959 35.9746 57.301 33.2052 57 29.0511H61.3949C61.8465 31.0679 64.2245 32.3623 67.295 32.3623C70.1547 32.3623 72.1715 31.1582 72.1715 29.5327C72.1715 24.5057 57.2709 29.623 57.2709 19.9903C57.2709 16.2878 61.1842 14 66.3618 14C71.8404 14 75.6935 16.6189 76.0246 20.4419H71.6598C71.2985 18.8163 69.071 17.4919 66.3618 17.4919C63.4118 17.4919 61.4852 18.6056 61.4852 20.1107C61.4852 24.7766 76.3858 19.9 76.3858 29.6531Z" fill="black"/>
<path d="M83.607 26.9138V35.5231H79.3927V14.4515H83.607V23.0608H86.0152L94.2331 14.4515H99.9525L89.9586 24.9873L100.735 35.5231H94.8653L85.9249 26.9138H83.607Z" fill="black"/>
<path d="M109.96 27.3955L100.267 14.4515H105.565L112.067 23.121L118.569 14.4515H123.867L114.174 27.3955V35.5231H109.96V27.3955Z" fill="black"/>
<path d="M132.536 27.3955L122.843 14.4515H128.141L134.643 23.121L141.145 14.4515H146.443L136.751 27.3955V35.5231H132.536V27.3955Z" fill="black"/>
<path d="M143.009 35.5231L153.575 14.4515H158.271L168.897 35.5231H164.201L161.703 30.5562H150.174L147.675 35.5231H143.009ZM152.1 26.7031H159.746L155.923 19.1174L152.1 26.7031Z" fill="black"/>
<path d="M184.916 35.5231L180.25 29.3822H174.531V35.5231H170.317V14.4515H181.153C185.669 14.4515 189.401 17.4316 189.401 21.9169C189.401 24.8669 187.475 27.3353 184.856 28.5695L190.154 35.5231H184.916ZM185.187 21.9169C185.187 19.8398 183.501 18.3347 181.153 18.3347H174.531V25.4388H181.153C183.471 25.4388 185.187 23.9036 185.187 21.9169Z" fill="black"/>
</g>
<defs>
<clipPath id="clip0_262_168">
<rect width="190" height="50" fill="white"/>
</clipPath>
<clipPath id="clip1_262_168">
<rect width="50" height="50" fill="white"/>
</clipPath>
</defs>
</svg>
