<svg viewBox="0 0 14.8333 14.8335" xmlns="http://www.w3.org/2000/svg" xmlns:xlink="http://www.w3.org/1999/xlink" width="14.833252" height="14.833496" fill="none" customFrame="#000000">
	<path id="Vector" d="M9.07779 10.503C9.22479 10.4662 9.35489 10.3805 9.44667 10.26L9.68333 9.95C9.80753 9.7844 9.96857 9.65 10.1537 9.55743C10.3389 9.46486 10.543 9.41667 10.75 9.41667L12.75 9.41667C13.1036 9.41667 13.4428 9.55714 13.6928 9.80719C13.9429 10.0572 14.0833 10.3964 14.0833 10.75L14.0833 12.75C14.0833 13.1036 13.9429 13.4428 13.6928 13.6928C13.4428 13.9429 13.1036 14.0833 12.75 14.0833C9.5674 14.0833 6.51515 12.819 4.26472 10.5686C2.01428 8.31818 0.75 5.26593 0.75 2.08333C0.75 1.72971 0.890476 1.39057 1.14052 1.14052C1.39057 0.890476 1.72971 0.75 2.08333 0.75L4.08333 0.75C4.43695 0.75 4.77609 0.890476 5.02614 1.14052C5.27619 1.39057 5.41667 1.72971 5.41667 2.08333L5.41667 4.08333C5.41667 4.29033 5.36847 4.49448 5.2759 4.67962C5.18333 4.86476 5.04893 5.0258 4.88333 5.15L4.57133 5.384C4.44894 5.47745 4.36268 5.61039 4.32719 5.76023C4.29171 5.91008 4.30919 6.06758 4.37667 6.206C5.28779 8.05658 6.78628 9.5532 8.638 10.462C8.77568 10.5252 8.9308 10.5397 9.07779 10.503Z" fill-rule="nonzero" stroke="rgb(68,68,68)" stroke-linecap="round" stroke-linejoin="round" stroke-width="1.5" />
</svg>
