<svg viewBox="0 0 14.7075 12.5004" xmlns="http://www.w3.org/2000/svg" xmlns:xlink="http://www.w3.org/1999/xlink" width="14.707520" height="12.500366" fill="none" customFrame="#000000">
	<path id="Vector" d="M1.3051 5.75772C0.979246 5.88657 0.81673 5.95179 0.774657 6.03586C0.756422 6.0718 0.748067 6.11156 0.750376 6.15141C0.752685 6.19127 0.765581 6.22991 0.787857 6.26372C0.839829 6.34229 1.00894 6.38943 1.34883 6.4845L6.11294 7.82179L9.19332 9.72635L11.6104 11.2632C11.7886 11.3764 11.8777 11.4329 11.9577 11.4329C11.9923 11.4332 12.0265 11.4265 12.0582 11.4134C12.0899 11.4002 12.1183 11.3809 12.1417 11.3567C12.197 11.3025 12.2135 11.2027 12.2465 11.0031L13.95 0.750366L1.3051 5.75772ZM13.95 0.750366L6.11294 7.82179M6.11294 7.82179L6.24163 11.2004C6.24163 11.4628 6.24163 11.594 6.29855 11.66C6.34805 11.7181 6.42229 11.7511 6.50149 11.7504C6.59223 11.7496 6.69948 11.6655 6.91397 11.4989L9.19332 9.72635" fill-rule="nonzero" stroke="rgb(68,68,68)" stroke-linecap="round" stroke-linejoin="round" stroke-width="1.5" />
</svg>
